<svg width="120" height="120" viewBox="0 0 120 120" fill="none" xmlns="http://www.w3.org/2000/svg">
<circle cx="60" cy="60" r="60" fill="#63518C"/>
<mask id="mask0_2193_135955" style="mask-type:luminance" maskUnits="userSpaceOnUse" x="36" y="69" width="17" height="27">
<path d="M36.366 69.4961H52.1115V96.0005H36.366V69.4961Z" fill="white"/>
</mask>
<g mask="url(#mask0_2193_135955)">
<path d="M37.9123 69.6719L36.7437 92.5629C36.636 94.3885 38.0199 95.8942 39.7201 96.0008C39.8278 96.0008 39.8278 96.0008 39.9332 96.0008C41.6356 96.0008 43.0173 94.7127 43.1227 92.9915L44.1859 73.4341L45.2513 92.9915C45.3567 94.7127 46.7384 96.0008 48.4408 96.0008C48.4408 96.0008 48.5463 96.0008 48.6539 96.0008C50.3541 95.8942 51.738 94.3885 51.6304 92.5629L50.3541 69.6719C47.1646 69.6719 41.104 69.6719 37.9123 69.6719Z" fill="#F7D671"/>
</g>
<mask id="mask1_2193_135955" style="mask-type:luminance" maskUnits="userSpaceOnUse" x="67" y="69" width="16" height="27">
<path d="M67.2948 69.4961H82.478V96.0005H67.2948V69.4961Z" fill="white"/>
</mask>
<g mask="url(#mask1_2193_135955)">
<path d="M68.5383 69.6719L67.3697 92.5629C67.262 94.3885 68.6459 95.8942 70.3461 96.0008C70.4537 96.0008 70.4537 96.0008 70.5592 96.0008C72.2616 96.0008 73.6433 94.7127 73.7487 92.9915L74.8119 73.4341L75.8773 92.9915C75.9827 94.7127 77.3644 96.0008 79.0668 96.0008C79.1722 96.0008 79.1722 96.0008 79.2799 96.0008C81.0877 95.8942 82.3618 94.3885 82.2563 92.5629L80.9801 69.6719C77.7906 69.6719 71.73 69.6719 68.5383 69.6719Z" fill="#F7D671"/>
</g>
<mask id="mask2_2193_135955" style="mask-type:luminance" maskUnits="userSpaceOnUse" x="26" y="24" width="67" height="47">
<path d="M26 24H93V70.064H26V24Z" fill="white"/>
</mask>
<g mask="url(#mask2_2193_135955)">
<path d="M92.9956 24H26.0022V65.8021H32.1704C32.1704 66.3396 32.0649 66.877 32.0649 67.4145C32.0649 68.5982 32.9151 69.5643 34.0859 69.5643H34.1913C35.149 69.5643 35.9991 68.8114 36.2122 67.9519C36.2122 67.8453 36.3177 67.6299 36.3177 67.5233C36.4253 64.4051 36.8493 60.8605 37.5939 57.8512C37.5939 57.9578 37.2754 68.8114 37.2754 68.0608V68.5982H37.9124C38.0201 68.5982 50.7804 68.5982 50.1412 68.5982H50.6728V68.1674V68.0608C50.6728 67.9519 50.6728 67.9519 50.6728 67.8453C50.6728 67.7365 50.3543 57.8512 50.3543 58.0666C51.0989 60.9672 51.5251 64.6206 51.6305 67.5233C51.6305 67.7365 51.6305 67.9519 51.7381 68.1674C52.0567 69.0269 52.8013 69.5643 53.7569 69.5643H53.8645C55.0331 69.5643 55.9909 68.5982 55.8854 67.4145C55.8854 66.877 55.8854 66.3396 55.7778 65.8021H66.8379L66.9433 63.5456H55.7778C55.2462 58.2798 53.7569 52.2634 50.7804 47.9637C48.9726 45.4918 44.1861 43.7728 38.8702 46.7822C37.0623 46.7822 33.2336 54.7353 32.3835 63.5456H28.3416V26.2565H90.6562V63.439H86.4035C85.8719 58.1732 84.3825 52.1546 81.4061 47.8571C80.7669 47.1042 80.7669 47.1042 80.4483 46.8888C76.4087 43.8816 72.6854 45.0632 68.6458 47.213C67.688 47.535 67.3695 48.5012 64.4985 51.9413L62.159 47.535C61.7329 46.6756 60.7752 46.2447 59.8196 46.4601L58.1172 42.2693C58.0118 41.9472 57.6911 41.8384 57.4802 41.9472C57.1595 42.0538 57.054 42.3759 57.1595 42.5913L58.8619 46.8888C58.1172 47.5351 57.9041 48.61 58.3303 49.5761L62.159 56.8829C62.9037 58.2798 64.7116 58.3887 65.6671 57.2071L67.1564 55.2727C67.2619 55.1639 68.325 53.7669 68.2196 53.8758C68.2196 55.3793 68.325 48.61 67.7934 68.0608V68.5982H68.325C71.4091 68.5982 77.4719 68.5982 80.556 68.5982H81.0876V68.1674V68.0608C81.0876 67.9519 81.0876 67.9519 81.0876 67.9519C80.9799 65.2668 80.7669 57.6358 80.7669 58.0666C82.1507 63.439 81.83 67.2013 82.1507 68.1674C82.4693 69.0269 83.2139 69.5643 84.1695 69.5643H84.2771C85.4457 69.5643 86.4035 68.5982 86.298 67.4145C86.298 66.877 86.298 66.3396 86.1904 65.8021H92.5717V24H92.9956Z" fill="#F7D671"/>
</g>
<path d="M38.233 40.44C38.233 42.2678 38.9755 43.7713 40.2518 44.9529C42.8043 43.9868 45.5698 43.7713 48.1223 44.8463C49.291 43.7713 50.0356 42.2678 50.0356 40.5488C50.0356 37.324 47.3777 34.6367 44.186 34.6367C40.9964 34.6367 38.233 37.1086 38.233 40.44Z" fill="#F7D671"/>
<path d="M68.8566 40.4432C68.8566 42.271 69.6012 43.7745 70.8775 44.9561C72.3668 44.4208 73.7485 44.0966 75.1324 44.0966C76.4086 44.0966 77.5773 44.312 78.7481 44.8495C79.9167 43.7745 80.6614 42.271 80.6614 40.552C80.6614 37.3272 78.0034 34.6399 74.8117 34.6399C71.5167 34.5333 68.8566 37.1118 68.8566 40.4432Z" fill="#F7D671"/>
<path d="M46.8461 32.0581C46.3145 32.0581 45.8884 31.8426 45.3568 31.414L44.8252 32.0581C45.3568 32.5955 46.1014 32.8109 46.7385 32.8109C47.2701 32.8109 47.6962 32.7021 48.0147 32.3801C48.3332 32.1647 48.4409 31.736 48.4409 31.3052C48.4409 30.8765 48.3332 30.5545 48.0147 30.3391C47.8017 30.1236 47.3777 29.9082 46.9516 29.8016C46.42 29.695 46.1014 29.5862 45.9938 29.4796C45.8884 29.3707 45.7829 29.2641 45.7829 29.0487C45.7829 28.8333 45.8884 28.7267 45.9938 28.6201C46.1014 28.5113 46.3145 28.5113 46.5254 28.5113C46.7385 28.5113 46.9516 28.5113 47.2701 28.6201C47.5908 28.7267 47.8017 28.8333 48.0147 29.0487L48.4409 28.4046C48.2278 28.1892 48.0147 28.0826 47.6962 27.9738C47.3777 27.8672 47.0592 27.8672 46.8461 27.8672C46.42 27.8672 45.9938 27.9738 45.6753 28.1892C45.3568 28.4046 45.1437 28.8333 45.1437 29.2641C45.1437 29.695 45.2513 30.017 45.5699 30.2302C45.6753 30.3391 45.8884 30.4457 45.9938 30.5545C46.2069 30.6611 46.42 30.6611 46.8461 30.7677C47.1646 30.8765 47.4831 30.9831 47.5908 31.092C47.6962 31.1986 47.8017 31.3052 47.8017 31.5206C47.8017 31.736 47.6962 31.8426 47.5908 31.9515C47.3777 31.9515 47.1646 32.0581 46.8461 32.0581Z" fill="#F7D671"/>
<path d="M51.7381 28.6212C52.0566 28.6212 52.2697 28.6212 52.4806 28.7278C52.6936 28.8344 52.9067 28.9432 53.1198 29.1587L53.6514 28.6212C53.1198 28.0838 52.5882 27.7617 51.8435 27.7617C51.0989 27.7617 50.4618 27.9749 50.0357 28.5124C49.6095 28.9432 49.291 29.5873 49.291 30.3402C49.291 31.0931 49.5041 31.6306 49.9302 32.0592C50.3542 32.49 50.9934 32.7033 51.7381 32.7033C52.4805 32.7033 53.1198 32.3812 53.5459 31.8438L53.0121 31.3063C52.8013 31.5217 52.5882 31.6306 52.3751 31.7372C52.162 31.8438 51.949 31.8438 51.6304 31.8438C51.2065 31.8438 50.7803 31.7372 50.4618 31.4151C50.1411 31.0931 49.9302 30.6622 49.9302 30.2314C49.9302 29.8027 50.1411 29.3719 50.4618 29.0499C50.8858 28.7278 51.3119 28.6212 51.7381 28.6212Z" fill="#F7D671"/>
<path d="M54.5016 27.9766V32.7049H55.3517V30.7705H57.6911V32.7049H58.4358V27.9766H57.6911V30.0198H55.3517V27.9766H54.5016Z" fill="#F7D671"/>
<path d="M61.9461 32.8121C62.6907 32.8121 63.2223 32.49 63.7539 32.0592C64.2855 31.6306 64.4986 30.9843 64.4986 30.2314C64.4986 29.5873 64.2855 28.9432 63.7539 28.5124C63.2223 28.0838 62.6907 27.7617 61.9461 27.7617C61.2014 27.7617 60.6698 27.9749 60.1382 28.5124C59.7121 28.9432 59.3936 29.5873 59.3936 30.2314C59.499 30.9843 59.7121 31.6306 60.2437 32.0592C60.6698 32.49 61.3068 32.8121 61.9461 32.8121ZM60.7752 29.0499C61.096 28.7278 61.5199 28.5124 61.9461 28.5124C62.3722 28.5124 62.7962 28.7278 63.1147 29.0499C63.4354 29.3719 63.6463 29.8027 63.6463 30.2314C63.6463 30.7688 63.4354 31.0931 63.1147 31.5217C62.7962 31.8438 62.4777 32.0592 61.9461 32.0592C61.5199 32.0592 61.096 31.8438 60.7752 31.5217C60.4567 31.1997 60.2437 30.7688 60.2437 30.2314C60.3513 29.8027 60.4567 29.3719 60.7752 29.0499Z" fill="#F7D671"/>
<path d="M67.688 27.8672C66.9433 27.8672 66.4118 28.0826 65.8802 28.6201C65.3486 29.0487 65.1355 29.695 65.1355 30.3391C65.1355 30.9831 65.454 31.6294 65.8802 32.0581C66.4118 32.4889 66.9433 32.8109 67.688 32.8109C68.4327 32.8109 68.9643 32.5955 69.4958 32.0581C69.922 31.6294 70.1329 30.9831 70.1329 30.3391C70.1329 29.695 69.922 29.0487 69.3904 28.6201C68.8566 28.1892 68.325 27.8672 67.688 27.8672ZM68.8566 31.5206C68.5381 31.8426 68.1142 32.0581 67.688 32.0581C67.1564 32.0581 66.8379 31.8426 66.5172 31.5206C66.1987 31.1986 65.9856 30.7677 65.9856 30.2302C65.9856 29.8016 66.1987 29.3707 66.5172 29.0487C66.8379 28.7267 67.2619 28.5113 67.688 28.5113C68.1142 28.5113 68.5381 28.7267 68.8566 29.0487C69.1773 29.3707 69.3904 29.8016 69.3904 30.2302C69.3904 30.7677 69.1773 31.1986 68.8566 31.5206Z" fill="#F7D671"/>
<path d="M71.196 27.9766V32.7049H74.1747V31.9542H71.9407V27.9766H71.196Z" fill="#F7D671"/>
</svg>
