<svg width="508" height="208" viewBox="0 0 508 208" fill="none" xmlns="http://www.w3.org/2000/svg">
<mask id="mask0_2591_32122" style="mask-type:luminance" maskUnits="userSpaceOnUse" x="369" y="140" width="70" height="68">
<path d="M369.071 140.754H438.209V207.602H369.071V140.754Z" fill="white"/>
</mask>
<g mask="url(#mask0_2591_32122)">
<path d="M434.516 146.551C425.946 147.343 417.376 148.928 409.008 145.959C403.227 143.984 397.649 140.624 392.263 145.368C391.666 145.768 391.272 146.551 391.07 147.544C381.904 150.903 374.325 158.424 371.536 168.704C367.15 185.12 376.921 202.128 393.658 206.48C410.201 210.832 427.34 201.144 431.726 184.528C433.919 176.224 432.524 167.52 428.34 160.6C430.726 159.016 432.726 157.04 434.121 155.256C435.516 153.671 437.507 151.104 437.901 148.727C438.507 145.959 437.901 146.36 434.516 146.551ZM427.744 183.535C423.955 197.776 409.008 206.28 394.658 202.528C380.307 198.768 371.737 183.936 375.527 169.696C377.711 161.392 383.895 154.864 391.272 151.896C391.666 153.08 392.465 154.463 393.456 155.656C397.245 160.2 404.42 164.752 413.587 164.952C417.578 165.144 421.367 164.16 424.551 162.776C428.542 168.704 429.735 176.224 427.744 183.535Z" fill="#F7D671"/>
</g>
<path d="M407.615 187.887C401.834 187.495 396.256 186.111 391.072 183.535C389.081 182.551 386.484 183.935 386.686 186.303C386.686 190.263 390.273 194.816 396.449 196.591C402.826 198.175 408.01 196.2 410.202 192.64C411.202 190.655 409.808 188.087 407.615 187.887Z" fill="#F7D671"/>
<path d="M416.499 171.897C417.034 172.036 417.517 172.28 417.964 172.611C418.403 172.95 418.762 173.359 419.034 173.829C419.315 174.308 419.49 174.822 419.561 175.37C419.631 175.91 419.596 176.449 419.455 176.98C419.315 177.52 419.069 177.999 418.736 178.434C418.394 178.878 417.99 179.235 417.508 179.505C417.026 179.783 416.508 179.957 415.955 180.027C415.412 180.096 414.868 180.062 414.333 179.922C413.798 179.774 413.306 179.539 412.868 179.209C412.42 178.869 412.07 178.46 411.789 177.99C411.508 177.511 411.333 176.998 411.263 176.449C411.192 175.91 411.228 175.37 411.368 174.83C411.517 174.299 411.754 173.821 412.096 173.377C412.429 172.942 412.842 172.585 413.324 172.315C413.798 172.036 414.315 171.862 414.868 171.793C415.42 171.723 415.964 171.758 416.499 171.897Z" fill="#F7D671"/>
<path d="M391.362 165.255C391.897 165.394 392.388 165.637 392.826 165.968C393.265 166.308 393.625 166.708 393.905 167.187C394.177 167.666 394.353 168.179 394.432 168.719C394.502 169.267 394.467 169.807 394.326 170.338C394.177 170.869 393.94 171.356 393.598 171.791C393.265 172.227 392.853 172.583 392.37 172.862C391.888 173.141 391.379 173.315 390.827 173.384C390.274 173.454 389.73 173.419 389.195 173.28C388.66 173.132 388.169 172.897 387.73 172.557C387.292 172.227 386.932 171.817 386.651 171.339C386.379 170.869 386.204 170.355 386.134 169.807C386.055 169.258 386.09 168.719 386.239 168.188C386.379 167.657 386.625 167.169 386.958 166.734C387.3 166.299 387.704 165.942 388.186 165.672C388.669 165.394 389.186 165.22 389.73 165.15C390.283 165.072 390.827 165.107 391.362 165.255Z" fill="#F7D671"/>
<path d="M353.203 153.67C348.019 156.246 342.441 157.63 336.66 158.022C334.266 158.222 333.073 160.598 334.266 162.574C336.459 165.934 341.643 168.11 348.019 166.526C354.396 164.75 357.782 160.398 357.782 156.246C357.782 154.07 355.396 152.686 353.203 153.67Z" fill="#F7D671"/>
<path d="M358.046 138.359C358.195 138.89 358.23 139.429 358.16 139.978C358.081 140.517 357.905 141.031 357.634 141.51C357.353 141.988 356.993 142.389 356.555 142.728C356.116 143.059 355.625 143.303 355.09 143.442C354.555 143.59 354.011 143.625 353.458 143.546C352.914 143.477 352.397 143.303 351.914 143.033C351.432 142.754 351.029 142.397 350.686 141.962C350.344 141.527 350.108 141.04 349.967 140.509C349.818 139.978 349.783 139.438 349.853 138.89C349.932 138.341 350.108 137.828 350.379 137.358C350.66 136.879 351.02 136.47 351.458 136.139C351.897 135.8 352.388 135.565 352.923 135.417C353.458 135.277 354.002 135.243 354.555 135.312C355.107 135.382 355.616 135.556 356.098 135.834C356.581 136.113 356.993 136.47 357.327 136.905C357.669 137.34 357.905 137.828 358.046 138.359Z" fill="#F7D671"/>
<path d="M332.95 145.09C333.099 145.621 333.134 146.161 333.064 146.709C332.985 147.258 332.81 147.771 332.538 148.241C332.257 148.72 331.897 149.129 331.459 149.46C331.02 149.799 330.529 150.034 329.994 150.182C329.459 150.321 328.915 150.356 328.363 150.287C327.81 150.217 327.301 150.043 326.819 149.764C326.336 149.486 325.924 149.129 325.591 148.694C325.249 148.258 325.012 147.771 324.871 147.24C324.722 146.709 324.687 146.169 324.757 145.621C324.836 145.081 325.012 144.568 325.284 144.089C325.564 143.61 325.924 143.21 326.363 142.871C326.801 142.54 327.292 142.296 327.827 142.157C328.363 142.009 328.906 141.974 329.459 142.052C330.012 142.122 330.52 142.296 331.003 142.575C331.485 142.844 331.897 143.201 332.231 143.637C332.573 144.072 332.81 144.559 332.95 145.09Z" fill="#F7D671"/>
<path d="M372.537 138.648C368.151 122.232 351.011 112.344 334.468 116.887C333.872 117.087 333.266 117.288 332.67 117.479C332.67 117.679 332.67 117.879 332.67 118.071V118.271V118.471C332.275 119.655 331.477 120.647 330.284 121.039L322.513 123.415L321.714 123.615C321.513 123.807 321.513 123.807 321.311 124.007L318.32 132.511C317.925 133.695 316.925 134.487 315.934 134.687H315.732H315.53C315.53 134.687 315.53 134.687 315.337 134.687C315.337 134.687 315.337 134.687 315.136 134.687C315.136 134.687 315.136 134.687 314.934 134.687C314.934 134.687 314.934 134.687 314.732 134.687C314.732 134.687 314.732 134.687 314.539 134.687C314.539 134.687 314.539 134.687 314.337 134.687C314.337 134.687 314.337 134.687 314.136 134.687C314.136 134.687 314.136 134.687 313.934 134.687C313.934 134.687 313.934 134.687 313.741 134.687H313.539C310.952 140.815 310.346 147.744 312.145 154.463C316.53 170.879 333.67 180.767 350.213 176.415C367.151 172.072 377.116 155.255 372.537 138.648ZM349.415 172.664C335.065 176.415 320.118 167.911 316.329 153.671C314.934 148.727 315.136 143.783 316.53 139.039L339.652 132.912L342.038 122.031L349.617 130.335L360.976 127.367C364.563 130.736 367.151 134.887 368.546 139.831C372.335 154.071 363.765 168.703 349.415 172.664Z" fill="#F7D671"/>
<mask id="mask1_2591_32122" style="mask-type:luminance" maskUnits="userSpaceOnUse" x="306" y="109" width="25" height="26">
<path d="M306.199 109.176H330.9V134.07H306.199V109.176Z" fill="white"/>
</mask>
<g mask="url(#mask1_2591_32122)">
<path d="M306.962 125.591L313.742 132.511C314.54 133.303 315.935 133.103 316.33 131.919L319.716 122.231L329.487 119.263C330.478 118.863 330.882 117.679 330.084 116.887L323.303 109.967C322.514 109.175 321.11 109.375 320.716 110.559L317.33 120.247L307.558 123.215C306.567 123.415 306.163 124.799 306.962 125.591Z" fill="#F7D671"/>
</g>
<mask id="mask2_2591_32122" style="mask-type:luminance" maskUnits="userSpaceOnUse" x="278" y="114" width="40" height="41">
<path d="M278.216 114.016H317.425V154.125H278.216V114.016Z" fill="white"/>
</mask>
<g mask="url(#mask2_2591_32122)">
<path d="M311.547 133.307L305.363 126.979C304.574 125.987 304.17 124.803 304.574 123.619C304.968 122.427 305.767 121.443 306.96 121.043L315.933 118.275L316.126 117.883C314.538 116.891 312.144 115.907 309.951 116.299C305.968 116.691 302.179 120.851 298.986 125.595C295.6 130.539 292.215 133.699 288.627 133.899C285.039 134.299 281.048 131.131 279.461 131.131C278.662 131.131 278.855 132.515 279.855 135.091C280.855 137.659 283.048 141.419 285.838 145.171C288.627 148.731 292.013 151.699 295.206 152.099C298.39 152.491 301.583 150.115 304.372 145.771C307.161 141.219 309.556 136.667 311.547 133.307Z" fill="#F7D671"/>
</g>
<mask id="mask3_2591_32122" style="mask-type:luminance" maskUnits="userSpaceOnUse" x="41" y="0" width="7" height="14">
<path d="M41.2256 0H47.9621V13.7439H41.2256V0Z" fill="white"/>
</mask>
<g mask="url(#mask3_2591_32122)">
<path d="M44.2706 11.8216L44.4198 11.8129L45.9117 2.33404C46.0258 1.55937 45.7011 0.758584 45.0254 0.340783C44.6919 0.131882 44.3057 0.0274328 43.8844 0.0448401C43.472 0.053546 43.0946 0.192813 42.7787 0.419121C42.138 0.889148 41.8747 1.71605 42.0502 2.48201L44.2706 11.8216Z" fill="#F7D671"/>
</g>
<path d="M65.4798 9.36407C65.9798 8.75478 66.1026 7.89306 65.7254 7.19673C65.5412 6.85727 65.2605 6.57003 64.8921 6.37853C64.5237 6.18704 64.129 6.11741 63.7431 6.16093C62.9536 6.24797 62.3045 6.82245 62.0765 7.57971L59.2871 16.7626L59.4187 16.8323L65.4798 9.36407Z" fill="#F7D671"/>
<path d="M80.198 23.4144C80.2068 23.0314 80.1103 22.6397 79.891 22.2915C79.6629 21.9434 79.3559 21.6822 79.0051 21.5343C78.277 21.2122 77.4174 21.395 76.8385 21.9347L69.7949 28.5063L69.8739 28.6282L78.891 25.1726C79.6366 24.8854 80.1717 24.2064 80.198 23.4144Z" fill="#F7D671"/>
<mask id="mask4_2591_32122" style="mask-type:luminance" maskUnits="userSpaceOnUse" x="72" y="40" width="13" height="8">
<path d="M72.6641 40.4844H84.2074V47.1692H72.6641V40.4844Z" fill="white"/>
</mask>
<g mask="url(#mask4_2591_32122)">
<path d="M84.8552 43.5133C84.8377 43.0955 84.6973 42.7213 84.4693 42.4166C84.0044 41.7725 83.1711 41.5114 82.3992 41.6855L72.9873 43.8876L72.9961 44.0356L82.5395 45.5153C83.329 45.6372 84.136 45.3064 84.557 44.6362C84.7587 44.3054 84.8728 43.9224 84.8552 43.5133Z" fill="#F7D671"/>
</g>
<mask id="mask5_2591_32122" style="mask-type:luminance" maskUnits="userSpaceOnUse" x="0" y="38" width="13" height="5">
<path d="M0 38.2539H12.0346V42.7105H0V38.2539Z" fill="white"/>
</mask>
<g mask="url(#mask5_2591_32122)">
<path d="M2.3953 38.689C1.60586 38.5671 0.798877 38.8979 0.377842 39.5681C0.176095 39.8901 0.0708376 40.2818 0.0796086 40.6909C0.0971528 41.1087 0.237498 41.483 0.465557 41.7963C0.939223 42.4318 1.76375 42.6929 2.54442 42.5188L11.9475 40.3166V40.1687L2.3953 38.689Z" fill="#F7D671"/>
</g>
<path d="M7.29633 19.0265C6.95424 19.2093 6.66478 19.4879 6.46303 19.8534C6.27006 20.219 6.20866 20.6107 6.24374 20.9937C6.33146 21.7771 6.91915 22.4212 7.68228 22.6475L16.9363 25.4154L17.0065 25.2849L9.48045 19.2616C8.85767 18.7654 7.99806 18.6523 7.29633 19.0265Z" fill="#F7D671"/>
<path d="M28.7711 14.9791L28.8939 14.9007L25.4116 5.96153C25.1222 5.22167 24.4292 4.69072 23.631 4.66461C23.2451 4.6559 22.8591 4.75165 22.5082 4.96925C22.1574 5.18686 21.8942 5.50021 21.7363 5.84838C21.4206 6.57082 21.596 7.42383 22.1486 7.99831L28.7711 14.9791Z" fill="#F7D671"/>
<path d="M49.5768 76.4492C49.4978 76.4492 49.3838 76.4666 49.2347 76.5101L46.4979 77.2848C41.4367 78.7123 36.2001 80.192 31.0424 81.6108C30.367 81.7936 30.3232 82.1069 30.3056 82.8033C30.2969 82.9338 30.2969 83.0557 30.2881 83.1863C30.2881 85.0403 30.8056 85.1969 31.3758 85.1969C31.674 85.1969 32.0336 85.136 32.481 85.0141C37.7878 83.5344 43.0858 82.046 48.3926 80.5663C49.1031 80.3574 49.6996 79.8264 50.0066 79.104C50.3487 78.3206 50.3136 77.4502 49.9188 76.719C49.7785 76.4492 49.6645 76.4492 49.5768 76.4492Z" fill="#F7D671"/>
<path d="M30.2883 77.9195C30.297 79.8605 30.6479 79.8692 31.0251 79.8692C31.2882 79.8692 31.6391 79.7996 32.1303 79.669C33.8407 79.1903 35.5424 78.7116 37.2529 78.2328C41.0159 77.1709 44.9017 76.0829 48.7349 75.0297C49.6646 74.7686 49.9629 74.5249 50.0243 73.9765L50.0506 73.8111C50.1646 72.7666 50.2699 71.8701 49.612 71.0867C49.5243 70.9735 49.4629 70.9648 49.4015 70.9648C49.2875 70.9648 49.1384 71.0084 48.9717 71.0519L48.9015 71.078C43.9982 72.4533 37.8844 74.1767 32.0163 75.7957C30.0076 76.3527 30.2181 77.4669 30.2883 77.8325V77.9195Z" fill="#F7D671"/>
<path d="M37.3311 85.3086C38.8485 85.3782 40.8485 85.3956 42.4186 85.3956C43.4624 85.3956 44.5062 85.3869 45.4272 85.3782C46.1377 85.3782 46.7868 85.3782 47.3306 85.3782C48.6727 85.3695 49.5498 85.091 49.9358 84.5252C50.3217 83.9594 50.2867 83.0455 49.8305 81.8008L37.3311 85.3086Z" fill="#F7D671"/>
<path d="M31.8929 70.7734H31.4982C30.7877 70.7734 30.5421 71.3131 30.4544 71.6352C30.2351 72.5143 30.086 73.5414 30.6298 74.5424L43.4977 70.9301C40.2873 70.8518 35.191 70.7734 31.8929 70.7734Z" fill="#F7D671"/>
<mask id="mask6_2591_32122" style="mask-type:luminance" maskUnits="userSpaceOnUse" x="34" y="85" width="12" height="6">
<path d="M34.4902 85.0469H45.7178V90.2433H34.4902V85.0469Z" fill="white"/>
</mask>
<g mask="url(#mask6_2591_32122)">
<path d="M35.0321 86.9023C34.9882 87.7292 35.1987 88.4169 35.6285 88.8869C36.0671 89.3743 36.7601 89.6529 37.6284 89.6964C38.0144 89.7138 39.0144 89.7225 40.1722 89.7225C41.3388 89.7225 42.3388 89.7138 42.716 89.6964C43.5931 89.6529 44.2861 89.3743 44.7246 88.8869C45.1544 88.4169 45.3562 87.7292 45.3123 86.9023H35.0321Z" fill="#F7D671"/>
</g>
<path d="M64.8207 43.5014C64.426 44.7113 63.3471 45.6252 61.8647 46.0169C60.9174 43.867 60.2595 43.0314 59.1981 42.57C58.2333 42.1522 57.5491 42.3089 57.1544 43.0401C56.7772 43.7364 56.9965 44.3805 57.7684 44.8592C58.4789 45.3032 58.8736 45.7993 58.9525 46.3302C59.0315 46.8699 58.7859 47.4705 58.207 48.1146C57.3386 49.0808 57.6368 49.7771 58.0315 50.1862C58.3298 50.4909 58.6631 50.6388 59.0052 50.6301C59.5402 50.6214 59.9788 50.2384 60.2507 49.9251C60.9174 49.1504 61.4787 48.7413 62.3471 48.9154C62.6278 51.457 61.4787 53.3981 59.0227 54.5296C58.8385 54.46 58.7771 54.3033 58.6982 54.0683C58.6631 53.9551 58.6192 53.842 58.5578 53.7375C58.0403 52.9193 57.4526 52.693 56.7509 53.0499C55.9 53.4764 55.9527 54.2511 56.093 54.8778C56.5842 57.0799 56.3211 58.7511 55.3299 59.6825C54.3562 60.6138 52.6896 60.8053 50.5231 60.2308C49.8827 60.0568 49.1021 59.9784 48.6986 60.8488C48.3389 61.6235 48.6109 62.2415 49.5319 62.7551C49.7512 62.8769 50.0055 62.9466 50.2424 63.0075C50.6195 63.1119 50.9704 63.2077 51.2248 63.4949C51.2248 63.6777 51.2248 63.8605 51.2248 64.0346C51.2248 64.5917 51.2336 65.1226 50.9616 65.61H44.8215V56.5316C44.918 56.5925 45.0145 56.6534 45.1022 56.7057C45.3128 56.8362 45.4882 56.9407 45.6461 57.0625C45.7776 57.1583 45.9092 57.2714 46.0496 57.3846C46.5759 57.8198 47.1723 58.3072 47.8039 58.2376C48.146 58.1941 48.4617 57.9852 48.7512 57.6022C49.0494 57.2105 49.1635 56.8536 49.1021 56.5229C48.988 55.9658 48.4179 55.6176 47.8565 55.2869C47.6548 55.165 47.453 55.0431 47.2864 54.9213C44.7075 52.9803 44.2777 50.8999 45.8566 47.9666C46.2689 47.2007 46.1548 46.5479 45.5584 46.2171C44.4181 45.5817 44.5409 44.6852 44.6812 43.7451C44.7426 43.3012 44.804 42.8486 44.7338 42.4221C44.5935 41.6039 44.7075 40.9511 45.0759 40.481C45.4706 39.9675 46.1548 39.6628 47.1109 39.5584C47.4793 39.5236 47.7776 39.3756 47.9793 39.1319C48.1811 38.8795 48.26 38.54 48.2161 38.157C48.1197 37.4259 47.6109 36.9906 46.8478 36.9819C46.3566 36.9819 45.8917 37.0255 45.3478 37.0777C45.1373 37.0951 44.9268 37.1125 44.6987 37.1299C44.7601 36.3204 44.7251 35.5109 44.6987 34.7276C44.6373 33.0041 44.5672 31.3677 45.4794 29.801C45.6724 29.4702 45.7776 28.9915 45.4794 28.6346C44.3654 27.2855 44.5321 25.7448 44.6987 24.2477C44.7514 23.7342 44.8128 23.1945 44.8215 22.6722C44.8303 21.2448 45.7689 20.1132 47.339 19.6606C48.9442 19.1993 50.2161 19.53 51.2248 20.679C50.9529 20.8531 50.6722 21.0097 50.3915 21.1664C49.6108 21.619 48.874 22.0368 48.3389 22.7767C47.8828 23.4208 47.9091 24.0388 48.4179 24.5611C48.9266 25.1007 49.567 25.1442 50.1985 24.6742C50.3564 24.5523 50.5055 24.4218 50.6459 24.2912C50.8125 24.1433 50.9792 23.9953 51.1634 23.8647C53.1458 22.4982 56.0579 22.8028 57.6456 24.5523C59.3034 26.3628 59.3297 28.887 57.7421 30.889C56.1193 29.6008 54.5931 29.1308 52.9352 29.4006L52.9002 29.4093C51.9879 29.5573 50.8476 29.7401 50.9616 31.037C50.988 31.4548 51.1195 31.7507 51.3564 31.9509C51.7598 32.2817 52.3739 32.212 52.9703 32.1511L53.1808 32.125C54.2948 32.0118 55.2948 32.3513 55.9439 33.0563C56.5053 33.6743 56.7246 34.5099 56.5404 35.3978C56.479 35.7111 56.3386 36.0158 56.207 36.3117C56.1719 36.3901 56.1369 36.4684 56.1018 36.5467C55.6983 37.4781 55.9088 38.1918 56.6982 38.5487C57.6807 38.9926 58.2508 38.244 58.6017 37.6522C59.2157 36.5815 59.435 35.7372 59.3034 34.9974C59.0666 33.6656 59.6367 32.8736 60.6542 32.0467C61.2595 32.4471 61.6717 33.0215 61.9349 33.8397C62.5313 35.7111 62.2419 37.3823 61.0577 38.8098C60.4788 39.5149 60.4788 40.2025 61.0665 40.7422C61.7156 41.3514 62.4261 41.2818 63.1366 40.5507C63.2945 40.3766 63.4523 40.1938 63.6365 39.9849C63.7155 39.8978 63.7944 39.8108 63.8822 39.7064C64.8733 40.8988 65.2154 42.2828 64.8207 43.5014ZM37.3482 65.6187H33.7957C32.5238 65.61 30.3046 65.5926 29.4275 65.5665C29.4099 65.4534 29.4011 65.3576 29.3836 65.2619C29.3485 65.0007 29.3134 64.7744 29.2959 64.5394C28.7345 59.2125 27.0591 54.8517 24.1733 51.2046C17.7086 43.0401 18.9103 31.507 26.8925 24.9527C30.0765 22.3415 33.4975 21.0359 37.3482 20.9488V65.6187ZM64.9347 35.6241C65.0137 33.3436 64.1804 31.4287 62.4524 29.9402C61.7945 29.3658 61.6629 28.8 61.6629 28.0079C61.6629 24.1607 59.242 21.1925 55.5141 20.4353C54.6369 20.2612 54.1633 19.8695 53.6984 19.295C51.7949 16.971 49.0056 16.1702 46.2513 17.1451C43.5497 18.1025 42.0585 20.3308 42.0497 23.4121C42.0322 28.4431 42.0322 33.5525 42.041 38.4965C42.041 40.5507 42.041 42.6049 42.041 44.6503V44.7722H42.0585V50.8825C42.0585 55.7917 42.0585 60.7096 42.0585 65.6187H40.1726C40.1726 60.1699 40.1726 54.7211 40.1726 49.2636V39.01C40.1726 32.9432 40.1726 26.8851 40.1726 20.8182C40.1726 19.4778 40.1024 18.7728 39.6989 18.3985C39.2779 17.9981 38.5499 17.9981 37.1026 18.0851C27.7521 18.6596 19.577 25.7535 17.6472 34.9713C16.349 41.1774 17.6122 46.9482 21.4102 52.1098C24.8136 56.7405 26.5065 61.3885 26.5767 66.3238C26.5767 66.3586 26.5855 66.4108 26.5855 66.4805C26.6206 67.5859 27.524 68.4476 28.638 68.4476H51.7774C52.33 68.4476 52.8563 68.2387 53.2422 67.8383C53.637 67.4553 53.8387 66.9331 53.8299 66.3847C53.7773 64.6439 53.9177 63.0423 56.1456 62.3111C57.321 61.9282 58.3298 60.727 58.6982 59.2734C59.049 57.9242 59.7946 57.2801 60.8998 56.6795C63.7418 55.1302 65.2417 52.458 65.2505 48.9763C65.2593 48.0102 65.3733 47.3573 66.0049 46.6436C68.4872 43.8147 68.3469 40.1938 65.6452 37.4172C65.1014 36.8601 64.9084 36.3552 64.9347 35.6241Z" fill="#F7D671"/>
<path d="M46.1674 180.11C66.2016 175.41 66.2718 160.265 62.1316 142.891L58.2721 126.701C54.553 111.069 60.9738 106.891 59.044 98.8827C57.5002 92.372 49.676 90.6311 42.5184 92.3023C35.01 94.078 28.2734 99.6139 30.133 107.413C32.1329 115.838 39.5361 114.69 43.3956 130.914L46.413 143.553C50.2725 159.673 50.3076 166.88 44.6938 168.203C41.6062 168.934 39.2554 166.984 38.1326 162.249C37.3607 159.046 38.0274 156.539 37.1502 152.849C36.0625 148.253 32.4837 144.319 25.8174 145.885C19.5018 147.382 13.046 152.57 15.5722 163.189C17.6423 171.824 28.519 184.253 46.1674 180.11Z" fill="#63518C"/>
<path d="M137.55 130.698C136.357 124.013 136.743 119.104 138.708 114.439C139.796 112.002 140.146 109.356 139.76 107.197C138.848 102.183 134.182 99.8157 127.691 100.999C119.726 102.392 114.288 107.928 115.305 113.534C115.621 115.309 116.393 116.841 118.112 118.861C121.586 122.934 123.445 127.147 124.217 131.36C125.866 140.447 121.235 147.097 112.077 148.733C105.2 149.952 101.516 146.296 99.7621 136.582C98.7797 131.081 99.2709 125.545 101.095 121.158C102.148 118.721 102.569 116.075 102.183 113.917C101.271 108.903 96.5693 106.535 90.0432 107.684C82.1137 109.112 76.6403 114.648 77.6578 120.253C78.0086 122.168 78.7805 123.665 80.4998 125.719C85.0961 131.046 85.903 132.787 86.8504 138.149C87.1662 139.855 88.0082 146.609 88.2889 148.176C90.5344 160.71 96.5693 166.316 105.376 164.749C111.656 163.6 115.095 161.267 119.586 155.174C122.077 151.762 123.13 150.822 124.744 150.544C126.673 150.196 127.831 151.31 128.322 154.095C129.059 158.029 130.112 160.327 135.059 159.457C142.287 158.169 147.936 152.319 146.988 147.201C146.637 145.286 145.69 143.963 143.515 142.118C140.146 139.402 138.603 136.443 137.55 130.698Z" fill="#63518C"/>
<path d="M220.134 145.303C216.134 139.523 215.502 137.748 215.081 132.525C214.941 130.854 214.766 123.751 214.625 122.184C213.608 109.476 208.169 103.314 199.258 104.01C194.1 104.428 190.486 106.447 185.398 112.088C182.592 115.221 181.434 116.057 180.065 116.161C179.083 116.231 178.1 115.674 177.82 112.192C177.504 108.188 176.662 105.821 171.645 106.204C164.312 106.795 158.136 112.053 158.557 117.24C158.698 119.19 159.575 120.583 161.54 122.637C164.592 125.666 165.82 128.73 166.312 134.788C166.838 141.334 165.996 146.173 163.575 150.63C162.277 152.928 161.645 155.574 161.82 157.732C162.206 162.816 166.592 165.636 173.188 165.114C181.258 164.487 187.223 159.508 186.767 153.833C186.626 151.988 185.995 150.456 184.381 148.227C181.434 143.875 179.995 139.454 179.679 135.415C178.907 125.979 182.977 119.956 192.24 119.225C197.959 118.772 201.257 122.742 202.064 132.838C202.485 138.131 201.468 143.632 199.222 147.775C197.924 150.108 197.258 152.754 197.433 154.912C197.819 159.995 202.24 162.816 208.836 162.293C216.906 161.667 222.906 156.653 222.45 150.978C222.309 149.028 221.678 147.461 220.134 145.303Z" fill="#63518C"/>
<path d="M259.45 95.7812C265.836 95.7812 272.327 92.3691 272.327 85.0924C272.327 79.5914 267.274 76.9453 261.52 76.9453C254.678 76.9453 247.065 80.81 247.065 86.9029C247.065 92.6129 253.205 95.7812 259.45 95.7812ZM257.485 163.987C264.468 163.987 271.941 160.331 271.941 153.786C271.941 151.592 271.099 149.886 269.976 148.041C268.397 145.256 266.432 141.496 266.432 132.478C266.432 124.226 268.152 122.033 269.625 119.735C270.467 118.517 271.941 116.323 271.941 113.294C271.941 107.828 266.924 105.147 261.169 105.147C254.292 105.147 246.714 109.012 246.714 115.105C246.714 117.542 247.942 119.108 249.275 120.71C250.994 122.764 253.064 124.575 253.064 132.966C253.064 141.983 250.889 145.987 249.03 148.772C248.293 149.886 246.714 152.428 246.714 155.701C246.714 161.446 251.731 163.987 257.485 163.987Z" fill="#63518C"/>
<path d="M493.48 119.357C483.2 118.904 481.376 129.419 477.551 129.245C475.586 129.14 474.709 127.747 474.85 124.962C475.025 120.993 474.499 118.521 469.516 118.312C462.148 117.964 455.342 122.42 455.096 127.608C455.026 129.558 455.692 131.055 457.412 133.318C460.078 136.73 460.92 139.933 460.64 145.991C460.359 152.572 458.885 157.272 455.903 161.346C454.324 163.469 453.377 166.011 453.272 168.17C453.061 173.288 457.096 176.63 463.692 176.944C471.762 177.292 478.288 173.079 478.569 167.369C478.639 165.524 478.218 163.957 476.849 161.555C474.499 156.854 473.622 152.328 473.797 148.289C474.218 138.819 480.218 133.353 485.832 133.597C488.533 133.736 491.165 135.303 491.059 137.984C490.989 139.55 490.323 140.525 490.182 142.545C490.042 146.723 493.445 148.916 497.55 149.09C502.813 149.334 507.41 145.051 507.725 137.635C508.146 128.513 503.901 119.844 493.48 119.357Z" fill="#63518C"/>
</svg>
