<svg width="58" height="70" viewBox="0 0 58 70" fill="none" xmlns="http://www.w3.org/2000/svg">
<path fill-rule="evenodd" clip-rule="evenodd" d="M28.5 22.3617C29.1388 22.3617 29.6566 21.8438 29.6566 21.205V4.28332L32.2484 7.30701C32.6641 7.79202 33.3943 7.84819 33.8793 7.43246C34.3643 7.01675 34.4204 6.28656 34.0047 5.80156L29.3781 0.403913C29.1585 0.147541 28.8376 0 28.5 0C28.1624 0 27.8415 0.147541 27.6219 0.403913L22.9953 5.80156C22.5795 6.28656 22.6357 7.01675 23.1207 7.43246C23.6057 7.84819 24.3359 7.79202 24.7516 7.30701L27.3434 4.28332V21.205C27.3434 21.8438 27.8612 22.3617 28.5 22.3617Z" fill="#0D002C"/>
<path d="M34.6687 11.9531C33.5858 11.9531 33.0443 11.9531 32.6554 12.213C32.487 12.3255 32.3423 12.4701 32.2299 12.6386C31.9699 13.0275 31.9699 13.569 31.9699 14.6519V21.2062C31.9699 23.1225 30.4164 24.6761 28.5 24.6761C26.5836 24.6761 25.0301 23.1225 25.0301 21.2062V14.6519C25.0301 13.569 25.0301 13.0275 24.7702 12.6385C24.6577 12.4701 24.5131 12.3256 24.3448 12.2131C23.9558 11.9531 23.4143 11.9531 22.3312 11.9531C17.9693 11.9531 15.7883 11.9531 14.4332 13.3082C13.0781 14.6634 13.0781 16.844 13.0781 21.2059V22.7481C13.0781 27.11 13.0781 29.291 14.4332 30.6461C15.7883 32.0012 17.9693 32.0012 22.3312 32.0012H34.6687C39.0306 32.0012 41.2116 32.0012 42.5667 30.6461C43.9218 29.291 43.9218 27.11 43.9218 22.7481V21.2059C43.9218 16.844 43.9218 14.6634 42.5667 13.3082C41.2116 11.9531 39.0306 11.9531 34.6687 11.9531Z" fill="#0D002C"/>
<path d="M0.78225 62.016C0.78225 61.568 0.867583 61.1307 1.03825 60.704C1.21958 60.288 1.49158 59.8773 1.85425 59.472C2.22758 59.0667 2.69692 58.6667 3.26225 58.272C2.78225 57.8027 2.33958 57.2907 1.93425 56.736C1.53958 56.1813 1.21425 55.616 0.95825 55.04C0.70225 54.4533 0.531583 53.8933 0.44625 53.36C0.851583 52.9973 1.28892 52.688 1.75825 52.432C2.22758 52.176 2.71825 51.9787 3.23025 51.84C3.74225 51.6907 4.24892 51.616 4.75025 51.616C5.45425 51.616 6.14225 51.7173 6.81425 51.92C7.49692 52.112 8.10492 52.3787 8.63825 52.72C8.63825 53.7653 8.39292 54.7627 7.90225 55.712C7.42225 56.6613 6.72892 57.4987 5.82225 58.224C6.08892 58.32 6.36092 58.3947 6.63825 58.448C6.92625 58.5013 7.21958 58.528 7.51825 58.528H9.42225C9.47558 58.528 9.50225 58.5493 9.50225 58.592V59.92C9.50225 59.9733 9.47558 60 9.42225 60H7.48625C7.21958 60 6.91025 59.9627 6.55825 59.888C6.20625 59.8133 5.84892 59.712 5.48625 59.584C5.13425 59.456 4.80892 59.3067 4.51025 59.136C3.78492 59.616 3.27292 60.0747 2.97425 60.512C2.67558 60.9493 2.52625 61.408 2.52625 61.888C2.52625 62.496 2.70758 62.9493 3.07025 63.248C3.43292 63.5467 3.99292 63.696 4.75025 63.696C5.15558 63.696 5.55025 63.664 5.93425 63.6C6.32892 63.5467 6.71825 63.4827 7.10225 63.408L7.31025 64.72C6.84092 64.8373 6.43558 64.928 6.09425 64.992C5.75292 65.056 5.43292 65.0987 5.13425 65.12C4.84625 65.152 4.53692 65.168 4.20625 65.168C3.51292 65.168 2.90492 65.04 2.38225 64.784C1.87025 64.528 1.47558 64.16 1.19825 63.68C0.920917 63.2107 0.78225 62.656 0.78225 62.016ZM2.27025 53.92C2.33425 54.2187 2.43558 54.5227 2.57425 54.832C2.71292 55.1413 2.87825 55.4507 3.07025 55.76C3.26225 56.0587 3.48092 56.352 3.72625 56.64C3.98225 56.9173 4.25425 57.1787 4.54225 57.424C5.03292 57.072 5.44358 56.6987 5.77425 56.304C6.11558 55.9093 6.37692 55.488 6.55825 55.04C6.75025 54.5813 6.86225 54.096 6.89425 53.584C6.56358 53.4133 6.22225 53.2907 5.87025 53.216C5.51825 53.1307 5.15025 53.088 4.76625 53.088C4.48892 53.088 4.20092 53.1253 3.90225 53.2C3.61425 53.264 3.33158 53.3547 3.05425 53.472C2.78758 53.5893 2.52625 53.7387 2.27025 53.92ZM14.2812 50.72C13.9932 50.72 13.7639 50.6293 13.5932 50.448C13.4226 50.2667 13.3372 50.016 13.3372 49.696C13.3372 49.3653 13.4226 49.1147 13.5932 48.944C13.7532 48.7627 13.9826 48.672 14.2812 48.672C14.5906 48.672 14.8253 48.7627 14.9853 48.944C15.1559 49.1253 15.2413 49.376 15.2413 49.696C15.2413 50.0053 15.1559 50.256 14.9853 50.448C14.8146 50.6293 14.5799 50.72 14.2812 50.72ZM9.26375 60C9.21042 60 9.18375 59.9733 9.18375 59.92V58.592C9.18375 58.5493 9.21042 58.528 9.26375 58.528H11.6478C11.4771 58.3147 11.3278 58.0853 11.1998 57.84C11.0824 57.584 10.9918 57.3173 10.9278 57.04C10.8638 56.7627 10.8318 56.4853 10.8318 56.208C10.8318 55.3867 11.0131 54.6773 11.3758 54.08C11.7384 53.472 12.2558 53.008 12.9278 52.688C13.5998 52.3573 14.3944 52.192 15.3118 52.192H17.6638V60H9.26375ZM14.8158 58.528H15.9678V53.664H15.3598C14.7838 53.664 14.2878 53.7653 13.8718 53.968C13.4558 54.1707 13.1411 54.464 12.9278 54.848C12.7144 55.232 12.6078 55.696 12.6078 56.24C12.6078 56.7413 12.6878 57.1627 12.8478 57.504C13.0184 57.8453 13.2691 58.1013 13.5998 58.272C13.9304 58.4427 14.3358 58.528 14.8158 58.528ZM23.4793 60V60.336C23.4793 61.0613 23.3566 61.6853 23.1113 62.208C22.8766 62.7307 22.5353 63.1307 22.0873 63.408C21.6393 63.696 21.0953 63.84 20.4553 63.84C20.1033 63.84 19.7619 63.792 19.4313 63.696C19.1006 63.6107 18.7539 63.4613 18.3912 63.248L18.9832 62.016C19.2499 62.1547 19.4739 62.2453 19.6553 62.288C19.8473 62.3307 20.0553 62.352 20.2793 62.352C20.7486 62.352 21.1166 62.1653 21.3832 61.792C21.6499 61.4293 21.7833 60.9493 21.7833 60.352V52.192H23.4793V58.528H25.4953C25.5486 58.528 25.5753 58.5493 25.5753 58.592V59.92C25.5753 59.9733 25.5486 60 25.4953 60H23.4793ZM25.3419 60C25.2885 60 25.2619 59.9733 25.2619 59.92V58.592C25.2619 58.5493 25.2885 58.528 25.3419 58.528H27.4219V47.84H29.1659V60H25.3419ZM32.3656 47.84H34.1096V60H32.3656V47.84ZM45.0606 60C44.6553 60 44.3566 60.096 44.1646 60.288C43.9726 60.48 43.8766 60.7787 43.8766 61.184V65.12H42.1806V60.768C42.1806 60.3093 42.2606 59.9147 42.4206 59.584C42.5913 59.2533 42.826 58.9973 43.1246 58.816C43.4233 58.624 43.77 58.528 44.1646 58.528H44.2606C44.0793 58.08 43.9406 57.6427 43.8446 57.216C43.7593 56.7893 43.7166 56.3733 43.7166 55.968C43.7166 55.4987 43.7753 55.0347 43.8926 54.576C44.01 54.1067 44.17 53.6853 44.3726 53.312C44.7993 53.0027 45.2793 52.7573 45.8126 52.576C46.346 52.384 46.8686 52.288 47.3806 52.288C47.722 52.288 48.0473 52.3253 48.3566 52.4C48.666 52.4747 48.954 52.5867 49.2206 52.736C49.754 53.0347 50.1646 53.4613 50.4526 54.016C50.7406 54.5707 50.8846 55.2 50.8846 55.904C50.8846 56.224 50.858 56.5387 50.8046 56.848C50.762 57.1467 50.682 57.4347 50.5646 57.712C50.7886 58.0213 51.034 58.2347 51.3006 58.352C51.578 58.4693 51.93 58.528 52.3566 58.528H52.4366C52.49 58.528 52.5166 58.5493 52.5166 58.592V59.92C52.5166 59.9733 52.49 60 52.4366 60H52.3566C51.7913 60 51.306 59.9253 50.9006 59.776C50.506 59.616 50.122 59.3387 49.7486 58.944C49.386 59.296 48.9646 59.5627 48.4846 59.744C48.0153 59.9147 47.5193 60 46.9966 60H45.0606ZM45.4126 55.904C45.4126 56.32 45.45 56.7413 45.5246 57.168C45.61 57.584 45.7486 58.0373 45.9406 58.528H46.9006C47.3593 58.528 47.754 58.4213 48.0846 58.208C48.4153 57.9947 48.6713 57.6907 48.8526 57.296C49.034 56.9013 49.1246 56.4373 49.1246 55.904C49.1246 55.264 48.954 54.7467 48.6126 54.352C48.282 53.9573 47.866 53.76 47.3646 53.76C47.066 53.76 46.7673 53.808 46.4686 53.904C46.1806 54 45.898 54.144 45.6206 54.336C45.5353 54.5813 45.4766 54.832 45.4446 55.088C45.4233 55.344 45.4126 55.616 45.4126 55.904ZM54.2654 50.72C53.988 50.72 53.7587 50.6347 53.5774 50.464C53.396 50.2933 53.3054 50.0373 53.3054 49.696C53.3054 49.344 53.396 49.088 53.5774 48.928C53.7587 48.7573 53.988 48.672 54.2654 48.672C54.564 48.672 54.7987 48.7627 54.9694 48.944C55.1294 49.1147 55.2094 49.3653 55.2094 49.696C55.2094 50.016 55.124 50.2667 54.9534 50.448C54.7827 50.6293 54.5534 50.72 54.2654 50.72ZM57.0174 50.72C56.7187 50.72 56.484 50.6293 56.3134 50.448C56.1427 50.2667 56.0574 50.016 56.0574 49.696C56.0574 49.3653 56.1427 49.1147 56.3134 48.944C56.484 48.7627 56.7187 48.672 57.0174 48.672C57.316 48.672 57.5454 48.7627 57.7054 48.944C57.876 49.1253 57.9614 49.376 57.9614 49.696C57.9614 50.0053 57.876 50.256 57.7054 50.448C57.5454 50.6293 57.316 50.72 57.0174 50.72ZM52.2794 60C52.226 60 52.1994 59.9733 52.1994 59.92V58.592C52.1994 58.5493 52.226 58.528 52.2794 58.528H55.2554V52.192H56.9994V60H52.2794Z" fill="#0D002C"/>
</svg>
