<svg width="35" height="70" viewBox="0 0 35 70" fill="none" xmlns="http://www.w3.org/2000/svg">
<path fill-rule="evenodd" clip-rule="evenodd" d="M17.5 22.3617C18.1388 22.3617 18.6566 21.8438 18.6566 21.205V4.28332L21.2484 7.30701C21.6641 7.79202 22.3943 7.84819 22.8793 7.43246C23.3643 7.01675 23.4204 6.28656 23.0047 5.80156L18.3781 0.403913C18.1585 0.147541 17.8376 0 17.5 0C17.1624 0 16.8415 0.147541 16.6219 0.403913L11.9953 5.80156C11.5795 6.28656 11.6357 7.01675 12.1207 7.43246C12.6057 7.84819 13.3359 7.79202 13.7516 7.30701L16.3434 4.28332V21.205C16.3434 21.8438 16.8612 22.3617 17.5 22.3617Z" fill="#0D002C"/>
<path d="M23.6687 11.9531C22.5858 11.9531 22.0443 11.9531 21.6554 12.213C21.487 12.3255 21.3423 12.4701 21.2299 12.6386C20.9699 13.0275 20.9699 13.569 20.9699 14.6519V21.2062C20.9699 23.1225 19.4164 24.6761 17.5 24.6761C15.5836 24.6761 14.0301 23.1225 14.0301 21.2062V14.6519C14.0301 13.569 14.0301 13.0275 13.7702 12.6385C13.6577 12.4701 13.5131 12.3256 13.3448 12.2131C12.9558 11.9531 12.4143 11.9531 11.3312 11.9531C6.96927 11.9531 4.7883 11.9531 3.43321 13.3082C2.07812 14.6634 2.07812 16.844 2.07812 21.2059V22.7481C2.07812 27.11 2.07812 29.291 3.43321 30.6461C4.7883 32.0012 6.96927 32.0012 11.3312 32.0012H23.6687C28.0306 32.0012 30.2116 32.0012 31.5667 30.6461C32.9218 29.291 32.9218 27.11 32.9218 22.7481V21.2059C32.9218 16.844 32.9218 14.6634 31.5667 13.3082C30.2116 11.9531 28.0306 11.9531 23.6687 11.9531Z" fill="#0D002C"/>
<path d="M10.2154 60C10.1834 61.2693 9.82071 62.224 9.12738 62.864C8.43404 63.5147 7.38871 63.84 5.99138 63.84H4.99938C4.60471 63.84 4.23671 63.792 3.89538 63.696C3.56471 63.6 3.26071 63.456 2.98338 63.264C2.48204 62.912 2.09271 62.4213 1.81538 61.792C1.53804 61.1733 1.39938 60.448 1.39938 59.616C1.39938 59.1787 1.42604 58.7413 1.47938 58.304C1.53271 57.8667 1.61271 57.4453 1.71938 57.04C1.82604 56.6347 1.95404 56.2613 2.10338 55.92H3.70338C3.52204 56.4107 3.38338 56.9707 3.28738 57.6C3.20204 58.2293 3.15938 58.9013 3.15938 59.616C3.15938 60.48 3.34071 61.152 3.70338 61.632C4.07671 62.1227 4.59404 62.368 5.25538 62.368H5.92738C6.52471 62.368 7.01538 62.272 7.39938 62.08C7.78338 61.888 8.06604 61.6 8.24738 61.216C8.42871 60.832 8.51938 60.3573 8.51938 59.792V47.84H10.2314V58.528H12.0874C12.1407 58.528 12.1674 58.5493 12.1674 58.592V59.92C12.1674 59.9733 12.1407 60 12.0874 60H10.2154ZM15.3281 50.72C15.0401 50.72 14.8108 50.6293 14.6401 50.448C14.4695 50.2667 14.3841 50.016 14.3841 49.696C14.3841 49.3653 14.4695 49.1147 14.6401 48.944C14.8001 48.7627 15.0295 48.672 15.3281 48.672C15.6375 48.672 15.8721 48.7627 16.0321 48.944C16.2028 49.1253 16.2881 49.376 16.2881 49.696C16.2881 50.0053 16.2028 50.256 16.0321 50.448C15.8615 50.6293 15.6268 50.72 15.3281 50.72ZM11.92 60C11.8667 60 11.84 59.9733 11.84 59.92V58.592C11.84 58.5493 11.8667 58.528 11.92 58.528H18.64C18.4373 58.3253 18.256 58 18.096 57.552C17.936 57.104 17.7867 56.5227 17.648 55.808C17.552 55.232 17.424 54.7787 17.264 54.448C17.104 54.1067 16.896 53.8667 16.64 53.728C16.3947 53.5787 16.0693 53.504 15.664 53.504C15.3013 53.504 14.9333 53.5573 14.56 53.664C14.1973 53.76 13.8133 53.9147 13.408 54.128L12.8 52.8C13.2587 52.5227 13.7387 52.3253 14.24 52.208C14.7413 52.0907 15.2747 52.032 15.84 52.032C16.16 52.032 16.4533 52.0587 16.72 52.112C16.9867 52.1547 17.2267 52.224 17.44 52.32C17.9307 52.544 18.32 52.8853 18.608 53.344C18.896 53.792 19.1093 54.448 19.248 55.312C19.344 55.8987 19.4507 56.4053 19.568 56.832C19.6853 57.2587 19.8133 57.6107 19.952 57.888C20.1013 58.1653 20.256 58.384 20.416 58.544V60H11.92ZM22.1731 58.528H27.5011C27.4371 58.0907 27.3518 57.6853 27.2451 57.312C27.1385 56.9387 27.0211 56.592 26.8931 56.272C26.5838 55.504 26.1731 54.8213 25.6611 54.224C25.1598 53.6267 24.5305 53.104 23.7731 52.656L24.4131 51.104C25.2771 51.52 26.0291 52.0747 26.6691 52.768C27.3091 53.4507 27.8425 54.2773 28.2691 55.248C28.7065 56.208 29.0265 57.3173 29.2291 58.576V60H22.1731V58.528ZM31.6625 47.84H33.4065V60H31.6625V47.84Z" fill="#878C8E"/>
</svg>
