<svg width="665" height="1305" viewBox="0 0 665 1305" fill="none" xmlns="http://www.w3.org/2000/svg">
<path d="M294.06 -600C242.167 -511.497 160.807 -332.389 202.198 233.009C254.87 952.518 383.585 764.027 326.419 1319.37" stroke="#F7D671" stroke-width="2.33945"/>
<path d="M279.575 -469.402C227.681 -380.899 146.322 -201.791 187.712 363.607C240.385 1083.12 369.1 894.625 311.933 1449.96" stroke="#F7D671" stroke-width="2.33945"/>
<path d="M264.401 -349.148C212.507 -260.645 131.148 -81.5375 172.539 483.861C225.211 1203.37 353.926 1014.88 296.759 1570.22" stroke="#F7D671" stroke-width="2.33945"/>
<path d="M248.463 -242.16C196.57 -153.657 115.211 25.4508 156.601 590.849C209.274 1310.36 337.989 1121.87 280.822 1677.21" stroke="#F7D671" stroke-width="2.33945"/>
<path d="M231.732 -151.902C179.839 -63.3993 98.4791 115.709 139.87 681.107C192.542 1400.62 321.257 1212.12 264.091 1767.46" stroke="#F7D671" stroke-width="2.33945"/>
<path d="M214.254 -81.8945C162.361 6.60847 81.0015 185.716 122.392 751.115C175.065 1470.62 303.78 1282.13 246.613 1837.47" stroke="#F7D671" stroke-width="2.33945"/>
<path d="M196.187 -34.5938C144.294 53.9093 62.9342 233.017 104.325 798.415C156.997 1517.92 285.712 1329.43 228.546 1884.77" stroke="#F7D671" stroke-width="2.33945"/>
<path d="M177.766 -10.2227C125.873 78.2803 44.5133 257.388 85.9039 822.787C138.576 1542.3 267.291 1353.8 210.125 1909.14" stroke="#F7D671" stroke-width="2.33945"/>
<path d="M159.22 -6.36719C107.327 82.1358 25.9674 261.244 67.358 826.642C120.03 1546.15 248.746 1357.66 191.579 1913" stroke="#F7D671" stroke-width="2.33945"/>
<path d="M140.705 -18.7617C88.8112 69.7413 7.45173 248.849 48.8424 814.247C101.515 1533.76 230.23 1345.27 173.063 1900.6" stroke="#F7D671" stroke-width="2.33945"/>
<path d="M122.278 -42.6016C70.3844 45.9014 -10.975 225.009 30.4156 790.408C83.0881 1509.92 211.803 1321.43 154.636 1876.77" stroke="#F7D671" stroke-width="2.33945"/>
<path d="M103.934 -73.4727C52.0407 15.0303 -29.3188 194.138 12.0719 759.537C64.7444 1479.05 193.459 1290.55 136.293 1845.89" stroke="#F7D671" stroke-width="2.33945"/>
<path d="M85.6363 -107.766C33.7428 -19.2626 -47.6166 159.845 -6.22599 725.244C46.4465 1444.75 175.162 1256.26 117.995 1811.6" stroke="#F7D671" stroke-width="2.33945"/>
<path d="M67.3472 -142.625C15.4537 -54.122 -65.9057 124.986 -24.5151 690.384C28.1574 1409.89 156.872 1221.4 99.7058 1776.74" stroke="#F7D671" stroke-width="2.33945"/>
<path d="M49.0367 -175.938C-2.85681 -87.4345 -84.2162 91.6734 -42.8256 657.072C9.84689 1376.58 138.562 1188.09 81.3952 1743.43" stroke="#F7D671" stroke-width="2.33945"/>
<path d="M30.6832 -206.121C-21.2103 -117.618 -102.57 61.4899 -61.1791 626.888C-8.50662 1346.4 120.208 1157.91 63.0417 1713.25" stroke="#F7D671" stroke-width="2.33945"/>
<path d="M12.2779 -232.07C-39.6156 -143.567 -120.975 35.5406 -79.5844 600.939C-26.9119 1320.45 101.803 1131.96 44.6364 1687.3" stroke="#F7D671" stroke-width="2.33945"/>
<path d="M-6.17621 -253.023C-58.0697 -164.52 -139.429 14.5875 -98.0385 579.986C-45.366 1299.49 83.349 1111 26.1823 1666.34" stroke="#F7D671" stroke-width="2.33945"/>
<path d="M-24.7875 -268.711C-76.681 -180.208 -158.04 -1.09999 -116.65 564.298C-63.9773 1283.81 64.7377 1095.32 7.57099 1650.66" stroke="#F7D671" stroke-width="2.33945"/>
<path d="M-43.3041 -280.781C-95.1976 -192.278 -176.557 -13.1703 -135.166 552.228C-82.4939 1271.74 46.2211 1083.25 -10.9456 1638.59" stroke="#F7D671" stroke-width="2.33945"/>
<mask id="path-21-inside-1_2472_35792" fill="white">
<path fill-rule="evenodd" clip-rule="evenodd" d="M581.894 448.489C581.706 447.716 581.481 446.946 581.219 446.179C576.541 432.507 561.623 425.201 547.899 429.862C534.424 434.439 527.11 448.853 531.28 462.317L531.269 462.321L569.421 573.821C569.591 574.485 569.789 575.148 570.015 575.808C574.694 589.481 589.611 596.786 603.335 592.125C616.44 587.674 623.718 573.919 620.272 560.782L620.312 560.768L620.079 560.084C619.966 559.698 619.844 559.313 619.712 558.929C619.581 558.544 619.441 558.165 619.294 557.791L581.894 448.489Z"/>
</mask>
<path fill-rule="evenodd" clip-rule="evenodd" d="M581.894 448.489C581.706 447.716 581.481 446.946 581.219 446.179C576.541 432.507 561.623 425.201 547.899 429.862C534.424 434.439 527.11 448.853 531.28 462.317L531.269 462.321L569.421 573.821C569.591 574.485 569.789 575.148 570.015 575.808C574.694 589.481 589.611 596.786 603.335 592.125C616.44 587.674 623.718 573.919 620.272 560.782L620.312 560.768L620.079 560.084C619.966 559.698 619.844 559.313 619.712 558.929C619.581 558.544 619.441 558.165 619.294 557.791L581.894 448.489Z" fill="#F6C5A1"/>
<path d="M581.894 448.489L575.927 449.926L575.993 450.197L576.083 450.462L581.894 448.489ZM531.28 462.317L533.267 468.123L538.909 466.206L537.146 460.515L531.28 462.317ZM531.269 462.321L529.282 456.515L523.472 458.488L525.458 464.294L531.269 462.321ZM569.421 573.821L575.369 572.308L575.309 572.075L575.231 571.847L569.421 573.821ZM620.272 560.782L618.285 554.976L612.885 556.81L614.332 562.325L620.272 560.782ZM620.312 560.768L622.299 566.574L628.109 564.6L626.123 558.794L620.312 560.768ZM620.079 560.084L614.183 561.791L614.223 561.925L614.268 562.058L620.079 560.084ZM619.294 557.791L613.483 559.764L613.529 559.897L613.58 560.027L619.294 557.791ZM587.861 447.051C587.629 446.098 587.352 445.149 587.029 444.206L575.409 448.153C575.61 448.743 575.783 449.334 575.927 449.926L587.861 447.051ZM587.029 444.206C581.248 427.31 562.829 418.311 545.913 424.056L549.886 435.668C560.417 432.092 571.833 437.703 575.409 448.153L587.029 444.206ZM545.913 424.056C529.301 429.699 520.26 447.478 525.414 464.119L537.146 460.515C533.96 450.227 539.547 439.18 549.886 435.668L545.913 424.056ZM533.256 468.127L533.267 468.123L529.294 456.511L529.282 456.515L533.256 468.127ZM575.231 571.847L537.079 460.347L525.458 464.294L563.611 575.794L575.231 571.847ZM563.473 575.333C563.683 576.153 563.927 576.969 564.205 577.781L575.826 573.835C575.652 573.326 575.5 572.817 575.369 572.308L563.473 575.333ZM564.205 577.781C569.986 594.677 588.405 603.676 605.321 597.931L601.348 586.319C590.818 589.896 579.401 584.285 575.826 573.835L564.205 577.781ZM605.321 597.931C621.479 592.443 630.471 575.476 626.212 559.238L614.332 562.325C616.964 572.362 611.401 582.904 601.348 586.319L605.321 597.931ZM618.326 554.962L618.285 554.976L622.258 566.588L622.299 566.574L618.326 554.962ZM614.268 562.058L614.502 562.741L626.123 558.794L625.889 558.111L614.268 562.058ZM625.974 558.378C625.835 557.903 625.685 557.428 625.523 556.955L613.902 560.902C614.003 561.198 614.097 561.494 614.183 561.791L625.974 558.378ZM625.523 556.955C625.361 556.482 625.189 556.015 625.007 555.554L613.58 560.027C613.693 560.315 613.801 560.606 613.902 560.902L625.523 556.955ZM576.083 450.462L613.483 559.764L625.104 555.817L587.704 446.515L576.083 450.462Z" fill="black" mask="url(#path-21-inside-1_2472_35792)"/>
<mask id="path-23-inside-2_2472_35792" fill="white">
<path fill-rule="evenodd" clip-rule="evenodd" d="M523.893 467.864C518.613 450.078 528.324 431.152 546.108 425.112C563.892 419.072 583.184 428.147 589.908 445.443L589.936 445.433L611.756 509.203L545.685 531.643L524.358 469.316C524.35 469.292 524.342 469.269 524.334 469.245C524.326 469.222 524.318 469.198 524.31 469.175L523.865 467.874L523.893 467.864Z"/>
</mask>
<path fill-rule="evenodd" clip-rule="evenodd" d="M523.893 467.864C518.613 450.078 528.324 431.152 546.108 425.112C563.892 419.072 583.184 428.147 589.908 445.443L589.936 445.433L611.756 509.203L545.685 531.643L524.358 469.316C524.35 469.292 524.342 469.269 524.334 469.245C524.326 469.222 524.318 469.198 524.31 469.175L523.865 467.874L523.893 467.864Z" fill="#F9F9F9"/>
<path d="M523.893 467.864L525.88 473.67L531.456 471.776L529.78 466.131L523.893 467.864ZM589.908 445.443L584.184 447.653L586.318 453.143L591.894 451.249L589.908 445.443ZM589.936 445.433L595.746 443.46L593.76 437.654L587.949 439.627L589.936 445.433ZM611.756 509.203L613.743 515.009L619.553 513.035L617.566 507.229L611.756 509.203ZM545.685 531.643L539.875 533.617L541.861 539.423L547.672 537.449L545.685 531.643ZM524.358 469.316L530.169 467.342L530.165 467.33L524.358 469.316ZM524.31 469.175L530.125 467.214L530.121 467.201L524.31 469.175ZM523.865 467.874L521.878 462.068L516.068 464.041L518.055 469.847L523.865 467.874ZM529.78 466.131C525.437 451.501 533.424 435.9 548.094 430.918L544.121 419.306C523.223 426.404 511.788 448.654 518.006 469.598L529.78 466.131ZM548.094 430.918C562.764 425.935 578.653 433.427 584.184 447.653L595.632 443.233C587.715 422.866 565.019 412.208 544.121 419.306L548.094 430.918ZM591.894 451.249L591.923 451.239L587.949 439.627L587.921 439.637L591.894 451.249ZM584.126 447.407L605.946 511.176L617.566 507.229L595.746 443.46L584.126 447.407ZM609.769 503.397L543.698 525.837L547.672 537.449L613.743 515.009L609.769 503.397ZM551.495 529.67L530.169 467.342L518.548 471.289L539.875 533.617L551.495 529.67ZM530.165 467.33C530.158 467.311 530.151 467.291 530.145 467.272L518.524 471.219C518.533 471.246 518.543 471.274 518.552 471.301L530.165 467.33ZM530.145 467.272C530.138 467.252 530.131 467.233 530.125 467.214L518.496 471.136C518.505 471.164 518.514 471.191 518.524 471.219L530.145 467.272ZM530.121 467.201L529.675 465.9L518.055 469.847L518.5 471.148L530.121 467.201ZM525.852 473.68L525.88 473.67L521.906 462.058L521.878 462.068L525.852 473.68Z" fill="black" mask="url(#path-23-inside-2_2472_35792)"/>
<path fill-rule="evenodd" clip-rule="evenodd" d="M577.481 553.654L576.519 552.591L495.394 625.523C494.89 625.909 494.398 626.318 493.918 626.75C483.97 635.693 483.182 650.977 492.159 660.888C500.731 670.353 515.108 671.495 525.049 663.789L525.075 663.819L525.571 663.373C525.86 663.136 526.144 662.892 526.424 662.641C526.704 662.389 526.977 662.132 527.242 661.871L608.958 588.408L608.094 587.453C616.36 578.9 616.69 565.305 608.582 556.354C600.475 547.402 586.868 546.336 577.481 553.654Z" fill="#F6C5A1"/>
<path d="M579.476 549.832L489.925 630.339C486.277 634.971 481.436 647.348 491.262 659.796C501.088 672.244 516.223 669.368 522.563 666.374L612.113 585.868" stroke="black" stroke-width="6.13645"/>
<mask id="path-27-inside-3_2472_35792" fill="white">
<path fill-rule="evenodd" clip-rule="evenodd" d="M414.797 490.49C415.496 490.874 416.217 491.23 416.962 491.555C430.239 497.359 445.725 491.34 451.55 478.112C457.271 465.123 451.549 450.012 438.769 443.975L438.774 443.965L330.498 396.635C329.892 396.311 329.268 396.009 328.627 395.729C315.349 389.925 299.864 395.944 294.038 409.172C288.475 421.804 293.734 436.444 305.782 442.791L305.765 442.83L306.429 443.12C306.791 443.298 307.158 443.469 307.531 443.632C307.904 443.795 308.279 443.949 308.656 444.094L414.797 490.49Z"/>
</mask>
<path fill-rule="evenodd" clip-rule="evenodd" d="M414.797 490.49C415.496 490.874 416.217 491.23 416.962 491.555C430.239 497.359 445.725 491.34 451.55 478.112C457.271 465.123 451.549 450.012 438.769 443.975L438.774 443.965L330.498 396.635C329.892 396.311 329.268 396.009 328.627 395.729C315.349 389.925 299.864 395.944 294.038 409.172C288.475 421.804 293.734 436.444 305.782 442.791L305.765 442.83L306.429 443.12C306.791 443.298 307.158 443.469 307.531 443.632C307.904 443.795 308.279 443.949 308.656 444.094L414.797 490.49Z" fill="#F6C5A1"/>
<path d="M414.797 490.49L417.769 485.119L417.525 484.985L417.271 484.874L414.797 490.49ZM438.769 443.975L433.147 441.518L430.745 446.972L436.133 449.517L438.769 443.975ZM438.774 443.965L444.397 446.422L446.87 440.806L441.247 438.349L438.774 443.965ZM330.498 396.635L327.595 402.043L327.806 402.155L328.025 402.251L330.498 396.635ZM305.782 442.791L311.405 445.249L313.705 440.027L308.658 437.368L305.782 442.791ZM305.765 442.83L300.142 440.372L297.669 445.988L303.292 448.446L305.765 442.83ZM306.429 443.12L309.155 437.622L309.03 437.56L308.902 437.504L306.429 443.12ZM308.656 444.094L311.129 438.478L311.001 438.422L310.871 438.372L308.656 444.094ZM411.826 495.861C412.686 496.334 413.574 496.771 414.489 497.171L419.435 485.939C418.861 485.688 418.305 485.414 417.769 485.119L411.826 495.861ZM414.489 497.171C430.858 504.327 449.976 496.913 457.173 480.57L445.928 475.654C441.474 485.768 429.62 490.391 419.435 485.939L414.489 497.171ZM457.173 480.57C464.241 464.521 457.165 445.877 441.406 438.434L436.133 449.517C445.933 454.146 450.3 465.724 445.928 475.654L457.173 480.57ZM433.151 441.507L433.147 441.518L444.392 446.433L444.397 446.422L433.151 441.507ZM328.025 402.251L436.301 449.581L441.247 438.349L332.972 391.019L328.025 402.251ZM333.402 391.228C332.655 390.829 331.887 390.457 331.1 390.113L326.153 401.345C326.648 401.561 327.128 401.794 327.595 402.043L333.402 391.228ZM331.1 390.113C314.73 382.957 295.613 390.371 288.416 406.714L299.661 411.63C304.115 401.516 315.968 396.892 326.153 401.345L331.1 390.113ZM288.416 406.714C281.542 422.323 288.046 440.385 302.907 448.213L308.658 437.368C299.422 432.503 295.409 421.285 299.661 411.63L288.416 406.714ZM311.388 445.288L311.405 445.249L300.16 440.333L300.142 440.372L311.388 445.288ZM308.902 437.504L308.238 437.214L303.292 448.446L303.956 448.736L308.902 437.504ZM303.703 448.619C304.148 448.838 304.6 449.048 305.058 449.248L310.004 438.016C309.716 437.89 309.433 437.759 309.155 437.622L303.703 448.619ZM305.058 449.248C305.517 449.448 305.978 449.638 306.441 449.815L310.871 438.372C310.581 438.26 310.292 438.142 310.004 438.016L305.058 449.248ZM417.271 484.874L311.129 438.478L306.183 449.71L412.324 496.106L417.271 484.874Z" fill="black" mask="url(#path-27-inside-3_2472_35792)"/>
<mask id="path-29-inside-4_2472_35792" fill="white">
<path fill-rule="evenodd" clip-rule="evenodd" d="M411.634 498.434L411.622 498.462L349.697 471.393L377.743 407.707L438.268 434.163C438.291 434.173 438.314 434.183 438.336 434.193C438.359 434.203 438.382 434.213 438.405 434.223L439.668 434.775L439.656 434.802C456.384 442.944 463.824 462.865 456.275 480.007C448.726 497.149 428.975 505.185 411.634 498.434Z"/>
</mask>
<path fill-rule="evenodd" clip-rule="evenodd" d="M411.634 498.434L411.622 498.462L349.697 471.393L377.743 407.707L438.268 434.163C438.291 434.173 438.314 434.183 438.336 434.193C438.359 434.203 438.382 434.213 438.405 434.223L439.668 434.775L439.656 434.802C456.384 442.944 463.824 462.865 456.275 480.007C448.726 497.149 428.975 505.185 411.634 498.434Z" fill="#F9F9F9"/>
<path d="M411.634 498.434L413.876 492.723L408.386 490.585L406.012 495.977L411.634 498.434ZM411.622 498.462L409.149 504.078L414.772 506.535L417.245 500.919L411.622 498.462ZM349.697 471.393L344.074 468.935L341.601 474.551L347.224 477.009L349.697 471.393ZM377.743 407.707L380.216 402.091L374.593 399.633L372.12 405.249L377.743 407.707ZM438.268 434.163L435.795 439.779L435.807 439.784L438.268 434.163ZM438.405 434.223L435.92 439.834L435.932 439.839L438.405 434.223ZM439.668 434.775L445.291 437.233L447.764 431.617L442.141 429.159L439.668 434.775ZM439.656 434.802L434.033 432.345L431.659 437.736L436.955 440.313L439.656 434.802ZM406.012 495.977L406 496.004L417.245 500.919L417.257 500.892L406.012 495.977ZM414.095 492.846L352.17 465.777L347.224 477.009L409.149 504.078L414.095 492.846ZM355.32 473.851L383.365 410.164L372.12 405.249L344.074 468.935L355.32 473.851ZM375.27 413.323L435.795 439.779L440.741 428.547L380.216 402.091L375.27 413.323ZM435.807 439.784C435.825 439.793 435.844 439.801 435.863 439.809L440.81 428.577C440.783 428.565 440.756 428.554 440.729 428.542L435.807 439.784ZM435.863 439.809C435.882 439.817 435.901 439.826 435.92 439.834L440.89 428.612C440.863 428.601 440.836 428.589 440.81 428.577L435.863 439.809ZM435.932 439.839L437.195 440.391L442.141 429.159L440.878 428.607L435.932 439.839ZM434.045 432.317L434.033 432.345L445.279 437.26L445.291 437.233L434.045 432.317ZM436.955 440.313C450.749 447.026 456.864 463.445 450.652 477.549L461.898 482.465C470.784 462.286 462.02 438.861 442.357 429.291L436.955 440.313ZM450.652 477.549C444.441 491.654 428.174 498.289 413.876 492.723L409.393 504.146C429.776 512.081 453.011 502.644 461.898 482.465L450.652 477.549Z" fill="black" mask="url(#path-29-inside-4_2472_35792)"/>
<path fill-rule="evenodd" clip-rule="evenodd" d="M295.159 421.64C299.899 432.535 312.364 438.073 323.778 434.066C335.192 430.059 341.419 417.958 338.256 406.509L339.611 406.034L303.294 303.357C303.13 302.745 302.941 302.135 302.726 301.527C298.273 288.936 284.418 282.326 271.781 286.763C259.712 291 253.118 303.78 256.428 315.887L256.39 315.901L256.612 316.529C256.72 316.885 256.837 317.24 256.962 317.594C257.087 317.949 257.22 318.298 257.36 318.643L293.942 422.068L295.159 421.64Z" fill="#F6C5A1"/>
<path d="M341.028 409.816L300.939 296.475C298.053 291.337 288.452 282.12 273.137 286.361C257.823 290.602 254.659 305.626 254.991 312.607L295.079 425.948" stroke="black" stroke-width="6.13645"/>
<ellipse cx="21.0241" cy="20.9635" rx="21.0241" ry="20.9635" transform="matrix(-0.943538 0.331265 -0.333457 -0.942765 303.311 314.371)" fill="#F6C5A1"/>
<path d="M310.736 254.877C322.282 263.009 304.493 289.42 298.998 301.801L256.088 312.798C244.732 294.651 224.041 250.294 233.915 246.828C241.249 244.253 243.686 253.111 246.279 260.99C243.46 252.114 241.625 238.587 247.003 236.699C255.158 233.836 257.273 250.283 261.628 257.362C258.178 249.351 254.657 232.167 259.597 230.433C267.832 227.542 271.439 244.72 274.89 252.731C272.893 243.595 265.699 231.98 273.933 229.089C282.167 226.198 290.686 255.768 294.456 271.66C298.56 264.071 303.457 249.751 310.736 254.877Z" fill="#F6C5A1"/>
<path d="M271.181 296.863C270.226 290.314 272.386 285.174 276.974 279.495C280.893 274.643 290.616 271.889 292.966 272.316" stroke="black" stroke-width="6" stroke-linecap="round"/>
<path d="M245.688 261.096C245.861 261.64 246.037 262.167 246.216 262.672C246.038 262.154 245.863 261.627 245.688 261.096Z" fill="#F6C5A1"/>
<path d="M299.348 297.509C304.843 285.127 321.692 263.115 310.145 254.983C302.867 249.856 297.969 264.177 293.865 271.766C290.096 255.874 281.576 226.304 273.342 229.195C265.108 232.086 272.302 243.701 274.299 252.837C270.848 244.826 267.241 227.648 259.007 230.539C254.066 232.273 257.587 249.457 261.037 257.468C256.682 250.389 254.568 233.942 246.412 236.805C240.705 238.809 243.121 253.921 246.216 262.672C243.401 254.463 241.153 244.185 233.324 246.934C223.45 250.4 246.283 295.484 257.639 313.632" stroke="black" stroke-width="6" stroke-linecap="round" stroke-linejoin="round"/>
<ellipse cx="20.9898" cy="20.9978" rx="20.9898" ry="20.9978" transform="matrix(-0.671294 -0.741191 -0.743662 0.668556 534.948 650.145)" fill="#F6C5A1"/>
<path d="M498.326 650.242C494.347 655.541 493.782 661.085 495.091 668.256C496.209 674.385 503.431 681.43 505.7 682.173" stroke="black" stroke-width="6" stroke-linecap="round"/>
<path d="M433.109 222.857C455.845 206.57 482.207 222.951 492.077 235.771C496.123 225.044 511.274 214.584 528.725 218.992C546.177 223.4 548.901 241.709 546.735 246.763C555.996 249.286 576.484 249.146 580.287 268.454C584.826 291.496 571.104 305.411 554.46 308.914C563.003 315.605 568.033 334.611 556.336 345.019C540.054 359.508 516.355 355.189 505.909 343.073C503.011 353.395 489.925 377.138 461.753 374.614C433.581 372.09 425.649 345.71 428.295 337.228C412.643 333.54 391.883 325.856 391.42 301.434C390.958 277.013 409.027 267.525 423.45 268.733C418.548 263.383 412.683 237.49 433.109 222.857Z" fill="black"/>
<rect x="462.911" y="362.898" width="44.1944" height="65.1656" fill="#F6C5A1"/>
<rect x="462.911" y="362.898" width="44.1944" height="26.4185" fill="black"/>
<path d="M462.578 428.064V362.898H506.772V428.064" stroke="black" stroke-width="5"/>
<mask id="path-44-inside-5_2472_35792" fill="white">
<path fill-rule="evenodd" clip-rule="evenodd" d="M439.3 320.185C438.998 318.343 438.841 316.461 438.841 314.547C438.841 292.837 458.967 275.238 483.794 275.238C507.594 275.238 527.074 291.412 528.644 311.876H528.897V371.661H528.891C528.895 371.768 528.897 371.875 528.897 371.982C528.897 383.166 508.84 400.967 484.098 400.967C459.357 400.967 439.3 383.166 439.3 371.982C439.3 371.875 439.302 371.768 439.306 371.661H439.3V320.185Z"/>
</mask>
<path fill-rule="evenodd" clip-rule="evenodd" d="M439.3 320.185C438.998 318.343 438.841 316.461 438.841 314.547C438.841 292.837 458.967 275.238 483.794 275.238C507.594 275.238 527.074 291.412 528.644 311.876H528.897V371.661H528.891C528.895 371.768 528.897 371.875 528.897 371.982C528.897 383.166 508.84 400.967 484.098 400.967C459.357 400.967 439.3 383.166 439.3 371.982C439.3 371.875 439.302 371.768 439.306 371.661H439.3V320.185Z" fill="#F6C5A1"/>
<path d="M439.3 320.185H444.3V319.777L444.234 319.374L439.3 320.185ZM528.644 311.876L523.658 312.259L524.013 316.876H528.644V311.876ZM528.897 311.876H533.897V306.876H528.897V311.876ZM528.897 371.661V376.661H533.897V371.661H528.897ZM528.891 371.661V366.661H523.716L523.894 371.833L528.891 371.661ZM439.306 371.661L444.303 371.833L444.481 366.661H439.306V371.661ZM439.3 371.661H434.3V376.661H439.3V371.661ZM444.234 319.374C443.975 317.799 443.841 316.188 443.841 314.547H433.841C433.841 316.734 434.02 318.888 434.366 320.995L444.234 319.374ZM443.841 314.547C443.841 296.208 461.077 280.238 483.794 280.238V270.238C456.857 270.238 433.841 289.467 433.841 314.547H443.841ZM483.794 280.238C505.54 280.238 522.328 294.923 523.658 312.259L533.629 311.494C531.819 287.901 509.647 270.238 483.794 270.238V280.238ZM528.897 306.876H528.644V316.876H528.897V306.876ZM533.897 371.661V311.876H523.897V371.661H533.897ZM528.891 376.661H528.897V366.661H528.891V376.661ZM533.897 371.982C533.897 371.818 533.894 371.653 533.888 371.489L523.894 371.833C523.896 371.883 523.897 371.932 523.897 371.982H533.897ZM484.098 405.967C497.647 405.967 509.852 401.107 518.701 394.724C523.13 391.529 526.834 387.87 529.474 384.095C532.061 380.395 533.897 376.187 533.897 371.982H523.897C523.897 373.369 523.225 375.58 521.279 378.364C519.385 381.072 516.529 383.96 512.85 386.614C505.485 391.927 495.291 395.967 484.098 395.967V405.967ZM434.3 371.982C434.3 376.187 436.136 380.395 438.723 384.095C441.363 387.87 445.067 391.529 449.496 394.724C458.344 401.107 470.55 405.967 484.098 405.967V395.967C472.906 395.967 462.712 391.927 455.347 386.614C451.668 383.96 448.812 381.072 446.918 378.364C444.971 375.58 444.3 373.369 444.3 371.982H434.3ZM434.309 371.489C434.303 371.653 434.3 371.818 434.3 371.982H444.3C444.3 371.932 444.301 371.883 444.303 371.833L434.309 371.489ZM439.3 376.661H439.306V366.661H439.3V376.661ZM434.3 320.185V371.661H444.3V320.185H434.3Z" fill="black" mask="url(#path-44-inside-5_2472_35792)"/>
<path d="M467.749 364.488C468.265 368.428 473.525 376.512 490.441 377.334" stroke="black" stroke-width="5" stroke-linecap="round" stroke-linejoin="round"/>
<path d="M516.571 339.84C516.571 331.439 523.407 324.629 531.839 324.629C540.271 324.629 547.106 331.439 547.106 339.84C547.106 348.24 540.271 355.051 531.839 355.051C523.407 355.051 516.571 348.24 516.571 339.84Z" fill="#F6C5A1"/>
<path d="M527.781 325.296C530.081 324.579 532.516 324.438 534.88 324.884C537.245 325.329 539.469 326.349 541.364 327.856C543.258 329.363 544.768 331.313 545.764 333.54C546.76 335.767 547.213 338.206 547.085 340.65C546.957 343.093 546.251 345.469 545.028 347.576C543.805 349.683 542.101 351.458 540.06 352.752C538.018 354.045 535.7 354.819 533.303 355.006C530.905 355.194 528.498 354.79 526.287 353.828" stroke="black" stroke-width="5.18114" stroke-linecap="round" stroke-linejoin="round"/>
<path d="M452.273 339.84C452.273 331.439 445.438 324.629 437.006 324.629C428.574 324.629 421.738 331.439 421.738 339.84C421.738 348.24 428.574 355.051 437.006 355.051C445.438 355.051 452.273 348.24 452.273 339.84Z" fill="#F6C5A1"/>
<path d="M441.063 325.296C438.764 324.579 436.328 324.438 433.964 324.884C431.599 325.329 429.375 326.349 427.481 327.856C425.586 329.363 424.077 331.313 423.081 333.54C422.085 335.767 421.631 338.206 421.759 340.65C421.887 343.093 422.593 345.469 423.816 347.576C425.039 349.683 426.743 351.458 428.785 352.752C430.826 354.045 433.144 354.819 435.542 355.006C437.939 355.194 440.346 354.79 442.557 353.828" stroke="black" stroke-width="5.18114" stroke-linecap="round" stroke-linejoin="round"/>
<ellipse cx="504.317" cy="333.331" rx="4.97074" ry="4.95234" fill="black"/>
<ellipse cx="464.551" cy="333.331" rx="4.97074" ry="4.95234" fill="black"/>
<path d="M494.007 322.587C495.88 321.266 498.761 318.625 504.381 318.625C509.155 318.625 513.169 321.53 513.89 322.587" stroke="black" stroke-width="6.71189" stroke-linecap="round"/>
<path d="M454.241 322.587C456.114 321.266 458.995 318.625 464.614 318.625C469.389 318.625 473.403 321.53 474.124 322.587" stroke="black" stroke-width="6.71189" stroke-linecap="round"/>
<path d="M483.864 336.922V345.65C482.679 345.903 480.31 346.94 480.31 349.065C480.31 351.721 482.679 352.48 483.864 352.859" stroke="black" stroke-width="5" stroke-linecap="round"/>
<path d="M450.69 1048.74V1009.19H415.423L347.601 1048.74H450.69Z" fill="#202020" stroke="black" stroke-width="5"/>
<path d="M509.938 1049.33V1009.78H545.205L613.027 1049.33H509.938Z" fill="#202020" stroke="black" stroke-width="5"/>
<mask id="path-60-inside-6_2472_35792" fill="white">
<path fill-rule="evenodd" clip-rule="evenodd" d="M497.146 693.669C497.146 693.732 497.146 693.796 497.146 693.859C497.146 693.923 497.146 693.987 497.146 694.05V835.318C497.081 836.144 497.048 836.979 497.048 837.822C497.048 855.283 511.256 869.439 528.783 869.439C545.521 869.439 559.232 856.529 560.432 840.159H560.484V839.288C560.507 838.802 560.518 838.313 560.518 837.822C560.518 837.33 560.507 836.841 560.484 836.355V696.752C560.571 695.799 560.615 694.834 560.615 693.859C560.615 676.398 546.407 662.242 528.881 662.242C511.67 662.242 497.66 675.891 497.16 692.917H497.146V693.669Z"/>
</mask>
<path fill-rule="evenodd" clip-rule="evenodd" d="M497.146 693.669C497.146 693.732 497.146 693.796 497.146 693.859C497.146 693.923 497.146 693.987 497.146 694.05V835.318C497.081 836.144 497.048 836.979 497.048 837.822C497.048 855.283 511.256 869.439 528.783 869.439C545.521 869.439 559.232 856.529 560.432 840.159H560.484V839.288C560.507 838.802 560.518 838.313 560.518 837.822C560.518 837.33 560.507 836.841 560.484 836.355V696.752C560.571 695.799 560.615 694.834 560.615 693.859C560.615 676.398 546.407 662.242 528.881 662.242C511.67 662.242 497.66 675.891 497.16 692.917H497.146V693.669Z" fill="#5A5A5A"/>
<path d="M497.146 693.669L503.061 693.704L503.061 693.686V693.669H497.146ZM497.146 694.05H503.061V694.033L503.061 694.015L497.146 694.05ZM497.146 835.318L503.043 835.781L503.061 835.55V835.318H497.146ZM560.432 840.159V834.244H554.936L554.534 839.726L560.432 840.159ZM560.484 840.159V846.073H566.399V840.159H560.484ZM560.484 839.288L554.576 839.017L554.57 839.152V839.288H560.484ZM560.484 836.355H554.57V836.491L554.576 836.626L560.484 836.355ZM560.484 696.752L554.594 696.216L554.57 696.483V696.752H560.484ZM497.16 692.917V698.832H502.903L503.072 693.091L497.16 692.917ZM497.146 692.917V687.003H491.232V692.917H497.146ZM491.232 693.634C491.231 693.709 491.231 693.784 491.231 693.859H503.06C503.06 693.808 503.061 693.756 503.061 693.704L491.232 693.634ZM491.231 693.859C491.231 693.935 491.231 694.01 491.232 694.085L503.061 694.015C503.061 693.963 503.06 693.911 503.06 693.859H491.231ZM503.061 835.318V694.05H491.232V835.318H503.061ZM491.25 834.854C491.173 835.834 491.134 836.824 491.134 837.822H502.963C502.963 837.134 502.99 836.453 503.043 835.781L491.25 834.854ZM491.134 837.822C491.134 858.57 508.011 875.353 528.783 875.353V863.524C514.502 863.524 502.963 851.996 502.963 837.822H491.134ZM528.783 875.353C548.624 875.353 564.904 860.048 566.331 840.591L554.534 839.726C553.559 853.01 542.418 863.524 528.783 863.524V875.353ZM560.484 834.244H560.432V846.073H560.484V834.244ZM554.57 839.288V840.159H566.399V839.288H554.57ZM566.393 839.559C566.419 838.982 566.432 838.403 566.432 837.822H554.603C554.603 838.223 554.594 838.621 554.576 839.017L566.393 839.559ZM566.432 837.822C566.432 837.24 566.419 836.661 566.393 836.085L554.576 836.626C554.594 837.022 554.603 837.42 554.603 837.822H566.432ZM554.57 696.752V836.355H566.399V696.752H554.57ZM566.375 697.288C566.477 696.157 566.53 695.014 566.53 693.859H554.701C554.701 694.655 554.665 695.441 554.594 696.216L566.375 697.288ZM566.53 693.859C566.53 673.111 549.653 656.328 528.881 656.328V668.157C543.161 668.157 554.701 679.685 554.701 693.859H566.53ZM528.881 656.328C508.482 656.328 491.842 672.51 491.248 692.743L503.072 693.091C503.478 679.273 514.859 668.157 528.881 668.157V656.328ZM497.146 698.832H497.16V687.003H497.146V698.832ZM503.061 693.669V692.917H491.232V693.669H503.061Z" fill="black" mask="url(#path-60-inside-6_2472_35792)"/>
<ellipse cx="529.49" cy="847.787" rx="28.4631" ry="28.3578" fill="#5A5A5A"/>
<rect x="499.373" y="841.195" width="59.9453" height="168.266" fill="#5A5A5A"/>
<path d="M499.042 839.679V1008.7H558.946V838.98" stroke="black" stroke-width="5.91463"/>
<mask id="path-65-inside-7_2472_35792" fill="white">
<path fill-rule="evenodd" clip-rule="evenodd" d="M407.091 692.98C407.09 693.04 407.09 693.1 407.09 693.16C407.09 693.22 407.09 693.28 407.091 693.34V834.618C407.026 835.444 406.993 836.279 406.993 837.122C406.993 854.584 421.201 868.739 438.727 868.739C455.465 868.739 469.176 855.83 470.377 839.459H470.429V838.588C470.451 838.102 470.462 837.613 470.462 837.122C470.462 836.631 470.451 836.142 470.429 835.656V696.053C470.515 695.1 470.56 694.135 470.56 693.16C470.56 675.699 456.352 661.543 438.825 661.543C421.615 661.543 407.604 675.192 407.104 692.218H407.091V692.98Z"/>
</mask>
<path fill-rule="evenodd" clip-rule="evenodd" d="M407.091 692.98C407.09 693.04 407.09 693.1 407.09 693.16C407.09 693.22 407.09 693.28 407.091 693.34V834.618C407.026 835.444 406.993 836.279 406.993 837.122C406.993 854.584 421.201 868.739 438.727 868.739C455.465 868.739 469.176 855.83 470.377 839.459H470.429V838.588C470.451 838.102 470.462 837.613 470.462 837.122C470.462 836.631 470.451 836.142 470.429 835.656V696.053C470.515 695.1 470.56 694.135 470.56 693.16C470.56 675.699 456.352 661.543 438.825 661.543C421.615 661.543 407.604 675.192 407.104 692.218H407.091V692.98Z" fill="#5A5A5A"/>
<path d="M407.091 692.98L413.005 693.013L413.005 692.997V692.98H407.091ZM407.091 693.34H413.005V693.324L413.005 693.307L407.091 693.34ZM407.091 834.618L412.987 835.082L413.005 834.851V834.618H407.091ZM470.377 839.459V833.545H464.88L464.478 839.027L470.377 839.459ZM470.429 839.459V845.374H476.343V839.459H470.429ZM470.429 838.588L464.52 838.318L464.514 838.453V838.588H470.429ZM470.429 835.656H464.514V835.791L464.52 835.927L470.429 835.656ZM470.429 696.053L464.538 695.517L464.514 695.784V696.053H470.429ZM407.104 692.218V698.132H412.847L413.016 692.391L407.104 692.218ZM407.091 692.218V686.303H401.176V692.218H407.091ZM401.176 692.947C401.176 693.018 401.176 693.089 401.176 693.16H413.005C413.005 693.111 413.005 693.062 413.005 693.013L401.176 692.947ZM401.176 693.16C401.176 693.231 401.176 693.302 401.176 693.373L413.005 693.307C413.005 693.258 413.005 693.209 413.005 693.16H401.176ZM413.005 834.618V693.34H401.176V834.618H413.005ZM401.194 834.155C401.117 835.135 401.078 836.125 401.078 837.122H412.907C412.907 836.434 412.934 835.754 412.987 835.082L401.194 834.155ZM401.078 837.122C401.078 857.871 417.955 874.654 438.727 874.654V862.825C424.447 862.825 412.907 851.297 412.907 837.122H401.078ZM438.727 874.654C458.568 874.654 474.849 859.348 476.276 839.892L464.478 839.027C463.504 852.311 452.362 862.825 438.727 862.825V874.654ZM470.429 833.545H470.377V845.374H470.429V833.545ZM464.514 838.588V839.459H476.343V838.588H464.514ZM476.337 838.859C476.363 838.283 476.377 837.704 476.377 837.122H464.548C464.548 837.523 464.538 837.922 464.52 838.318L476.337 838.859ZM476.377 837.122C476.377 836.54 476.363 835.961 476.337 835.385L464.52 835.927C464.538 836.322 464.548 836.721 464.548 837.122H476.377ZM464.514 696.053V835.656H476.343V696.053H464.514ZM476.319 696.589C476.422 695.459 476.474 694.315 476.474 693.16H464.645C464.645 693.956 464.609 694.742 464.538 695.517L476.319 696.589ZM476.474 693.16C476.474 672.411 459.597 655.628 438.825 655.628V667.458C453.106 667.458 464.645 678.986 464.645 693.16H476.474ZM438.825 655.628C418.426 655.628 401.787 671.81 401.192 692.044L413.016 692.391C413.422 678.574 424.803 667.458 438.825 667.458V655.628ZM407.091 698.132H407.104V686.303H407.091V698.132ZM413.005 692.98V692.218H401.176V692.98H413.005Z" fill="black" mask="url(#path-65-inside-7_2472_35792)"/>
<ellipse cx="438.785" cy="847.135" rx="28.4631" ry="28.3578" fill="#5A5A5A"/>
<rect x="408.667" y="840.543" width="59.9453" height="168.266" fill="#5A5A5A"/>
<path d="M408.336 839.026V1008.05H468.241V838.328" stroke="black" stroke-width="5.91463"/>
<rect x="407.372" y="635.469" width="152.088" height="52.0307" fill="#5A5A5A"/>
<path d="M458.068 687.871H508.018" stroke="black" stroke-width="5.34794"/>
<path d="M408.863 635.469V687.499" stroke="black" stroke-width="5.34794"/>
<path d="M558.714 635.469V687.499" stroke="black" stroke-width="5.34794"/>
<rect x="396.698" y="419.535" width="176.473" height="239.824" rx="36.3875" fill="#63518C"/>
<path d="M454.1 658.728V460.014L435.483 419.535C441.689 422.908 459.375 429.931 480.474 431.035C501.573 432.139 521.328 426.588 528.567 423.675L514.993 460.014V658.728H454.1Z" fill="#F9F9F9"/>
<rect x="399.198" y="422.035" width="171.473" height="234.824" rx="33.8875" stroke="black" stroke-width="5"/>
<rect x="405.784" y="500.285" width="43.6427" height="64.0522" fill="#63518C" stroke="black" stroke-width="5"/>
<path d="M408.284 518.602L427.606 530.672L446.927 518.602" stroke="black" stroke-width="5" stroke-linecap="round" stroke-linejoin="round"/>
<rect x="520.873" y="500.285" width="43.6427" height="64.0522" fill="#63518C" stroke="black" stroke-width="5"/>
<path d="M523.373 518.602L542.694 530.672L562.015 518.602" stroke="black" stroke-width="5" stroke-linecap="round" stroke-linejoin="round"/>
<path d="M426.533 412.856C438.972 417.911 449.932 454.861 455.748 473.321C455.748 490.419 436.773 463.033 429.946 452.626C423.119 442.219 397.33 450.396 390.124 433.67C382.918 416.944 410.983 406.537 426.533 412.856Z" fill="#63518C" stroke="black" stroke-width="5"/>
<path d="M540.406 412.856C527.967 417.911 517.427 455.271 511.611 473.731C511.611 490.829 530.166 463.033 536.993 452.626C543.82 442.219 569.609 450.396 576.815 433.67C584.021 416.944 555.956 406.537 540.406 412.856Z" fill="#63518C" stroke="black" stroke-width="5"/>
<path fill-rule="evenodd" clip-rule="evenodd" d="M442.727 481.488C442.727 481.479 442.727 481.469 442.727 481.46C442.727 479.195 440.846 477.359 438.527 477.359C436.207 477.359 434.326 479.195 434.326 481.46C434.326 481.46 434.326 481.46 434.326 481.46H434.326V541.333H442.727V481.488Z" fill="#F9F9F9"/>
<path d="M442.727 481.488L440.227 481.471L440.227 481.479V481.488H442.727ZM434.326 481.46V483.96H436.826L436.826 481.46L434.326 481.46ZM434.326 481.46V478.96H431.826V481.46H434.326ZM434.326 541.333H431.826V543.833H434.326V541.333ZM442.727 541.333V543.833H445.227V541.333H442.727ZM440.227 481.46C440.227 481.464 440.227 481.467 440.227 481.471L445.227 481.505C445.227 481.49 445.227 481.475 445.227 481.46H440.227ZM438.527 479.859C439.522 479.859 440.227 480.632 440.227 481.46H445.227C445.227 477.759 442.17 474.859 438.527 474.859V479.859ZM436.826 481.46C436.826 480.632 437.531 479.859 438.527 479.859V474.859C434.883 474.859 431.826 477.759 431.826 481.46H436.826ZM436.826 481.46C436.826 481.46 436.826 481.46 436.826 481.46H431.826C431.826 481.46 431.826 481.46 431.826 481.46L436.826 481.46ZM434.326 483.96H434.326V478.96H434.326V483.96ZM436.826 541.333V481.46H431.826V541.333H436.826ZM442.727 538.833H434.326V543.833H442.727V538.833ZM440.227 481.488V541.333H445.227V481.488H440.227Z" fill="black"/>
<path d="M431.386 558.967C431.386 552.733 435.586 548.304 436.846 547.074C438.946 549.125 441.466 554.702 441.466 558.967C441.466 563.232 437.826 568.125 436.006 570.039C434.466 568.945 431.386 565.2 431.386 558.967Z" fill="#F9F9F9" stroke="black" stroke-width="5"/>
<path d="M444.427 543.381C444.427 546.701 441.654 549.493 438.106 549.493C434.559 549.493 431.786 546.701 431.786 543.381C431.786 540.062 434.559 537.27 438.106 537.27C441.654 537.27 444.427 540.062 444.427 543.381Z" fill="#F9F9F9" stroke="black" stroke-width="5"/>
<path fill-rule="evenodd" clip-rule="evenodd" d="M523.372 481.476C523.372 481.471 523.372 481.465 523.372 481.46C523.372 479.195 525.253 477.359 527.573 477.359C529.892 477.359 531.773 479.195 531.773 481.46C531.773 481.46 531.773 481.46 531.773 481.46H531.773V541.333H523.372V481.476Z" fill="#F9F9F9"/>
<path d="M523.372 481.476L525.872 481.467V481.476H523.372ZM531.773 481.46V483.96H529.273V481.46H531.773ZM531.773 481.46V478.96H534.273V481.46H531.773ZM531.773 541.333H534.273V543.833H531.773V541.333ZM523.372 541.333V543.833H520.872V541.333H523.372ZM525.872 481.46C525.872 481.462 525.872 481.464 525.872 481.467L520.872 481.486C520.872 481.477 520.872 481.469 520.872 481.46H525.872ZM527.573 479.859C526.577 479.859 525.872 480.632 525.872 481.46H520.872C520.872 477.759 523.929 474.859 527.573 474.859V479.859ZM529.273 481.46C529.273 480.632 528.568 479.859 527.573 479.859V474.859C531.216 474.859 534.273 477.759 534.273 481.46H529.273ZM529.273 481.46V481.46H534.273V481.46H529.273ZM531.773 483.96H531.773V478.96H531.773V483.96ZM529.273 541.333V481.46H534.273V541.333H529.273ZM523.372 538.833H531.773V543.833H523.372V538.833ZM525.872 481.476V541.333H520.872V481.476H525.872Z" fill="black"/>
<path d="M534.713 558.967C534.713 552.733 530.513 548.304 529.253 547.074C527.153 549.125 524.633 554.702 524.633 558.967C524.633 563.232 528.273 568.125 530.093 570.039C531.633 568.945 534.713 565.2 534.713 558.967Z" fill="#F9F9F9" stroke="black" stroke-width="5"/>
<path d="M521.672 543.381C521.672 546.701 524.445 549.493 527.993 549.493C531.54 549.493 534.313 546.701 534.313 543.381C534.313 540.062 531.54 537.27 527.993 537.27C524.445 537.27 521.672 540.062 521.672 543.381Z" fill="#F9F9F9" stroke="black" stroke-width="5"/>
<path d="M530.507 419.535H437.422C439.97 428.581 450.5 446.673 481.333 446.673C512.166 446.673 526.963 428.581 530.507 419.535Z" fill="#F6C5A1"/>
<path d="M462.309 419.535H436.129C436.129 427.424 452.38 447.232 483.074 447.232C513.768 447.232 531.153 426.477 531.153 419.535C524.905 419.535 503.68 419.535 504.973 419.535" stroke="black" stroke-width="5"/>
</svg>
