<svg width="165" height="142" viewBox="0 0 165 142" fill="none" xmlns="http://www.w3.org/2000/svg">
<path opacity="0.4" d="M82 80C104.091 80 122 62.0916 122 40C122 17.9086 104.091 0 82 0C59.9086 0 42 17.9086 42 40C42 62.0916 59.9086 80 82 80Z" fill="#63518C"/>
<path d="M82 19.7188C73.72 19.7188 67 26.4388 67 34.7186C67 42.8386 73.36 49.4386 81.8 49.6786C81.92 49.6786 82.08 49.6786 82.16 49.6786C82.24 49.6786 82.36 49.6786 82.44 49.6786C82.48 49.6786 82.52 49.6786 82.52 49.6786C90.6 49.3986 96.96 42.8386 97 34.7186C97 26.4388 90.28 19.7188 82 19.7188Z" fill="#63518C"/>
<path d="M109.123 69.4019C102.003 75.9619 92.4828 80.0019 82.0028 80.0019C71.5228 80.0019 62.0028 75.9619 54.8828 69.4019C55.8428 65.7619 58.4428 62.4419 62.2428 59.8819C73.1628 52.6019 90.9228 52.6019 101.763 59.8819C105.603 62.4419 108.163 65.7619 109.123 69.4019Z" fill="#63518C"/>
<path d="M7.74275 115.056C7.24675 115.056 6.85475 114.904 6.56675 114.6C6.27875 114.28 6.13475 113.856 6.13475 113.328C6.13475 112.784 6.27875 112.36 6.56675 112.056C6.83875 111.752 7.23075 111.6 7.74275 111.6C8.23875 111.6 8.62275 111.752 8.89475 112.056C9.18275 112.36 9.32675 112.784 9.32675 113.328C9.32675 113.856 9.18275 114.28 8.89475 114.6C8.60675 114.904 8.22275 115.056 7.74275 115.056ZM15.5984 127C15.4544 128.92 14.7904 130.36 13.6064 131.32C12.4384 132.28 10.7504 132.76 8.54244 132.76H7.48644C6.81444 132.76 6.19044 132.688 5.61444 132.544C5.03844 132.4 4.50244 132.192 4.00644 131.92C3.03044 131.36 2.27844 130.568 1.75044 129.544C1.22244 128.52 0.958438 127.352 0.958438 126.04C0.958438 125.128 1.06244 124.208 1.27044 123.28C1.49444 122.336 1.79844 121.488 2.18244 120.736H5.35044C5.09444 121.584 4.89444 122.48 4.75044 123.424C4.60644 124.368 4.53444 125.248 4.53444 126.064C4.53444 127.232 4.82244 128.16 5.39844 128.848C5.99044 129.536 6.76644 129.88 7.72644 129.88H8.44644C9.27844 129.88 9.95844 129.728 10.4864 129.424C11.0144 129.136 11.4064 128.704 11.6624 128.128C11.9184 127.552 12.0464 126.864 12.0464 126.064V115.12H15.6224V124.12H18.7184C18.7984 124.12 18.8384 124.152 18.8384 124.216V126.88C18.8384 126.96 18.7984 127 18.7184 127H15.5984ZM35.6578 127C34.9698 127 34.3138 126.848 33.6898 126.544C33.0658 126.24 32.4658 125.792 31.8898 125.2C31.4418 125.792 30.8818 126.24 30.2098 126.544C29.5538 126.848 28.7778 127 27.8818 127H18.4737C18.3937 127 18.3537 126.96 18.3537 126.88V124.216C18.3537 124.152 18.3937 124.12 18.4737 124.12H21.4738V116.992H25.0498V124.12H27.0898C27.8898 124.12 28.4738 123.904 28.8418 123.472C29.2098 123.024 29.3938 122.312 29.3938 121.336V116.992H32.9698V121.624C32.9698 121.816 32.9618 122 32.9458 122.176C32.9458 122.352 32.9298 122.528 32.8978 122.704C33.2978 123.232 33.6898 123.6 34.0738 123.808C34.4578 124.016 34.9618 124.12 35.5858 124.12H37.0738V115.12H40.6498V124.12H43.7698C43.8498 124.12 43.8898 124.152 43.8898 124.216V126.88C43.8898 126.96 43.8498 127 43.7698 127H35.6578ZM43.5284 127C43.4484 127 43.4084 126.96 43.4084 126.88V124.216C43.4084 124.136 43.4484 124.096 43.5284 124.096H53.2004C52.8964 123.824 52.6244 123.4 52.3844 122.824C52.1444 122.248 51.9364 121.536 51.7604 120.688C51.6164 119.952 51.4244 119.376 51.1844 118.96C50.9604 118.528 50.6644 118.224 50.2964 118.048C49.9284 117.856 49.4564 117.76 48.8804 117.76C48.3204 117.76 47.7924 117.832 47.2964 117.976C46.8004 118.12 46.2644 118.352 45.6884 118.672L44.6084 116.032C45.3124 115.648 46.0804 115.36 46.9124 115.168C47.7604 114.976 48.6644 114.88 49.6244 114.88C50.0564 114.88 50.4564 114.904 50.8244 114.952C51.2084 114.984 51.5604 115.056 51.8804 115.168C52.7764 115.456 53.4884 115.944 54.0164 116.632C54.5444 117.32 54.9124 118.28 55.1204 119.512C55.2644 120.296 55.4164 120.992 55.5764 121.6C55.7524 122.208 55.9444 122.72 56.1524 123.136C56.3604 123.552 56.5764 123.88 56.8004 124.12V127H43.5284ZM72.9074 132.76C71.9314 132.76 71.0834 132.512 70.3634 132.016C69.6434 131.536 69.0834 130.88 68.6834 130.048C68.2834 129.232 68.0834 128.312 68.0834 127.288C68.0834 126.504 68.1474 125.728 68.2754 124.96C68.4034 124.192 68.5954 123.424 68.8514 122.656H72.0434C71.8354 123.312 71.6994 123.944 71.6354 124.552C71.5714 125.144 71.5394 125.88 71.5394 126.76C71.5394 127.304 71.6674 127.816 71.9234 128.296C72.1954 128.776 72.5474 129.16 72.9794 129.448C73.4274 129.736 73.8994 129.88 74.3954 129.88H78.5474C79.1874 129.88 79.7554 129.848 80.2514 129.784C80.7634 129.736 81.1634 129.624 81.4514 129.448C81.7554 129.272 81.9074 128.992 81.9074 128.608C81.9074 128.336 81.7714 128.096 81.4994 127.888C81.2434 127.696 80.8274 127.528 80.2514 127.384C79.3554 127.16 78.6434 126.888 78.1154 126.568C77.5874 126.232 77.2114 125.832 76.9874 125.368C76.7794 124.904 76.6754 124.352 76.6754 123.712C76.6754 123.296 76.7474 122.864 76.8914 122.416C77.0514 121.968 77.2834 121.52 77.5874 121.072C78.0034 120.464 78.4994 119.912 79.0754 119.416C79.6514 118.92 80.2514 118.528 80.8754 118.24C81.5154 117.952 82.1234 117.808 82.6994 117.808C82.9554 117.808 83.2034 117.832 83.4434 117.88C83.6834 117.912 83.9154 117.984 84.1394 118.096C84.6674 118.352 85.1714 118.752 85.6514 119.296C86.1314 119.84 86.7154 120.608 87.4034 121.6C87.7714 122.128 88.0994 122.56 88.3874 122.896C88.6914 123.232 88.9554 123.48 89.1794 123.64C89.4034 123.8 89.6354 123.92 89.8754 124C90.1314 124.08 90.3874 124.12 90.6434 124.12H90.7634C90.8434 124.12 90.8834 124.152 90.8834 124.216V126.88C90.8834 126.96 90.8434 127 90.7634 127H90.6434C90.0674 127 89.5474 126.952 89.0834 126.856C88.6354 126.744 88.2114 126.56 87.8114 126.304C87.4114 126.048 86.9954 125.696 86.5634 125.248C86.4834 125.168 86.3394 124.992 86.1314 124.72C85.9234 124.432 85.6594 124.064 85.3394 123.616C84.9714 123.088 84.6354 122.648 84.3314 122.296C84.0434 121.944 83.7874 121.68 83.5634 121.504C83.3554 121.328 83.1474 121.2 82.9394 121.12C82.7314 121.024 82.5314 120.976 82.3394 120.976C82.1314 120.976 81.8914 121.056 81.6194 121.216C81.3474 121.36 81.0834 121.552 80.8274 121.792C80.5874 122.032 80.3874 122.28 80.2274 122.536C80.0674 122.792 79.9874 123.016 79.9874 123.208C79.9874 123.416 80.0434 123.616 80.1554 123.808C80.2834 123.984 80.4754 124.152 80.7314 124.312C80.9874 124.456 81.3154 124.592 81.7154 124.72C82.2274 124.88 82.6674 125.048 83.0354 125.224C83.4194 125.384 83.7394 125.544 83.9954 125.704C84.4754 126.008 84.8354 126.384 85.0754 126.832C85.3314 127.28 85.4594 127.808 85.4594 128.416C85.4594 129.824 84.8834 130.896 83.7314 131.632C82.5954 132.384 80.8754 132.76 78.5714 132.76H72.9074ZM97.7428 113.056C97.2467 113.056 96.8547 112.904 96.5667 112.6C96.2788 112.28 96.1348 111.856 96.1348 111.328C96.1348 110.784 96.2788 110.36 96.5667 110.056C96.8387 109.752 97.2307 109.6 97.7428 109.6C98.2388 109.6 98.6228 109.752 98.8948 110.056C99.1828 110.36 99.3268 110.784 99.3268 111.328C99.3268 111.856 99.1828 112.28 98.8948 112.6C98.6068 112.904 98.2228 113.056 97.7428 113.056ZM107.081 124.12C107.161 124.12 107.201 124.152 107.201 124.216V126.88C107.201 126.96 107.161 127 107.081 127H90.5206C90.4406 127 90.4006 126.96 90.4006 126.88V124.216C90.4006 124.152 90.4406 124.12 90.5206 124.12H93.9526C93.6966 123.816 93.4806 123.496 93.3046 123.16C93.1446 122.824 93.0166 122.472 92.9206 122.104C92.8406 121.736 92.8006 121.352 92.8006 120.952C92.8006 119.752 93.0726 118.72 93.6166 117.856C94.1766 116.976 94.9766 116.304 96.0166 115.84C97.0726 115.36 98.3366 115.12 99.8086 115.12H104.081V124.12H107.081ZM100.505 124.12V118H99.8806C99.1606 118 98.5446 118.12 98.0326 118.36C97.5206 118.6 97.1286 118.952 96.8566 119.416C96.6006 119.88 96.4726 120.456 96.4726 121.144C96.4726 121.768 96.6006 122.304 96.8566 122.752C97.1126 123.2 97.4886 123.544 97.9846 123.784C98.4966 124.008 99.1126 124.12 99.8326 124.12H100.505ZM106.833 127C106.753 127 106.713 126.96 106.713 126.88V124.216C106.713 124.152 106.753 124.12 106.833 124.12H109.665V108.76H113.241V119.32C113.737 118.328 114.305 117.504 114.945 116.848C115.585 116.192 116.305 115.704 117.105 115.384C117.921 115.048 118.801 114.88 119.745 114.88C121.713 114.88 123.193 115.4 124.185 116.44C125.193 117.48 125.697 119.08 125.697 121.24V124.12H128.817C128.897 124.12 128.937 124.152 128.937 124.216V126.88C128.937 126.96 128.897 127 128.817 127H106.833ZM122.121 124.12V121.168C122.121 120 121.849 119.144 121.305 118.6C120.777 118.04 119.953 117.76 118.833 117.76C118.113 117.76 117.425 117.928 116.769 118.264C116.113 118.584 115.489 119.08 114.897 119.752C114.321 120.408 113.769 121.24 113.241 122.248V124.12H122.121ZM128.583 127C128.503 127 128.463 126.96 128.463 126.88V124.216C128.463 124.152 128.503 124.12 128.583 124.12H131.415V115.12H134.991V119.32C135.487 118.328 136.055 117.504 136.695 116.848C137.335 116.192 138.055 115.704 138.855 115.384C139.671 115.048 140.551 114.88 141.495 114.88C143.463 114.88 144.943 115.4 145.935 116.44C146.943 117.48 147.447 119.08 147.447 121.24V124.12H150.567C150.647 124.12 150.687 124.152 150.687 124.216V126.88C150.687 126.96 150.647 127 150.567 127H128.583ZM143.871 124.12V121.168C143.871 120 143.599 119.144 143.055 118.6C142.527 118.04 141.703 117.76 140.583 117.76C139.863 117.76 139.175 117.928 138.519 118.264C137.863 118.584 137.239 119.08 136.647 119.752C136.071 120.408 135.519 121.24 134.991 122.248V124.12H143.871ZM150.333 127C150.253 127 150.213 126.96 150.213 126.88V124.216C150.213 124.152 150.253 124.12 150.333 124.12H153.045C152.837 123.624 152.677 123.104 152.565 122.56C152.453 122 152.397 121.416 152.397 120.808C152.397 120.12 152.509 119.376 152.733 118.576C152.973 117.76 153.269 117.064 153.621 116.488C154.389 116.04 155.205 115.704 156.069 115.48C156.949 115.24 157.717 115.12 158.373 115.12C158.917 115.12 159.437 115.184 159.933 115.312C160.429 115.424 160.901 115.592 161.349 115.816C162.245 116.28 162.941 116.944 163.437 117.808C163.933 118.656 164.181 119.648 164.181 120.784C164.181 121.392 164.109 121.968 163.965 122.512C163.837 123.056 163.629 123.56 163.341 124.024C162.749 124.968 161.949 125.704 160.941 126.232C159.949 126.744 158.845 127 157.629 127H150.333ZM155.709 121.312C155.709 121.712 155.757 122.152 155.853 122.632C155.949 123.096 156.085 123.592 156.261 124.12H157.173C157.813 124.12 158.389 123.976 158.901 123.688C159.413 123.384 159.821 122.976 160.125 122.464C160.429 121.952 160.581 121.392 160.581 120.784C160.581 119.936 160.373 119.264 159.957 118.768C159.541 118.256 158.989 118 158.301 118C157.949 118 157.581 118.056 157.197 118.168C156.829 118.28 156.453 118.448 156.069 118.672C155.957 119.088 155.869 119.52 155.805 119.968C155.741 120.4 155.709 120.848 155.709 121.312Z" fill="#0D002C"/>
</svg>
