<svg width="357" height="375" viewBox="0 0 357 375" fill="none" xmlns="http://www.w3.org/2000/svg">
<path d="M188.335 374.79C278.471 374.79 351.542 371.386 351.542 367.188C351.542 362.989 278.471 359.586 188.335 359.586C98.1981 359.586 25.1279 362.989 25.1279 367.188C25.1279 371.386 98.1981 374.79 188.335 374.79Z" fill="#263238"/>
<path d="M271.061 17.2558C272.228 19.2117 276.444 22.0799 276.444 22.0881C276.444 22.0963 277.496 18.7351 277.537 18.5132C277.981 15.9573 277.348 10.7551 274.784 9.39909C274.351 9.18356 273.877 9.06187 273.394 9.04197C272.911 9.02207 272.429 9.10442 271.98 9.28362C271.531 9.46283 271.124 9.73485 270.788 10.0819C270.451 10.4289 270.191 10.8432 270.025 11.2975C269.261 13.2042 270.066 15.5957 271.061 17.2558Z" fill="#263238"/>
<path d="M312.382 48.1557C312.382 48.205 315.103 45.9368 315.259 45.7724C317.042 43.8904 319.368 39.1978 317.995 36.6583C317.753 36.2407 317.425 35.8789 317.032 35.5966C316.64 35.3144 316.193 35.118 315.72 35.0202C315.247 34.9225 314.759 34.9257 314.287 35.0295C313.815 35.1333 313.371 35.3355 312.982 35.6228C311.289 36.7816 310.64 39.2224 310.517 41.1619C310.443 43.4302 312.382 48.1557 312.382 48.1557Z" fill="#263238"/>
<path d="M263.903 30.3056C265.481 31.8177 269.951 33.3874 270.305 33.5107C269.402 36.0556 268.672 38.6585 268.119 41.3016C267.782 42.8384 267.494 44.4081 267.223 45.9778C267.223 45.2464 267.223 44.5807 267.223 44.4903C266.984 41.9098 265.004 37.0939 262.16 36.4282C261.684 36.3327 261.193 36.3389 260.72 36.4464C260.247 36.5539 259.801 36.7604 259.413 37.0522C259.025 37.344 258.703 37.7146 258.468 38.1396C258.234 38.5646 258.092 39.0344 258.051 39.5183C257.813 41.5564 259.218 43.6274 260.615 44.9916C262.012 46.3559 265.817 47.7694 266.828 48.131C266.73 48.7392 266.623 49.3391 266.532 49.9473C266.08 52.8483 265.637 55.7001 265.119 58.5765C264.938 59.5709 264.724 60.5488 264.511 61.5186C264.511 60.8694 264.511 60.3187 264.511 60.2366C264.272 57.6478 262.292 52.8401 259.457 52.1662C258.981 52.072 258.49 52.0792 258.017 52.1873C257.544 52.2954 257.1 52.5019 256.712 52.7935C256.324 53.0851 256.002 53.4551 255.767 53.8794C255.532 54.3038 255.389 54.7729 255.347 55.2563C255.109 57.2944 256.514 59.3654 257.912 60.7379C259.309 62.1103 262.752 63.3759 263.944 63.8115C263.697 64.7977 263.451 65.8003 263.163 66.7454C262.958 67.3947 262.801 68.0275 262.555 68.6685L261.864 70.5505C261.388 71.7339 260.903 72.9585 260.402 74.1008C260.065 74.9226 259.728 75.6541 259.391 76.4101C259.58 75.4239 259.917 73.4762 259.925 73.3118C260.081 70.7231 258.857 65.6277 256.145 64.5758C255.688 64.414 255.203 64.3505 254.72 64.3894C254.238 64.4283 253.769 64.5687 253.345 64.8015C252.92 65.0343 252.55 65.3542 252.257 65.7402C251.965 66.1262 251.758 66.5696 251.649 67.0413C251.099 69.0219 252.175 71.3066 253.35 72.8434C254.649 74.5364 258.659 76.6978 259.161 76.9525C258.594 78.2017 258.035 79.418 257.517 80.5604C255.939 83.8477 254.476 86.6665 253.309 88.7786L254.895 89.9128C256.038 87.7021 257.501 84.7681 259.078 81.2671C259.662 80.0015 260.254 78.6291 260.845 77.2155C262.27 77.5684 263.713 77.8428 265.168 78.0374C265.439 80.207 267.445 83.9545 267.708 84.4394C266.541 85.179 265.407 85.8776 264.322 86.5268C261.232 88.3842 258.52 89.8799 256.391 91.014L258.117 92.2468C260.106 91.1126 262.522 89.6991 265.218 87.9979C266.409 87.25 267.683 86.4364 268.932 85.5817C269.31 85.9926 272.425 89.3293 274.389 90.1593C276.181 90.9154 278.663 91.3756 280.438 90.3483C280.863 90.1199 281.235 89.8047 281.531 89.4231C281.826 89.0414 282.038 88.602 282.153 88.1331C282.268 87.6643 282.283 87.1766 282.197 86.7017C282.111 86.2267 281.926 85.7752 281.654 85.3763C279.953 83.0176 274.71 83.1245 272.244 83.9216C272.096 83.971 270.601 84.6613 269.623 85.1133C270.149 84.7681 270.65 84.4312 271.184 84.0614C272.236 83.3464 273.271 82.5985 274.381 81.7931L275.967 80.5604C276.501 80.1659 277.019 79.6728 277.561 79.229C278.778 78.1606 279.961 77.0265 281.128 75.8595C281.761 76.78 284.054 80.018 285.714 81.037C287.374 82.0561 289.749 82.8779 291.656 82.1301C292.112 81.9708 292.529 81.717 292.88 81.3854C293.231 81.0537 293.507 80.6516 293.692 80.2054C293.877 79.7592 293.965 79.2791 293.951 78.7964C293.937 78.3137 293.822 77.8394 293.612 77.4045C292.289 74.824 287.095 74.1172 284.531 74.5446C284.374 74.5446 282.575 75.0788 281.588 75.3664C282.279 74.6514 282.977 73.9529 283.659 73.2132C285.624 71.0765 287.547 68.8493 289.478 66.6386L291.261 64.6251C291.483 64.9538 294.121 68.8658 295.979 70.0081C297.622 71.0189 300.022 71.849 301.929 71.1011C302.383 70.9397 302.798 70.6847 303.148 70.3526C303.497 70.0205 303.773 69.6188 303.957 69.1733C304.142 68.7279 304.231 68.2487 304.218 67.7667C304.206 67.2848 304.092 66.8109 303.885 66.3756C302.561 63.7869 297.367 63.0883 294.803 63.5156C294.614 63.5156 292.017 64.2799 291.368 64.5018C292.675 63.0226 293.998 61.5679 295.354 60.179C297.205 58.3025 299.176 56.5483 301.255 54.9275C301.362 55.0837 304.098 59.1764 306.005 60.3434C307.649 61.3542 310.04 62.1843 311.955 61.4364C312.41 61.2761 312.826 61.0217 313.176 60.6898C313.527 60.3579 313.803 59.956 313.988 59.5102C314.172 59.0644 314.261 58.5847 314.247 58.1024C314.234 57.6201 314.12 57.146 313.911 56.7109C312.58 54.1304 307.386 53.4236 304.83 53.8509C304.657 53.8509 302.685 54.4427 301.748 54.7303L301.674 54.5824C303.784 52.9989 306.031 51.6072 308.388 50.4239C309.678 49.75 310.944 49.1912 312.193 48.6652C312.629 49.487 314.659 53.177 316.237 54.418C317.815 55.659 320.05 56.6945 322.031 56.1603C322.501 56.0523 322.943 55.8461 323.329 55.5553C323.714 55.2645 324.033 54.8956 324.266 54.4728C324.499 54.0499 324.64 53.5827 324.679 53.1016C324.719 52.6206 324.656 52.1366 324.496 51.6813C323.461 48.9611 318.373 47.7037 315.785 47.8434C315.645 47.8434 314.215 48.0817 313.179 48.2707C313.747 48.0406 314.33 47.7941 314.881 47.5886C316.927 46.7668 318.858 46.2162 320.568 45.7066C321.546 45.4272 322.433 45.1889 323.263 44.9752C324.085 45.5587 327.529 47.8434 329.476 48.205C331.424 48.5666 333.906 48.468 335.418 47.0791C335.785 46.7657 336.081 46.3785 336.288 45.9429C336.496 45.5073 336.609 45.0329 336.62 44.5507C336.632 44.0685 336.542 43.5892 336.356 43.1441C336.17 42.699 335.893 42.298 335.541 41.9673C333.372 40.036 328.276 41.2605 326.041 42.5755C325.852 42.6905 323.033 44.8108 323.074 44.8437H323.124C322.302 45.0327 321.48 45.2464 320.518 45.493C318.793 45.9614 316.845 46.512 314.766 47.2517C312.524 48.0299 310.329 48.9354 308.191 49.9637C305.762 51.1159 303.441 52.4829 301.255 54.0482L301.181 54.1057C301.682 53.4236 303.038 51.4594 303.12 51.2951C304.345 49.0104 305.372 43.8986 303.35 41.7783C303.005 41.4418 302.593 41.1815 302.141 41.0144C301.689 40.8472 301.207 40.7768 300.726 40.8078C300.244 40.8388 299.775 40.9705 299.348 41.1943C298.921 41.4181 298.546 41.729 298.247 42.107C296.924 43.6767 296.94 46.2162 297.359 48.0899C297.844 50.2267 300.704 53.9989 300.934 54.303C298.77 55.9349 296.717 57.7085 294.787 59.612C293.661 60.7132 292.56 61.8638 291.5 63.0226C291.919 62.4226 292.321 61.872 292.321 61.798C293.546 59.5051 294.573 54.4016 292.552 52.273C292.206 51.9365 291.794 51.6763 291.342 51.5091C290.89 51.3419 290.408 51.2716 289.927 51.3026C289.446 51.3335 288.976 51.4652 288.549 51.689C288.122 51.9128 287.747 52.2238 287.448 52.6018C286.117 54.1715 286.141 56.7109 286.56 58.5847C286.98 60.4584 289.371 63.7704 290.012 64.6333C289.593 65.0771 289.19 65.5291 288.763 65.9811C286.791 68.1508 284.826 70.3204 282.829 72.3996C282.131 73.131 281.408 73.8214 280.693 74.5199C281.062 73.9775 281.375 73.5255 281.416 73.4516C282.64 71.1587 283.659 66.0551 281.638 63.9348C281.294 63.5966 280.882 63.3347 280.43 63.1662C279.978 62.9976 279.496 62.9261 279.014 62.9563C278.533 62.9865 278.063 63.1178 277.636 63.3416C277.209 63.5655 276.833 63.8768 276.534 64.2553C275.211 65.825 275.227 68.3644 275.655 70.2382C276.082 72.112 278.227 75.1116 278.942 76.1307C278.194 76.821 277.438 77.5196 276.674 78.1524C276.14 78.5798 275.663 79.0235 275.104 79.418L273.46 80.6097C272.409 81.3329 271.324 82.089 270.28 82.7629C269.557 83.2395 268.858 83.6833 268.16 84.1353C268.866 83.4121 270.222 81.9739 270.321 81.8424C271.621 79.9652 272.418 77.7868 272.639 75.5143C272.793 75.3139 272.928 75.0993 273.041 74.8733C273.271 74.4482 273.409 73.9794 273.445 73.4975C273.482 73.0156 273.417 72.5314 273.254 72.0764C273.091 71.6214 272.835 71.2057 272.501 70.8565C272.167 70.5072 271.763 70.2321 271.316 70.0492C268.595 69.0301 264.289 72.0051 262.67 74.035C262.571 74.1501 261.684 75.5719 261.141 76.5005C261.38 75.917 261.618 75.3582 261.864 74.7583C262.341 73.5748 262.793 72.3832 263.278 71.1011C263.484 70.4765 263.705 69.8437 263.919 69.2027C264.133 68.5617 264.305 67.8796 264.511 67.2057C264.938 65.6524 265.333 64.0498 265.628 62.4308C266.664 62.85 270.362 64.2882 272.31 64.2224C274.258 64.1567 276.764 63.491 277.948 61.8473C278.239 61.4624 278.446 61.0204 278.555 60.5502C278.663 60.08 278.672 59.5921 278.58 59.1183C278.488 58.6445 278.296 58.1955 278.019 57.8006C277.742 57.4056 277.384 57.0735 276.97 56.826C274.438 55.396 269.721 57.6478 267.823 59.4476C267.699 59.5627 266.475 60.9762 265.817 61.7734C266.015 60.7954 266.204 59.8256 266.368 58.8312C266.828 55.963 267.19 53.0784 267.593 50.1445C267.708 49.2487 267.839 48.3694 267.962 47.4818C268.332 47.6297 272.688 49.4377 274.874 49.3638C276.805 49.298 279.254 48.6734 280.438 46.9969C280.728 46.6108 280.934 46.1682 281.042 45.6975C281.15 45.2269 281.159 44.7388 281.066 44.2648C280.974 43.7908 280.784 43.3414 280.507 42.9456C280.23 42.5499 279.873 42.2166 279.46 41.9673C276.929 40.5455 272.211 42.8385 270.313 44.5972C270.165 44.7287 268.406 46.775 267.987 47.3174C268.267 45.3615 268.562 43.4137 268.932 41.5153C269.403 38.9393 270.042 36.3971 270.847 33.9052C271.02 33.9791 275.556 35.8776 277.792 35.8036C279.723 35.7379 282.172 35.1133 283.355 33.4367C283.646 33.0518 283.853 32.6098 283.962 32.1396C284.071 31.6694 284.08 31.1815 283.987 30.7077C283.895 30.2339 283.704 29.7849 283.427 29.39C283.149 28.995 282.792 28.6629 282.377 28.4154C279.846 26.9936 275.129 29.2783 273.23 31.037C273.107 31.1521 271.759 32.6807 271.143 33.5025L270.995 33.4203C271.877 30.9364 272.977 28.5355 274.282 26.2457C274.989 24.9801 275.737 23.7803 276.485 22.679C277.307 23.1228 281.021 25.0952 283.059 25.2513C285.098 25.4075 287.497 25.0459 288.853 23.509C289.185 23.1578 289.439 22.7408 289.598 22.2851C289.758 21.8294 289.82 21.3452 289.781 20.8639C289.741 20.3826 289.601 19.915 289.369 19.4915C289.137 19.0679 288.818 18.6979 288.434 18.4055C286.076 16.7125 281.136 18.4712 279.049 20.0491C278.934 20.1313 277.874 21.1093 277.118 21.8407C277.463 21.3394 277.816 20.8135 278.153 20.3368C279.435 18.5534 280.717 16.9919 281.868 15.6277C282.525 14.8552 283.133 14.1649 283.709 13.5321C284.736 13.5321 288.845 13.5321 290.67 12.7924C292.494 12.0528 294.516 10.5653 295.009 8.57643C295.142 8.11256 295.175 7.62591 295.107 7.1482C295.04 6.67048 294.872 6.2124 294.615 5.8038C294.359 5.3952 294.019 5.04525 293.618 4.77674C293.217 4.50823 292.764 4.32718 292.289 4.24539C289.412 3.83448 285.837 7.6642 284.703 9.99819C284.604 10.1954 283.421 13.5238 283.479 13.5238H283.536C282.969 14.1238 282.369 14.7812 281.72 15.5044C280.545 16.844 279.254 18.3808 277.898 20.1478C276.452 22.0332 275.116 24.0006 273.896 26.0403C272.519 28.3192 271.35 30.7177 270.403 33.2066C270.399 33.2366 270.399 33.2671 270.403 33.297C270.453 32.4752 270.494 30.0672 270.477 29.8782C270.239 27.2977 268.258 22.4818 265.423 21.8161C264.947 21.7205 264.456 21.7268 263.983 21.8343C263.509 21.9418 263.064 22.1483 262.676 22.4401C262.288 22.7319 261.966 23.1025 261.731 23.5275C261.496 23.9525 261.354 24.4223 261.314 24.9062C261.1 26.8621 262.506 28.9742 263.903 30.3056Z" fill="#263238"/>
<path d="M187.744 59.5461C189.881 58.7242 193.497 55.1493 193.497 55.1493C193.497 55.1493 190.398 53.5056 190.209 53.4152C187.785 52.503 182.558 52.166 180.75 54.4425C180.461 54.8278 180.256 55.2696 180.148 55.7393C180.041 56.209 180.033 56.6961 180.126 57.1688C180.219 57.6416 180.411 58.0896 180.688 58.4835C180.965 58.8775 181.323 59.2087 181.736 59.4557C183.421 60.5651 185.928 60.2035 187.744 59.5461Z" fill="#263238"/>
<path d="M225.737 24.6435C225.794 24.6435 224.093 21.5534 223.929 21.3562C222.409 19.2523 218.234 16.0883 215.472 16.9841C215.018 17.146 214.602 17.4018 214.253 17.735C213.904 18.0683 213.629 18.4713 213.446 18.9179C213.263 19.3646 213.176 19.8447 213.191 20.3272C213.206 20.8096 213.322 21.2834 213.533 21.7178C214.355 23.5998 216.639 24.6928 218.529 25.1366C220.716 25.6872 225.737 24.6435 225.737 24.6435Z" fill="#263238"/>
<path d="M199.241 68.9888C201.025 67.715 203.391 63.614 203.58 63.2853C205.923 64.6447 208.352 65.8472 210.854 66.8849C212.308 67.5013 213.796 68.0683 215.291 68.6272C214.568 68.471 213.919 68.3395 213.829 68.3313C211.248 68.093 206.112 69.1532 204.969 71.8241C204.793 72.273 204.713 72.754 204.734 73.2358C204.755 73.7177 204.878 74.1896 205.093 74.6212C205.309 75.0528 205.612 75.4342 205.984 75.741C206.357 76.0477 206.789 76.2728 207.254 76.4017C209.21 77.0098 211.536 76.0154 213.114 74.8895C214.692 73.7636 216.804 70.2873 217.338 69.3668L219.064 69.9914C221.833 70.9694 224.603 71.9391 227.282 72.9664C228.227 73.3363 229.139 73.7225 230.06 74.117C229.427 73.9773 228.885 73.8704 228.802 73.8622C226.214 73.6239 221.085 74.6841 219.943 77.3468C219.764 77.7955 219.681 78.2769 219.701 78.7597C219.72 79.2425 219.841 79.7158 220.056 80.1485C220.271 80.5813 220.575 80.9639 220.948 81.2713C221.32 81.5787 221.754 81.8041 222.219 81.9326C224.184 82.5407 226.501 81.5463 228.079 80.4204C229.657 79.2945 231.564 76.1551 232.188 75.0621C233.117 75.4894 234.054 75.8839 234.933 76.3688C235.525 76.6975 236.125 76.9687 236.708 77.3303L238.434 78.3494C239.511 79.0397 240.62 79.7383 241.648 80.4369C242.371 80.9217 243.053 81.3902 243.735 81.8668C242.798 81.497 240.949 80.8067 240.785 80.7656C238.27 80.1328 233.035 80.3958 231.498 82.8695C231.255 83.2857 231.103 83.7484 231.05 84.2275C230.998 84.7065 231.047 85.1912 231.194 85.6501C231.342 86.1089 231.584 86.5317 231.905 86.8908C232.226 87.2499 232.62 87.5375 233.059 87.7347C234.909 88.6387 237.349 88.0059 239.083 87.1348C240.982 86.1732 243.85 82.6311 244.203 82.2038C245.329 83.0256 246.422 83.7653 247.441 84.5131C250.408 86.6827 252.882 88.6223 254.764 90.1673L256.169 88.8277C254.205 87.2909 251.592 85.3103 248.444 83.0749C247.302 82.2531 246.061 81.4313 244.779 80.6094C245.386 79.2725 245.913 77.9003 246.357 76.5003C248.543 76.6318 252.594 75.3497 253.12 75.1854C253.63 76.4592 254.115 77.7084 254.55 78.9C255.799 82.2777 256.769 85.2199 257.492 87.521L259.021 86.0499C258.281 83.8885 257.328 81.2505 256.153 78.2837C255.643 76.9852 255.076 75.6045 254.468 74.1745C254.945 73.8787 258.799 71.4378 259.974 69.6545C261.043 68.0108 261.955 65.6768 261.273 63.7455C261.128 63.2851 260.887 62.8605 260.567 62.4992C260.247 62.138 259.854 61.8483 259.414 61.649C258.975 61.4497 258.498 61.3453 258.015 61.3427C257.533 61.34 257.055 61.439 256.613 61.6334C253.983 62.8662 253.12 68.0355 253.457 70.6078C253.457 70.7639 253.868 72.3829 254.139 73.402C253.893 72.8267 253.654 72.2679 253.391 71.6762C252.882 70.5092 252.331 69.3586 251.748 68.1176C251.452 67.5259 251.14 66.9342 250.836 66.3343C250.531 65.7343 250.153 65.1344 249.817 64.518C248.995 63.1292 248.099 61.7567 247.162 60.4089C248.189 59.9569 251.797 58.305 253.104 56.8586C254.411 55.4122 255.66 53.2343 255.273 51.2209C255.201 50.7435 255.028 50.2868 254.767 49.8806C254.506 49.4743 254.163 49.1277 253.759 48.8632C253.355 48.5988 252.899 48.4225 252.423 48.3459C251.946 48.2692 251.458 48.294 250.992 48.4184C248.206 49.2403 246.562 54.2205 246.505 56.8175C246.505 56.9819 246.669 58.8474 246.776 59.8665C246.209 59.0447 245.65 58.2228 245.05 57.401C243.308 55.0752 241.483 52.7741 239.667 50.473C239.108 49.7662 238.557 49.0595 238.023 48.3445C238.385 48.1883 242.716 46.3145 244.179 44.7038C245.477 43.2656 246.735 41.0713 246.357 39.0578C246.283 38.5803 246.11 38.1236 245.848 37.7176C245.586 37.3116 245.241 36.9655 244.836 36.7018C244.431 36.4381 243.975 36.2628 243.498 36.1873C243.021 36.1117 242.533 36.1378 242.067 36.2636C239.289 37.0854 237.645 42.0657 237.588 44.6627C237.588 44.8517 237.826 47.5391 237.916 48.2212C236.708 46.6597 235.517 45.09 234.407 43.5039C232.894 41.3626 231.521 39.1253 230.298 36.806C230.462 36.732 234.999 34.8007 236.495 33.1406C237.793 31.7107 239.051 29.5164 238.673 27.5029C238.598 27.0258 238.423 26.5697 238.161 26.1641C237.899 25.7585 237.555 25.4125 237.15 25.1484C236.746 24.8842 236.291 24.7079 235.814 24.6307C235.337 24.5536 234.85 24.5773 234.383 24.7005C231.597 25.5223 229.961 30.5108 229.904 33.0996C229.904 33.2721 230.076 35.3185 230.191 36.2882L230.027 36.3376C228.862 33.9609 227.911 31.4858 227.183 28.9411C226.764 27.5522 226.444 26.2044 226.156 24.8813C227.044 24.6019 231.046 23.3034 232.566 21.9638C234.087 20.6242 235.508 18.6765 235.344 16.5972C235.327 16.112 235.208 15.6358 234.995 15.1998C234.781 14.7639 234.478 14.378 234.104 14.0676C233.731 13.7572 233.296 13.5292 232.829 13.3986C232.361 13.268 231.871 13.2378 231.391 13.3099C228.531 13.8277 226.362 18.5943 226.016 21.1666C226.016 21.3063 225.959 22.7527 225.951 23.8047C225.836 23.2047 225.696 22.5884 225.597 22.0131C225.203 19.8435 224.981 17.8464 224.775 16.0713C224.677 15.0522 224.611 14.14 224.554 13.2853C225.277 12.5621 228.161 9.62814 228.868 7.77081C229.575 5.91348 229.953 3.46443 228.868 1.72216C228.627 1.30376 228.301 0.940786 227.911 0.656902C227.52 0.373018 227.075 0.174595 226.602 0.0745676C226.13 -0.0254597 225.642 -0.0248456 225.17 0.0763702C224.698 0.177586 224.253 0.37713 223.863 0.661996C221.562 2.43714 221.825 7.67219 222.704 10.113C222.778 10.3185 224.348 13.4825 224.389 13.4496L224.43 13.4003C224.43 14.2222 224.512 15.118 224.586 16.0795C224.734 17.8629 224.915 19.8846 225.26 22.0624C225.602 24.415 226.085 26.745 226.707 29.0397C227.383 31.6137 228.287 34.1221 229.41 36.5348L229.46 36.617C228.876 35.9924 227.2 34.3076 227.06 34.1515C225.038 32.5078 220.173 30.5683 217.749 32.1709C217.353 32.4468 217.019 32.8031 216.77 33.2166C216.52 33.6302 216.361 34.0916 216.302 34.5708C216.243 35.0501 216.286 35.5363 216.428 35.9979C216.569 36.4595 216.807 36.8861 217.124 37.2498C218.423 38.8359 220.905 39.2879 222.877 39.214C225.063 39.14 229.304 37.0279 229.641 36.8553C230.849 39.2853 232.222 41.6302 233.75 43.8737C234.621 45.1886 235.55 46.4789 236.486 47.7692C235.969 47.2432 235.508 46.783 235.435 46.7255C233.413 45.0818 228.548 43.1423 226.123 44.7449C225.727 45.0208 225.393 45.3771 225.144 45.7906C224.895 46.2041 224.735 46.6656 224.676 47.1448C224.618 47.624 224.66 48.1103 224.802 48.5719C224.944 49.0335 225.181 49.4601 225.499 49.8238C226.797 51.4099 229.279 51.8619 231.251 51.7961C233.224 51.7304 236.864 49.9963 237.826 49.5197C238.196 50.0128 238.549 50.5059 238.919 50.9907C240.686 53.3412 242.461 55.6752 244.129 58.0092C244.721 58.831 245.272 59.6528 245.822 60.4746L244.91 59.5624C242.888 57.9188 238.023 55.9875 235.599 57.5818C235.203 57.8577 234.869 58.214 234.62 58.6276C234.37 59.0411 234.211 59.5025 234.152 59.9818C234.093 60.461 234.136 60.9473 234.278 61.4089C234.419 61.8705 234.657 62.297 234.974 62.6607C236.265 64.2551 238.755 64.7071 240.727 64.6331C242.699 64.5591 245.987 62.9894 247.129 62.447C247.672 63.3182 248.214 64.1893 248.699 65.0522C249.011 65.6522 249.356 66.211 249.644 66.8274C249.932 67.4437 250.236 68.0355 250.523 68.6354C251.041 69.8024 251.575 71.0023 252.052 72.1528C252.389 72.9747 252.693 73.7225 253.005 74.495C252.43 73.6732 251.263 72.0295 251.156 71.9474C249.55 70.3221 247.556 69.134 245.362 68.4957C245.194 68.3069 245.007 68.1361 244.803 67.9862C244.427 67.6823 243.992 67.4613 243.525 67.3373C243.058 67.2134 242.569 67.1895 242.092 67.267C241.615 67.3446 241.16 67.5219 240.756 67.7875C240.353 68.053 240.009 68.4007 239.749 68.808C238.245 71.2735 240.365 76.0812 242.067 78.0371C242.165 78.1522 243.398 79.2863 244.179 79.9931C243.653 79.6479 243.151 79.311 242.609 78.9658C241.532 78.2754 240.439 77.6098 239.272 76.903L237.522 75.9168C236.947 75.5716 236.289 75.284 235.673 74.9717C234.218 74.2567 232.714 73.6075 231.186 72.9829C231.786 72.046 233.881 68.6765 234.177 66.7534C234.473 64.8303 234.309 62.3155 232.879 60.8445C232.556 60.4855 232.161 60.1985 231.72 60.002C231.279 59.8055 230.801 59.704 230.319 59.704C229.836 59.704 229.358 59.8055 228.917 60.002C228.476 60.1985 228.082 60.4855 227.759 60.8445C225.893 63.0716 227.274 68.1259 228.654 70.3201C228.737 70.4599 229.912 71.9638 230.569 72.7117C229.641 72.3501 228.72 71.9802 227.775 71.6351C225.047 70.6571 222.252 69.7449 219.466 68.8244L216.919 68.0026C217.132 67.6739 219.713 63.7209 220.042 61.5595C220.329 59.6446 220.173 57.1216 218.743 55.6587C218.42 55.2998 218.025 55.0128 217.584 54.8163C217.143 54.6198 216.666 54.5183 216.183 54.5183C215.7 54.5183 215.223 54.6198 214.782 54.8163C214.341 55.0128 213.946 55.2998 213.623 55.6587C211.758 57.8859 213.138 62.9484 214.519 65.1426C214.618 65.307 216.302 67.4109 216.763 67.9286C214.889 67.2876 213.031 66.6466 211.232 65.9316C208.792 64.9867 206.415 63.8888 204.115 62.6443C204.213 62.4881 206.925 58.3708 207.262 56.1683C207.558 54.2534 207.394 51.7304 205.964 50.2593C205.641 49.9004 205.246 49.6134 204.805 49.4169C204.364 49.2204 203.887 49.1189 203.404 49.1189C202.921 49.1189 202.444 49.2204 202.002 49.4169C201.561 49.6134 201.167 49.9004 200.844 50.2593C198.978 52.4865 200.359 57.5407 201.74 59.735C201.83 59.8829 203.112 61.4855 203.737 62.2005L203.63 62.332C201.353 61.0004 199.2 59.4684 197.195 57.7544C196.077 56.8257 195.058 55.8724 194.097 54.9273C194.68 54.2123 197.31 50.9168 197.828 48.9691C198.345 47.0213 198.452 44.5723 197.187 42.9533C196.904 42.5623 196.542 42.2353 196.124 41.9936C195.706 41.752 195.242 41.601 194.762 41.5506C194.282 41.5002 193.797 41.5515 193.338 41.7011C192.88 41.8508 192.457 42.0954 192.099 42.4191C189.996 44.4326 190.817 49.6101 191.943 51.9441C192.009 52.0673 192.765 53.2919 193.349 54.1712C192.921 53.7357 192.469 53.3001 192.067 52.8727C190.546 51.2866 189.248 49.7416 188.122 48.3609C187.481 47.5391 186.922 46.8405 186.396 46.1584C186.61 45.1558 187.39 41.1206 186.963 39.1811C186.536 37.2416 185.484 34.9898 183.618 34.1351C183.17 33.9146 182.679 33.7944 182.179 33.7827C181.679 33.7711 181.183 33.8684 180.725 34.0678C180.267 34.2672 179.857 34.564 179.525 34.9375C179.193 35.311 178.947 35.7523 178.802 36.2307C177.865 38.9838 180.972 43.1998 183.051 44.7531C183.232 44.8846 186.281 46.6597 186.297 46.6104C186.314 46.5611 186.297 46.5611 186.297 46.5447C186.782 47.2186 187.308 47.9335 187.941 48.6978C189.042 50.1032 190.308 51.6811 191.795 53.3083C193.381 55.0821 195.068 56.7615 196.85 58.3379C198.836 60.1099 200.976 61.7022 203.243 63.0963H203.334C202.512 62.899 200.17 62.4059 199.989 62.3895C197.409 62.1512 192.272 63.2113 191.13 65.8741C190.952 66.3234 190.871 66.8052 190.891 67.288C190.912 67.7708 191.034 68.2438 191.25 68.6764C191.465 69.1089 191.769 69.4912 192.142 69.7985C192.515 70.1058 192.949 70.3311 193.414 70.4599C195.346 71.1091 197.704 70.1147 199.241 68.9888Z" fill="#263238"/>
<path d="M66.0804 305.396C67.609 305.922 70.1895 308.445 70.1895 308.445C70.1895 308.445 68.0035 309.669 67.8555 309.727C66.1379 310.417 62.415 310.738 61.0919 309.143C60.882 308.872 60.7311 308.559 60.6489 308.226C60.5667 307.893 60.555 307.546 60.6146 307.208C60.6741 306.87 60.8036 306.548 60.9948 306.263C61.186 305.978 61.4346 305.736 61.7247 305.552C62.9821 304.73 64.7737 304.944 66.0804 305.396Z" fill="#263238"/>
<path d="M93.6857 329.713C93.6857 329.713 92.5351 331.941 92.4447 332.072C91.3928 333.592 88.4588 335.91 86.4782 335.31C86.1532 335.199 85.8548 335.022 85.6022 334.79C85.3496 334.557 85.1484 334.274 85.0114 333.959C84.8745 333.644 84.8048 333.304 84.8069 332.961C84.809 332.618 84.8828 332.278 85.0236 331.965C85.5907 330.617 87.1932 329.804 88.5328 329.459C90.1025 329.056 93.6857 329.713 93.6857 329.713Z" fill="#263238"/>
<path d="M74.1344 298.536C75.4246 299.415 77.1751 302.308 77.3148 302.538C78.9652 301.531 80.6812 300.636 82.4513 299.859C83.4785 299.407 84.5305 298.971 85.5824 298.56C85.0729 298.675 84.6127 298.782 84.5469 298.782C82.7142 298.996 79.0407 298.322 78.1778 296.432C78.0486 296.115 77.987 295.774 77.9967 295.432C78.0064 295.09 78.0872 294.753 78.2341 294.444C78.381 294.135 78.5907 293.859 78.8499 293.636C79.109 293.412 79.4119 293.245 79.7392 293.144C81.1281 292.676 82.7964 293.35 83.9388 294.131C85.0811 294.911 86.6426 297.36 87.0371 298.01L88.2616 297.533C90.2175 296.793 92.1735 296.062 94.0719 295.289C94.7458 295.018 95.3951 294.722 96.0443 294.468L95.1485 294.665C93.3076 294.87 89.6341 294.196 88.7794 292.306C88.6502 291.989 88.5885 291.649 88.5982 291.306C88.608 290.964 88.6888 290.628 88.8357 290.318C88.9826 290.009 89.1923 289.734 89.4514 289.51C89.7106 289.286 90.0135 289.119 90.3408 289.019C91.7215 288.55 93.3898 289.232 94.5321 290.005C95.6745 290.778 97.0798 292.996 97.5647 293.769C98.2139 293.448 98.8796 293.128 99.496 292.791C99.9151 292.553 100.318 292.347 100.745 292.084L101.961 291.328C102.718 290.827 103.507 290.301 104.23 289.791L105.66 288.674C104.994 288.953 103.687 289.495 103.572 289.495C101.789 289.98 98.0496 289.865 96.9237 288.131C96.7454 287.837 96.6307 287.509 96.5869 287.167C96.5432 286.826 96.5714 286.479 96.6697 286.149C96.768 285.82 96.9343 285.514 97.1578 285.253C97.3813 284.991 97.657 284.779 97.9674 284.63C99.2659 283.965 101.016 284.375 102.266 284.975C103.515 285.575 105.725 288.115 105.988 288.427C106.81 287.852 107.55 287.277 108.265 286.734C110.344 285.14 112.078 283.71 113.401 282.625L114.42 283.562C113.04 284.68 111.207 286.134 108.996 287.745C108.174 288.337 107.353 288.953 106.424 289.569C106.875 290.513 107.27 291.481 107.607 292.47C109.251 292.521 110.88 292.797 112.448 293.292C112.793 292.372 113.122 291.476 113.41 290.621C114.231 288.197 114.905 286.085 115.382 284.433L116.491 285.452C115.998 287.005 115.357 288.904 114.568 291.041C114.223 291.969 113.837 292.964 113.426 293.983C113.771 294.18 116.557 295.865 117.42 297.122C118.283 298.379 118.891 299.924 118.431 301.313C118.332 301.642 118.166 301.947 117.943 302.208C117.72 302.469 117.445 302.68 117.136 302.829C116.827 302.977 116.489 303.06 116.146 303.07C115.803 303.081 115.462 303.02 115.144 302.891C113.253 302.069 112.555 298.371 112.752 296.53C112.752 296.423 113.023 295.265 113.204 294.533C113.031 294.944 112.875 295.355 112.695 295.774C112.349 296.596 111.971 297.418 111.577 298.338C111.371 298.757 111.166 299.16 110.952 299.62C110.739 300.081 110.484 300.492 110.254 300.927C109.687 301.938 109.07 302.924 108.421 303.91C109.161 304.223 111.758 305.349 112.711 306.376C113.664 307.403 114.585 308.923 114.355 310.37C114.307 310.709 114.188 311.035 114.008 311.326C113.827 311.617 113.587 311.868 113.304 312.061C113.021 312.254 112.701 312.386 112.364 312.449C112.027 312.512 111.68 312.503 111.347 312.424C109.35 311.882 108.101 308.356 108.059 306.507C108.059 306.392 108.142 305.061 108.207 304.329C107.813 304.921 107.386 305.505 107.007 306.088C105.799 307.773 104.542 309.441 103.268 311.11C102.882 311.619 102.504 312.137 102.126 312.646C102.389 312.753 105.504 314.027 106.572 315.161C107.517 316.164 108.446 317.709 108.216 319.147C108.168 319.487 108.049 319.814 107.868 320.106C107.687 320.398 107.446 320.648 107.162 320.842C106.878 321.035 106.557 321.167 106.219 321.229C105.881 321.291 105.534 321.282 105.199 321.202C103.202 320.659 101.961 317.134 101.912 315.284C101.912 315.145 102.035 313.23 102.093 312.745C101.271 313.871 100.449 315.005 99.6275 316.156C98.5852 317.706 97.641 319.32 96.8004 320.988C96.9237 321.037 100.186 322.352 101.279 323.511C102.224 324.514 103.153 326.059 102.923 327.505C102.875 327.845 102.757 328.172 102.575 328.464C102.394 328.755 102.154 329.006 101.87 329.2C101.586 329.393 101.264 329.525 100.926 329.587C100.588 329.649 100.241 329.64 99.9069 329.56C97.9099 329.009 96.6689 325.45 96.6196 323.642C96.6196 323.519 96.71 322.056 96.7757 321.366H96.6607C95.8653 323.069 95.2245 324.841 94.7458 326.659C94.4664 327.653 94.2527 328.623 94.0719 329.576C94.7047 329.757 97.5811 330.62 98.6824 331.557C99.7836 332.494 100.827 333.882 100.745 335.337C100.735 335.68 100.654 336.018 100.506 336.328C100.358 336.638 100.146 336.914 99.8857 337.137C99.6249 337.361 99.3203 337.527 98.9914 337.626C98.6625 337.725 98.3165 337.755 97.9756 337.712C95.9292 337.392 94.3102 334.022 94.0226 332.198C94.0226 332.099 93.9651 331.072 93.9404 330.316C93.8665 330.751 93.7761 331.187 93.7185 331.598C93.472 333.151 93.3405 334.581 93.2337 335.847C93.1761 336.57 93.1433 337.227 93.1186 337.835C93.6446 338.345 95.7402 340.391 96.2744 341.706C96.8086 343.021 97.0962 344.755 96.3648 346.013C96.1969 346.312 95.9684 346.572 95.694 346.778C95.4196 346.984 95.1052 347.13 94.7711 347.207C94.437 347.285 94.0904 347.291 93.7535 347.227C93.4166 347.163 93.0968 347.029 92.8145 346.834C91.1709 345.61 91.253 341.903 91.8448 340.12C91.9023 339.964 92.9707 337.655 92.9953 337.712C92.9953 337.12 92.9953 336.488 93.0693 335.797C93.1432 334.523 93.2419 333.085 93.4555 331.532C93.6705 329.85 93.9806 328.182 94.3842 326.535C94.8298 324.688 95.4375 322.884 96.2005 321.144C96.2032 321.125 96.2032 321.106 96.2005 321.087C95.7978 321.539 94.6308 322.771 94.5568 322.853C93.135 324.045 89.6998 325.508 87.9411 324.407C87.656 324.214 87.4144 323.964 87.2318 323.672C87.0493 323.381 86.9298 323.054 86.881 322.713C86.8322 322.373 86.8553 322.026 86.9487 321.695C87.0421 321.364 87.2038 321.056 87.4233 320.791C88.3273 319.64 90.0861 319.287 91.4749 319.303C93.0282 319.303 96.0854 320.774 96.3237 320.889C97.1314 319.132 98.0538 317.43 99.0851 315.794C99.6932 314.841 100.334 313.904 100.983 312.975C100.622 313.353 100.293 313.69 100.244 313.731C98.8303 314.923 95.3868 316.386 93.6692 315.284C93.3842 315.092 93.1426 314.842 92.96 314.55C92.7774 314.258 92.6579 313.932 92.6091 313.591C92.5604 313.251 92.5834 312.904 92.6768 312.572C92.7702 312.241 92.9319 311.933 93.1515 311.668C94.0473 310.518 95.8142 310.164 97.1949 310.181C98.5755 310.197 101.23 311.381 101.92 311.701L102.676 310.641C103.901 308.94 105.142 307.247 106.293 305.554C106.695 304.962 107.114 304.354 107.46 303.754C107.139 304.091 106.868 304.379 106.818 304.412C105.397 305.603 101.961 307.066 100.244 305.965C99.96 305.772 99.7196 305.522 99.5378 305.231C99.356 304.941 99.237 304.615 99.1882 304.275C99.1395 303.936 99.1622 303.59 99.2548 303.259C99.3474 302.929 99.5079 302.622 99.7261 302.357C100.622 301.198 102.389 300.845 103.769 300.861C105.15 300.878 107.542 301.946 108.364 302.324C108.742 301.7 109.111 301.075 109.448 300.45C109.662 300.015 109.9 299.629 110.098 299.168C110.295 298.708 110.5 298.297 110.698 297.87C111.043 297.048 111.412 296.16 111.733 295.339C111.963 294.763 112.169 294.213 112.374 293.654C111.98 294.254 111.174 295.404 111.092 295.495C109.979 296.681 108.577 297.559 107.024 298.042C106.903 298.176 106.771 298.3 106.629 298.412C106.366 298.633 106.06 298.796 105.729 298.892C105.399 298.987 105.053 299.012 104.712 298.966C104.372 298.919 104.045 298.802 103.752 298.622C103.46 298.442 103.208 298.202 103.013 297.919C101.904 296.169 103.35 292.725 104.526 291.295C104.6 291.213 105.454 290.391 106.005 289.874C105.635 290.128 105.282 290.375 104.895 290.63C104.148 291.139 103.375 291.624 102.553 292.15L101.32 292.881C100.918 293.136 100.449 293.35 100.014 293.58C98.9947 294.114 97.9263 294.599 96.8415 295.059C97.2853 295.725 98.8303 298.1 99.0686 299.464C99.307 300.828 99.233 302.628 98.2468 303.697C98.0192 303.954 97.7403 304.161 97.4279 304.304C97.1156 304.448 96.7768 304.524 96.4333 304.529C96.0897 304.533 95.7489 304.466 95.4329 304.331C95.1168 304.196 94.8324 303.997 94.5979 303.746C93.2419 302.184 94.1459 298.56 95.0992 296.974C95.1567 296.875 95.9703 295.815 96.4223 295.24C95.7731 295.519 95.1239 295.791 94.45 296.062C92.5187 296.802 90.5381 297.492 88.5657 298.19C87.9657 298.396 87.3658 298.618 86.7659 298.84C86.922 299.07 88.8204 301.848 89.0834 303.384C89.3218 304.74 89.2478 306.54 88.2616 307.609C88.0346 307.865 87.7566 308.072 87.4454 308.215C87.1341 308.358 86.7965 308.435 86.4539 308.44C86.1114 308.446 85.7715 308.38 85.4559 308.246C85.1403 308.113 84.8559 307.915 84.6209 307.666C83.2567 306.105 84.1607 302.48 85.114 300.894C85.1797 300.771 86.3549 299.251 86.6672 298.873C85.3441 299.357 84.0292 299.842 82.7553 300.385C81.0278 301.092 79.3501 301.916 77.734 302.85C77.8079 302.957 79.7968 305.85 80.0762 307.42C80.3063 308.776 80.2323 310.575 79.2544 311.644C79.0273 311.902 78.7488 312.109 78.4368 312.253C78.1248 312.397 77.7862 312.474 77.4426 312.48C77.099 312.485 76.7581 312.419 76.4417 312.285C76.1254 312.151 75.8405 311.952 75.6054 311.701C74.2412 310.14 75.1452 306.516 76.0985 304.929C76.1643 304.823 77.0519 303.664 77.4874 303.121L77.4052 303.031C75.8019 304.012 74.2892 305.134 72.8852 306.384C72.1044 307.066 71.3977 307.756 70.7238 308.447C71.1429 308.948 73.066 311.257 73.4687 312.638C73.8714 314.019 73.9782 315.769 73.1071 316.936C72.9093 317.218 72.6548 317.455 72.3599 317.632C72.0651 317.809 71.7364 317.923 71.3951 317.965C71.0537 318.008 70.7072 317.978 70.3779 317.879C70.0486 317.78 69.7437 317.613 69.4828 317.388C67.9542 315.991 68.4555 312.293 69.228 310.608C69.2691 310.518 69.8033 309.638 70.1978 308.965C69.902 309.277 69.5814 309.597 69.302 309.91C68.2419 311.06 67.3461 312.186 66.5571 313.197C66.1133 313.764 65.7353 314.298 65.3655 314.791C65.5298 315.498 66.1462 318.366 65.8668 319.722C65.5874 321.078 64.8806 322.73 63.5574 323.363C63.2532 323.521 62.9194 323.614 62.5773 323.635C62.2352 323.657 61.8923 323.607 61.5706 323.489C61.2489 323.37 60.9554 323.186 60.7088 322.948C60.4622 322.71 60.2681 322.423 60.1386 322.106C59.4319 320.158 61.585 317.101 63.0397 315.967C63.1712 315.868 65.3161 314.561 65.3244 314.594C65.6613 314.109 66.0311 313.591 66.4421 313.041C67.2064 312.022 68.0857 310.871 69.1212 309.696C70.2277 308.41 71.4076 307.189 72.6551 306.039C74.0223 304.782 75.4962 303.646 77.0601 302.645H77.1176C76.5341 302.801 74.874 303.187 74.7507 303.204C72.9098 303.409 69.2363 302.735 68.3816 300.845C68.2523 300.528 68.1903 300.188 68.1995 299.847C68.2086 299.505 68.2888 299.169 68.4349 298.859C68.5809 298.55 68.7897 298.275 69.048 298.051C69.3062 297.827 69.6082 297.659 69.9348 297.558C71.3237 297.04 72.992 297.714 74.1344 298.536Z" fill="#263238"/>
<path d="M115.867 317.15C117.379 316.55 121.011 316.764 121.011 316.764C121.011 316.764 120.14 319.114 120.066 319.229C119.244 320.873 116.59 323.527 114.544 323.174C114.208 323.103 113.891 322.964 113.612 322.764C113.334 322.564 113.1 322.308 112.926 322.012C112.752 321.717 112.642 321.388 112.602 321.048C112.562 320.707 112.593 320.362 112.694 320.034C113.056 318.654 114.585 317.651 115.867 317.15Z" fill="#263238"/>
<path d="M152.652 317.684C152.652 317.684 153.227 320.149 153.243 320.281C153.433 322.121 152.718 325.787 150.778 326.617C150.459 326.745 150.116 326.806 149.772 326.794C149.428 326.782 149.091 326.698 148.781 326.548C148.471 326.398 148.197 326.185 147.974 325.922C147.752 325.659 147.587 325.353 147.491 325.023C147.039 323.634 147.737 321.965 148.526 320.839C149.504 319.508 152.652 317.684 152.652 317.684Z" fill="#263238"/>
<path d="M117.502 306.66C119.056 306.496 122.261 307.556 122.515 307.638C123.118 305.801 123.843 304.005 124.685 302.264C125.162 301.253 125.688 300.242 126.214 299.239C125.91 299.658 125.622 300.061 125.581 300.061C124.315 301.409 121.085 303.291 119.212 302.412C118.905 302.256 118.634 302.037 118.416 301.77C118.199 301.504 118.04 301.194 117.949 300.862C117.859 300.53 117.839 300.182 117.89 299.842C117.942 299.502 118.065 299.176 118.25 298.886C118.998 297.637 120.716 297.062 122.08 296.914C123.444 296.766 126.23 297.604 126.962 297.842L127.578 296.692C128.589 294.851 129.6 293.026 130.536 291.202C130.873 290.561 131.169 289.92 131.473 289.271C131.202 289.649 130.964 289.961 130.923 290.002C129.665 291.358 126.427 293.232 124.554 292.352C124.248 292.197 123.978 291.978 123.761 291.712C123.545 291.446 123.386 291.137 123.295 290.806C123.205 290.475 123.185 290.129 123.236 289.789C123.287 289.45 123.408 289.125 123.592 288.835C124.348 287.578 126.057 287.011 127.43 286.863C128.802 286.715 131.309 287.471 132.172 287.75C132.46 287.076 132.755 286.411 132.994 285.745C133.158 285.293 133.347 284.866 133.479 284.397C133.61 283.929 133.774 283.485 133.914 283.033C134.161 282.154 134.415 281.258 134.637 280.395C134.794 279.795 134.925 279.22 135.065 278.644C134.744 279.285 134.087 280.535 134.021 280.633C132.977 282.162 130.068 284.504 128.079 283.92C127.753 283.812 127.453 283.637 127.198 283.406C126.944 283.175 126.74 282.894 126.601 282.58C126.462 282.265 126.39 281.926 126.39 281.582C126.389 281.238 126.461 280.898 126.6 280.584C127.151 279.236 128.753 278.406 130.093 278.053C131.564 277.658 134.761 278.184 135.163 278.25C135.393 277.297 135.607 276.368 135.788 275.489C136.339 272.924 136.725 270.714 137.004 268.996L138.385 269.054C138.073 270.796 137.621 273.089 136.988 275.752C136.758 276.721 136.503 277.757 136.224 278.817C137.178 279.236 138.106 279.714 139.001 280.247C140.289 279.234 141.71 278.404 143.225 277.781C142.889 276.853 142.552 275.965 142.223 275.127C141.286 272.735 140.407 270.706 139.692 269.136L141.204 269.193C141.837 270.697 142.584 272.546 143.365 274.691C143.719 275.62 144.064 276.631 144.417 277.666C144.812 277.601 148.017 277.066 149.488 277.453C150.827 277.806 152.43 278.628 152.989 279.984C153.128 280.298 153.199 280.638 153.199 280.982C153.199 281.326 153.127 281.665 152.988 281.98C152.848 282.294 152.645 282.575 152.39 282.806C152.136 283.037 151.836 283.212 151.51 283.321C149.521 283.912 146.579 281.57 145.568 280.033C145.502 279.943 144.943 278.891 144.606 278.225C144.746 278.644 144.886 279.047 145.025 279.499C145.305 280.362 145.568 281.233 145.847 282.17C145.962 282.63 146.085 283.09 146.201 283.551C146.316 284.011 146.414 284.52 146.521 285.005C146.743 286.131 146.924 287.29 147.072 288.457C147.828 288.21 150.532 287.38 151.912 287.528C153.293 287.676 154.994 288.243 155.75 289.501C155.934 289.79 156.056 290.115 156.108 290.454C156.16 290.793 156.14 291.139 156.05 291.47C155.96 291.801 155.803 292.11 155.587 292.376C155.371 292.643 155.102 292.861 154.797 293.018C152.923 293.906 149.685 292.032 148.428 290.684C148.345 290.594 147.548 289.525 147.121 288.925C147.203 289.632 147.294 290.331 147.359 291.046C147.54 293.109 147.655 295.204 147.787 297.292C147.787 297.933 147.869 298.565 147.91 299.207C148.181 299.116 151.378 298.056 152.923 298.22C154.296 298.368 156.005 298.935 156.761 300.184C156.947 300.474 157.07 300.799 157.122 301.139C157.174 301.479 157.155 301.826 157.065 302.158C156.976 302.491 156.817 302.8 156.601 303.067C156.384 303.335 156.114 303.554 155.808 303.71C153.934 304.589 150.696 302.724 149.43 301.368C149.34 301.269 148.189 299.724 147.918 299.322C148.017 300.727 148.124 302.124 148.288 303.496C148.504 305.351 148.836 307.19 149.282 309.003C149.414 308.962 152.742 307.844 154.32 308.017C155.693 308.156 157.402 308.731 158.158 309.981C158.344 310.27 158.467 310.596 158.519 310.935C158.572 311.275 158.552 311.623 158.462 311.955C158.373 312.287 158.214 312.596 157.998 312.864C157.781 313.131 157.511 313.35 157.205 313.506C155.331 314.386 152.093 312.52 150.836 311.164C150.753 311.074 149.874 309.898 149.471 309.331L149.365 309.381C149.866 311.196 150.532 312.962 151.353 314.657C151.789 315.594 152.257 316.465 152.734 317.303C153.334 317.032 156.087 315.816 157.525 315.816C158.963 315.816 160.673 316.185 161.552 317.352C161.767 317.62 161.924 317.929 162.012 318.26C162.101 318.591 162.12 318.937 162.067 319.276C162.015 319.614 161.892 319.938 161.707 320.227C161.522 320.516 161.279 320.763 160.993 320.952C159.226 322.037 155.808 320.533 154.419 319.308C154.345 319.243 153.597 318.487 153.137 317.936C153.359 318.306 153.581 318.7 153.802 319.054C154.624 320.393 155.446 321.56 156.194 322.596C156.621 323.179 157.016 323.697 157.402 324.182C158.125 324.182 161.051 324.412 162.333 325.061C163.615 325.71 164.946 326.845 165.201 328.283C165.269 328.62 165.267 328.967 165.193 329.303C165.119 329.639 164.975 329.955 164.772 330.232C164.568 330.509 164.309 330.741 164.011 330.912C163.712 331.083 163.382 331.189 163.04 331.225C160.977 331.373 158.627 328.464 157.936 326.746C157.879 326.598 157.213 324.174 157.254 324.174H157.295C156.917 323.722 156.523 323.229 156.104 322.678C155.331 321.659 154.46 320.5 153.638 319.177C152.707 317.762 151.859 316.294 151.099 314.78C150.237 313.088 149.527 311.322 148.978 309.504C148.978 309.504 148.978 309.455 148.978 309.438C148.978 310.046 148.88 311.739 148.855 311.904C148.551 313.728 146.891 317.073 144.844 317.377C144.503 317.416 144.157 317.383 143.829 317.281C143.5 317.178 143.197 317.008 142.939 316.781C142.68 316.554 142.472 316.276 142.328 315.964C142.183 315.652 142.105 315.313 142.1 314.969C142.034 313.506 143.143 312.085 144.203 311.205C145.403 310.211 148.666 309.323 148.929 309.249C148.416 307.387 148.029 305.493 147.77 303.579C147.614 302.461 147.491 301.335 147.376 300.201C147.376 300.727 147.326 301.195 147.31 301.261C147.006 303.086 145.346 306.43 143.299 306.734C142.951 306.781 142.596 306.753 142.259 306.651C141.922 306.55 141.61 306.377 141.346 306.145C141.081 305.913 140.869 305.627 140.724 305.306C140.579 304.986 140.504 304.637 140.505 304.285C140.439 302.831 141.549 301.409 142.609 300.521C143.669 299.634 146.455 298.82 147.187 298.615C147.187 298.179 147.113 297.744 147.072 297.308C146.899 295.221 146.735 293.141 146.513 291.103C146.439 290.38 146.332 289.673 146.233 288.975C146.233 289.435 146.184 289.797 146.176 289.887C145.872 291.711 144.212 295.064 142.157 295.36C141.816 295.398 141.471 295.364 141.144 295.261C140.817 295.158 140.514 294.987 140.257 294.761C139.999 294.534 139.792 294.256 139.648 293.945C139.504 293.633 139.426 293.295 139.42 292.952C139.355 291.498 140.464 290.076 141.524 289.197C142.584 288.317 145.099 287.553 145.97 287.315C145.847 286.6 145.724 285.876 145.568 285.186C145.453 284.718 145.37 284.257 145.231 283.789L144.836 282.417C144.557 281.545 144.277 280.65 144.014 279.811C143.817 279.228 143.612 278.677 143.415 278.118C143.497 278.833 143.636 280.239 143.636 280.354C143.555 281.978 143.057 283.555 142.19 284.931C142.191 285.113 142.174 285.295 142.141 285.474C142.084 285.813 141.956 286.137 141.767 286.424C141.578 286.711 141.33 286.955 141.041 287.141C140.751 287.327 140.426 287.45 140.086 287.502C139.746 287.555 139.399 287.536 139.067 287.446C137.086 286.838 135.944 283.279 135.919 281.43C135.919 281.324 136.026 280.14 136.117 279.392C135.993 279.82 135.887 280.214 135.763 280.682C135.525 281.562 135.254 282.433 134.941 283.37C134.794 283.814 134.637 284.266 134.481 284.718C134.325 285.17 134.128 285.638 133.947 286.098C133.511 287.167 133.018 288.227 132.501 289.287C133.265 289.501 135.985 290.298 137.054 291.185C138.122 292.073 139.231 293.478 139.166 294.941C139.161 295.285 139.084 295.624 138.941 295.936C138.797 296.249 138.59 296.528 138.332 296.755C138.074 296.983 137.772 297.154 137.444 297.257C137.116 297.361 136.771 297.395 136.429 297.357C134.374 297.053 132.714 293.717 132.402 291.892C132.402 291.777 132.312 290.438 132.287 289.706C131.966 290.339 131.654 290.972 131.309 291.605C130.323 293.421 129.271 295.237 128.219 297.045L127.274 298.689C127.545 298.763 130.799 299.642 131.991 300.628C133.183 301.614 134.169 302.929 134.111 304.392C134.106 304.736 134.028 305.075 133.883 305.387C133.739 305.699 133.531 305.977 133.272 306.204C133.014 306.431 132.711 306.601 132.382 306.704C132.054 306.806 131.708 306.839 131.367 306.8C129.32 306.504 127.652 303.16 127.348 301.335C127.348 301.195 127.216 299.28 127.216 298.787C126.526 300.012 125.844 301.253 125.219 302.477C124.377 304.145 123.639 305.863 123.009 307.622C123.14 307.622 126.534 308.559 127.759 309.57C128.827 310.457 129.937 311.871 129.871 313.334C129.865 313.677 129.787 314.015 129.643 314.326C129.499 314.638 129.292 314.916 129.034 315.142C128.777 315.369 128.475 315.539 128.147 315.642C127.82 315.746 127.475 315.779 127.134 315.742C125.088 315.446 123.419 312.101 123.107 310.277C123.107 310.161 123.009 308.699 122.992 308H122.869C122.29 309.789 121.872 311.626 121.62 313.49C121.463 314.517 121.373 315.503 121.316 316.465C121.965 316.572 124.923 317.073 126.131 317.862C127.34 318.651 128.548 319.908 128.646 321.371C128.678 321.714 128.638 322.059 128.529 322.386C128.42 322.712 128.243 323.011 128.011 323.265C127.779 323.519 127.496 323.722 127.181 323.86C126.865 323.998 126.525 324.068 126.181 324.067C124.11 323.993 122.072 320.853 121.579 319.078C121.579 318.98 121.381 317.961 121.266 317.221C121.266 317.657 121.209 318.109 121.2 318.519C121.143 320.089 121.2 321.527 121.242 322.801C121.242 323.524 121.324 324.174 121.373 324.782C121.957 325.217 124.291 326.993 124.981 328.233C125.671 329.474 126.189 331.159 125.597 332.499C125.469 332.817 125.275 333.105 125.029 333.344C124.783 333.583 124.489 333.768 124.167 333.887C123.846 334.006 123.503 334.057 123.16 334.035C122.818 334.014 122.483 333.922 122.178 333.764C120.37 332.745 120.025 329.022 120.395 327.19C120.395 327.034 121.217 324.642 121.217 324.659C121.159 324.067 121.102 323.434 121.053 322.752C120.97 321.478 120.888 320.032 120.913 318.462C120.914 316.767 121.016 315.074 121.217 313.391C121.436 311.504 121.818 309.64 122.359 307.819V307.754C122.014 308.255 121.003 309.619 120.913 309.718C119.655 311.074 116.426 312.947 114.552 312.068C114.246 311.912 113.976 311.694 113.76 311.428C113.543 311.162 113.384 310.853 113.294 310.522C113.203 310.191 113.183 309.844 113.234 309.505C113.285 309.166 113.406 308.841 113.59 308.551C114.42 307.384 116.13 306.817 117.502 306.66Z" fill="#263238"/>
<path d="M304.674 65.3242H75.1616C72.0434 65.3242 69.5156 67.852 69.5156 70.9702V294.088C69.5156 297.206 72.0434 299.734 75.1616 299.734H304.674C307.792 299.734 310.32 297.206 310.32 294.088V70.9702C310.32 67.852 307.792 65.3242 304.674 65.3242Z" fill="white" stroke="#263238" stroke-linecap="round" stroke-linejoin="round"/>
<path d="M304.83 65.3242H75.0219C73.5629 65.3242 72.1637 65.9032 71.1313 66.9341C70.0989 67.9649 69.5178 69.3633 69.5156 70.8222V80.528H310.295V70.8222C310.293 69.3704 309.717 67.9782 308.694 66.9485C307.67 65.9188 306.282 65.3351 304.83 65.3242Z" fill="#63518C" stroke="#263238" stroke-linecap="round" stroke-linejoin="round"/>
<path d="M81.0707 72.6624C81.0723 73.1113 80.9406 73.5507 80.6924 73.9248C80.4441 74.2989 80.0905 74.5909 79.6761 74.7638C79.2618 74.9367 78.8055 74.9828 78.365 74.8962C77.9244 74.8097 77.5195 74.5943 77.2014 74.2774C76.8834 73.9605 76.6666 73.5563 76.5784 73.1161C76.4902 72.6759 76.5346 72.2194 76.7061 71.8045C76.8775 71.3895 77.1682 71.0348 77.5414 70.7852C77.9146 70.5356 78.3535 70.4023 78.8024 70.4023C79.4019 70.4045 79.9764 70.643 80.401 71.0662C80.8257 71.4893 81.0663 72.0629 81.0707 72.6624Z" fill="white" stroke="#263238" stroke-linecap="round" stroke-linejoin="round"/>
<path d="M90.5792 72.6624C90.5808 73.1113 90.4492 73.5507 90.2009 73.9248C89.9527 74.2989 89.599 74.5909 89.1847 74.7638C88.7704 74.9367 88.314 74.9828 87.8735 74.8962C87.433 74.8097 87.028 74.5943 86.71 74.2774C86.392 73.9605 86.1751 73.5563 86.0869 73.1161C85.9987 72.6759 86.0432 72.2194 86.2146 71.8045C86.386 71.3895 86.6767 71.0348 87.0499 70.7852C87.4231 70.5356 87.862 70.4023 88.311 70.4023C88.9111 70.4023 89.4868 70.6402 89.9119 71.0638C90.3371 71.4874 90.577 72.0622 90.5792 72.6624Z" fill="white" stroke="#263238" stroke-linecap="round" stroke-linejoin="round"/>
<path d="M100.088 72.6624C100.089 73.1117 99.9575 73.5514 99.7089 73.9256C99.4603 74.2999 99.1061 74.5919 98.6913 74.7646C98.2765 74.9373 97.8198 74.9829 97.379 74.8956C96.9383 74.8084 96.5333 74.5922 96.2156 74.2745C95.8979 73.9568 95.6817 73.5519 95.5945 73.1111C95.5072 72.6703 95.5528 72.2136 95.7255 71.7988C95.8982 71.384 96.1902 71.0298 96.5645 70.7812C96.9387 70.5326 97.3784 70.4007 97.8277 70.4024C98.4265 70.4045 99 70.6433 99.4234 71.0667C99.8468 71.4901 100.086 72.0637 100.088 72.6624Z" fill="white" stroke="#263238" stroke-linecap="round" stroke-linejoin="round"/>
<path d="M193.595 108.209V92.8161H190.439V91.082H198.658V92.8161H195.502V108.209H193.595Z" fill="#263238"/>
<path d="M199.841 95.2126C199.841 92.591 201.14 90.9062 203.753 90.9062C206.366 90.9062 207.698 92.5499 207.698 95.2126V104.064C207.698 106.661 206.399 108.37 203.753 108.37C201.107 108.37 199.841 106.661 199.841 104.064V95.2126ZM201.723 104.162C201.723 105.732 202.389 106.628 203.753 106.628C205.117 106.628 205.783 105.724 205.783 104.162V95.1222C205.783 93.5772 205.15 92.6567 203.753 92.6567C202.356 92.6567 201.723 93.5854 201.723 95.1222V104.162Z" fill="#263238"/>
<path d="M213.516 91.082C216.179 91.082 217.404 92.7257 217.404 95.3391V103.977C217.404 106.59 216.179 108.209 213.516 108.209H209.506V91.082H213.516ZM213.516 106.467C214.889 106.467 215.546 105.645 215.546 104.05V95.2405C215.546 93.6708 214.889 92.8161 213.492 92.8161H211.437V106.467H213.516Z" fill="#263238"/>
<path d="M221.094 104.757L220.436 108.209H218.677L221.965 91.082H224.726L228.013 108.209H226.107L225.441 104.757H221.094ZM221.34 103.114H225.162L223.222 93.2517L221.34 103.114Z" fill="#263238"/>
<path d="M231.325 102.062L227.701 91.082H229.682L232.353 99.4975L235.04 91.082H236.848L233.207 102.062V108.209H231.325V102.062Z" fill="#263238"/>
<path d="M84.5386 91.5479V91.7944H83.5771V91.4904C83.5771 90.6685 83.2648 90.1919 82.5333 90.1919C81.8019 90.1919 81.4978 90.6767 81.4978 91.4821C81.4978 93.5203 84.5468 93.7175 84.5468 96.2734C84.5468 97.6458 83.8893 98.5416 82.5005 98.5416C81.1116 98.5416 80.4541 97.6458 80.4541 96.2734V95.7556H81.4074V96.3638C81.4074 97.1856 81.7444 97.6623 82.4676 97.6623C83.1908 97.6623 83.536 97.1856 83.536 96.3638C83.536 94.3421 80.4952 94.1449 80.4952 91.589C80.4952 90.1836 81.1444 89.3125 82.5087 89.3125C83.8729 89.3125 84.5386 90.1672 84.5386 91.5479Z" fill="#263238"/>
<path d="M89.445 91.5581V92.3799H88.4835V91.5088C88.4835 90.687 88.163 90.1939 87.4233 90.1939C86.6837 90.1939 86.3549 90.687 86.3549 91.5088V96.3165C86.3549 97.1383 86.6919 97.6232 87.4233 97.6232C88.1547 97.6232 88.4835 97.1301 88.4835 96.3165V95.1331H89.445V96.259C89.445 97.6396 88.7958 98.5437 87.3987 98.5437C86.0015 98.5437 85.3523 97.6396 85.3523 96.259V91.5581C85.3523 90.1857 86.0015 89.2734 87.3987 89.2734C88.7958 89.2734 89.445 90.1857 89.445 91.5581Z" fill="#263238"/>
<path d="M91.3844 94.3682V98.4774H90.3735V89.3633H91.3844V93.4724H93.6198V89.3633H94.6306V98.4527H93.6198V94.3436L91.3844 94.3682Z" fill="#263238"/>
<path d="M98.9041 93.3902V94.3025H96.6852V97.5322H99.4136V98.4527H95.6743V89.3633H99.4136V90.2837H96.6852V93.3902H98.9041Z" fill="#263238"/>
<path d="M102.479 89.3633C103.893 89.3633 104.542 90.1851 104.542 91.6233V96.2091C104.542 97.598 103.893 98.4527 102.479 98.4527H100.351V89.3633H102.479ZM102.479 97.5322C103.211 97.5322 103.556 97.0802 103.556 96.2502V91.574C103.556 90.7522 103.211 90.2837 102.471 90.2837H101.378V97.5322H102.479Z" fill="#263238"/>
<path d="M106.481 96.3159C106.481 97.1378 106.802 97.6227 107.542 97.6227C108.281 97.6227 108.593 97.1296 108.593 96.3159V89.3633H109.547V96.2584C109.547 97.6391 108.906 98.5595 107.509 98.5595C106.112 98.5595 105.479 97.6391 105.479 96.2584V89.3633H106.481V96.3159Z" fill="#263238"/>
<path d="M110.517 98.4527V89.3633H111.536V97.5322H114.133V98.4527H110.517Z" fill="#263238"/>
<path d="M118.135 93.3902V94.3025H115.908V97.5322H118.636V98.4527H114.897V89.3633H118.636V90.2837H115.908V93.3902H118.135Z" fill="#263238"/>
<path d="M143.135 118.832V119.103C143.182 119.467 143.112 119.836 142.935 120.157C142.757 120.478 142.482 120.733 142.149 120.886C142.486 121.046 142.764 121.309 142.941 121.637C143.119 121.965 143.186 122.341 143.135 122.711V123.352C143.135 123.897 142.919 124.419 142.533 124.805C142.148 125.19 141.625 125.407 141.08 125.407C140.536 125.407 140.013 125.19 139.628 124.805C139.242 124.419 139.026 123.897 139.026 123.352V122.711C138.973 122.339 139.042 121.961 139.223 121.632C139.404 121.303 139.686 121.041 140.028 120.886C139.69 120.739 139.408 120.485 139.227 120.163C139.046 119.841 138.976 119.469 139.026 119.103V118.832C139.026 118.287 139.242 117.764 139.628 117.379C140.013 116.994 140.536 116.777 141.08 116.777C141.625 116.777 142.148 116.994 142.533 117.379C142.919 117.764 143.135 118.287 143.135 118.832ZM140.012 118.832V119.251C140.012 120.073 140.415 120.467 141.097 120.467C141.779 120.467 142.182 120.089 142.182 119.251V118.832C142.182 117.944 141.779 117.542 141.097 117.542C140.415 117.542 140.012 117.969 140.012 118.857V118.832ZM140.012 122.571V123.303C140.012 124.19 140.407 124.609 141.097 124.609C141.787 124.609 142.173 124.19 142.182 123.303V122.571C142.182 121.749 141.812 121.33 141.097 121.33C140.382 121.33 140.012 121.758 140.012 122.596V122.571Z" fill="#263238"/>
<path d="M144.935 119.523V120.723H144.006V119.523H144.935ZM144.935 124.233V125.424H144.006V124.233H144.935Z" fill="#263238"/>
<path d="M145.847 118.873C145.847 117.55 146.504 116.695 147.828 116.695C149.151 116.695 149.808 117.517 149.808 118.873V123.327C149.808 124.651 149.159 125.514 147.828 125.514C146.496 125.514 145.847 124.651 145.847 123.327V118.873ZM146.8 123.385C146.8 124.207 147.129 124.634 147.828 124.634C148.526 124.634 148.847 124.166 148.847 123.385V118.824C148.847 118.002 148.526 117.566 147.828 117.566C147.129 117.566 146.8 118.035 146.8 118.824V123.385Z" fill="#263238"/>
<path d="M150.646 118.873C150.646 117.55 151.304 116.695 152.627 116.695C153.95 116.695 154.608 117.517 154.608 118.873V123.327C154.608 124.651 153.958 125.514 152.627 125.514C151.296 125.514 150.646 124.651 150.646 123.327V118.873ZM151.6 123.385C151.6 124.207 151.929 124.634 152.627 124.634C153.326 124.634 153.646 124.166 153.646 123.385V118.824C153.646 118.002 153.326 117.566 152.627 117.566C151.929 117.566 151.6 118.035 151.6 118.824V123.385Z" fill="#263238"/>
<path d="M164.675 118.356C164.312 118.577 163.9 118.704 163.475 118.726V117.904C163.817 117.913 164.151 117.803 164.42 117.593C164.69 117.384 164.879 117.087 164.955 116.754H165.653V125.391H164.7L164.675 118.356Z" fill="#263238"/>
<path d="M167.009 118.873C167.009 117.55 167.658 116.695 168.981 116.695C170.305 116.695 170.97 117.517 170.97 118.873V123.327C170.97 124.651 170.313 125.514 168.981 125.514C167.65 125.514 167.009 124.651 167.009 123.327V118.873ZM167.954 123.385C167.954 124.207 168.291 124.634 168.981 124.634C169.672 124.634 170.009 124.166 170.009 123.385V118.824C170.009 118.002 169.688 117.566 168.981 117.566C168.275 117.566 167.954 118.035 167.954 118.824V123.385Z" fill="#263238"/>
<path d="M172.803 119.523V120.723H171.883V119.523H172.803ZM172.803 124.233V125.424H171.883V124.233H172.803Z" fill="#263238"/>
<path d="M173.723 118.873C173.723 117.55 174.373 116.695 175.696 116.695C177.019 116.695 177.685 117.517 177.685 118.873V123.327C177.685 124.651 177.027 125.514 175.696 125.514C174.364 125.514 173.723 124.651 173.723 123.327V118.873ZM174.668 123.385C174.668 124.207 175.005 124.634 175.696 124.634C176.386 124.634 176.723 124.166 176.723 123.385V118.824C176.723 118.002 176.394 117.566 175.696 117.566C174.997 117.566 174.668 118.035 174.668 118.824V123.385Z" fill="#263238"/>
<path d="M178.523 118.873C178.523 117.55 179.172 116.695 180.495 116.695C181.818 116.695 182.484 117.517 182.484 118.873V123.327C182.484 124.651 181.827 125.514 180.495 125.514C179.164 125.514 178.523 124.651 178.523 123.327V118.873ZM179.468 123.385C179.468 124.207 179.805 124.634 180.495 124.634C181.186 124.634 181.523 124.166 181.523 123.385V118.824C181.523 118.002 181.202 117.566 180.495 117.566C179.789 117.566 179.468 118.035 179.468 118.824V123.385Z" fill="#263238"/>
<path d="M193.16 118.356C192.796 118.577 192.384 118.704 191.96 118.726V117.904C192.301 117.913 192.635 117.803 192.905 117.593C193.174 117.384 193.363 117.087 193.439 116.754H194.113V125.391H193.16V118.356Z" fill="#263238"/>
<path d="M199.455 118.885C199.455 121.49 196.529 122.427 196.513 124.416V124.555H199.348V125.427H195.568V124.687C195.568 121.901 198.493 121.359 198.493 118.934C198.493 118.047 198.197 117.578 197.474 117.578C196.751 117.578 196.463 118.079 196.463 118.844V119.608H195.568V118.91C195.568 117.586 196.168 116.707 197.507 116.707C198.847 116.707 199.455 117.57 199.455 118.885Z" fill="#263238"/>
<path d="M201.271 119.523V120.723H200.343V119.523H201.271ZM201.271 124.233V125.424H200.343V124.233H201.271Z" fill="#263238"/>
<path d="M202.183 118.873C202.183 117.55 202.833 116.695 204.156 116.695C205.479 116.695 206.145 117.517 206.145 118.873V123.327C206.145 124.651 205.487 125.514 204.156 125.514C202.824 125.514 202.183 124.651 202.183 123.327V118.873ZM203.128 123.385C203.128 124.207 203.465 124.634 204.156 124.634C204.846 124.634 205.183 124.166 205.183 123.385V118.824C205.183 118.002 204.854 117.566 204.156 117.566C203.457 117.566 203.128 118.035 203.128 118.824V123.385Z" fill="#263238"/>
<path d="M206.983 118.873C206.983 117.55 207.632 116.695 208.955 116.695C210.278 116.695 210.944 117.517 210.944 118.873V123.327C210.944 124.651 210.287 125.514 208.955 125.514C207.624 125.514 206.983 124.651 206.983 123.327V118.873ZM207.928 123.385C207.928 124.207 208.265 124.634 208.955 124.634C209.646 124.634 209.983 124.166 209.983 123.385V118.824C209.983 118.002 209.662 117.566 208.955 117.566C208.249 117.566 207.928 118.035 207.928 118.824V123.385Z" fill="#263238"/>
<path d="M224.825 118.885C224.825 121.49 221.899 122.427 221.883 124.416V124.555H224.726V125.427H220.938V124.687C220.938 121.901 223.855 121.359 223.855 118.934C223.855 118.047 223.559 117.578 222.844 117.578C222.129 117.578 221.833 118.079 221.833 118.844V119.608H220.938V118.91C220.938 117.586 221.537 116.707 222.869 116.707C224.2 116.707 224.825 117.57 224.825 118.885Z" fill="#263238"/>
<path d="M226.633 119.523V120.723H225.712V119.523H226.633ZM226.633 124.233V125.424H225.712V124.233H226.633Z" fill="#263238"/>
<path d="M227.545 118.873C227.545 117.55 228.202 116.695 229.526 116.695C230.849 116.695 231.506 117.517 231.506 118.873V123.327C231.506 124.651 230.857 125.514 229.526 125.514C228.194 125.514 227.545 124.651 227.545 123.327V118.873ZM228.498 123.385C228.498 124.207 228.835 124.634 229.526 124.634C230.216 124.634 230.545 124.166 230.545 123.385V118.824C230.545 118.002 230.224 117.566 229.526 117.566C228.827 117.566 228.498 118.035 228.498 118.824V123.385Z" fill="#263238"/>
<path d="M232.344 118.873C232.344 117.55 233.002 116.695 234.325 116.695C235.648 116.695 236.314 117.517 236.314 118.873V123.327C236.314 124.651 235.656 125.514 234.325 125.514C232.994 125.514 232.344 124.651 232.344 123.327V118.873ZM233.298 123.385C233.298 124.207 233.635 124.634 234.325 124.634C235.015 124.634 235.344 124.166 235.344 123.385V118.824C235.344 118.002 235.024 117.566 234.325 117.566C233.627 117.566 233.298 118.035 233.298 118.824V123.385Z" fill="#263238"/>
<path d="M251.871 123.68V125.423H250.926V123.68H248.14V122.809L250.819 116.785H251.871V122.809H252.561V123.68H251.871ZM249.027 122.809H250.926V118.552L249.027 122.809Z" fill="#263238"/>
<path d="M254.221 119.523V120.723H253.301V119.523H254.221ZM254.221 124.233V125.424H253.301V124.233H254.221Z" fill="#263238"/>
<path d="M255.134 118.873C255.134 117.55 255.791 116.695 257.114 116.695C258.438 116.695 259.095 117.517 259.095 118.873V123.327C259.095 124.651 258.446 125.514 257.114 125.514C255.783 125.514 255.134 124.651 255.134 123.327V118.873ZM256.087 123.385C256.087 124.207 256.424 124.634 257.114 124.634C257.805 124.634 258.133 124.166 258.133 123.385V118.824C258.133 118.002 257.813 117.566 257.114 117.566C256.416 117.566 256.087 118.035 256.087 118.824V123.385Z" fill="#263238"/>
<path d="M259.941 118.873C259.941 117.55 260.591 116.695 261.914 116.695C263.237 116.695 263.903 117.517 263.903 118.873V123.327C263.903 124.651 263.245 125.514 261.914 125.514C260.582 125.514 259.941 124.651 259.941 123.327V118.873ZM260.887 123.385C260.887 124.207 261.223 124.634 261.914 124.634C262.604 124.634 262.941 124.166 262.941 123.385V118.824C262.941 118.002 262.612 117.566 261.914 117.566C261.215 117.566 260.887 118.035 260.887 118.824V123.385Z" fill="#263238"/>
<path d="M281.252 118.857V119.021H280.347V118.799C280.347 117.977 280.027 117.566 279.328 117.566C278.63 117.566 278.276 118.035 278.276 118.955V120.895C278.376 120.609 278.567 120.363 278.819 120.196C279.071 120.028 279.371 119.947 279.674 119.966C280.783 119.966 281.276 120.788 281.276 122.021V123.327C281.276 124.651 280.619 125.514 279.296 125.514C277.972 125.514 277.315 124.651 277.315 123.327V118.922C277.315 117.55 277.931 116.695 279.296 116.695C280.66 116.695 281.252 117.542 281.252 118.857ZM278.244 122.095V123.385C278.244 124.207 278.564 124.634 279.263 124.634C279.961 124.634 280.29 124.166 280.29 123.385V122.095C280.29 121.314 279.961 120.846 279.263 120.846C278.564 120.846 278.244 121.314 278.244 122.095Z" fill="#263238"/>
<path d="M283.101 119.523V120.723H282.172V119.523H283.101ZM283.101 124.233V125.424H282.172V124.233H283.101Z" fill="#263238"/>
<path d="M283.996 118.873C283.996 117.55 284.654 116.695 285.969 116.695C287.284 116.695 287.958 117.517 287.958 118.873V123.327C287.958 124.651 287.308 125.514 285.969 125.514C284.629 125.514 283.996 124.651 283.996 123.327V118.873ZM284.95 123.385C284.95 124.207 285.278 124.634 285.969 124.634C286.659 124.634 286.996 124.166 286.996 123.385V118.824C286.996 118.002 286.675 117.566 285.969 117.566C285.262 117.566 284.95 118.035 284.95 118.824V123.385Z" fill="#263238"/>
<path d="M288.812 118.873C288.812 117.55 289.47 116.695 290.793 116.695C292.116 116.695 292.773 117.517 292.773 118.873V123.327C292.773 124.651 292.124 125.514 290.793 125.514C289.462 125.514 288.812 124.651 288.812 123.327V118.873ZM289.766 123.385C289.766 124.207 290.094 124.634 290.793 124.634C291.491 124.634 291.812 124.166 291.812 123.385V118.824C291.812 118.002 291.491 117.566 290.793 117.566C290.094 117.566 289.766 118.035 289.766 118.824V123.385Z" fill="#263238"/>
<path d="M161.141 221.734H134.826V246.529H161.141V221.734Z" stroke="#ADADAD" stroke-miterlimit="10"/>
<path d="M188.22 221.734H161.906V246.529H188.22V221.734Z" stroke="#ADADAD" stroke-miterlimit="10"/>
<path d="M215.3 221.734H188.985V246.529H215.3V221.734Z" stroke="#ADADAD" stroke-miterlimit="10"/>
<path d="M242.387 221.734H216.072V246.529H242.387V221.734Z" stroke="#ADADAD" stroke-miterlimit="10"/>
<path d="M269.466 221.734H243.151V246.529H269.466V221.734Z" stroke="#ADADAD" stroke-miterlimit="10"/>
<path d="M296.661 221.734H270.346V246.529H296.661V221.734Z" stroke="#ADADAD" stroke-miterlimit="10"/>
<path d="M80.717 130.633H123.329" stroke="#ADADAD" stroke-miterlimit="10"/>
<path d="M80.717 135.312H123.329" stroke="#ADADAD" stroke-miterlimit="10"/>
<path d="M80.717 139.98H123.329" stroke="#ADADAD" stroke-miterlimit="10"/>
<path d="M80.717 144.648H123.329" stroke="#ADADAD" stroke-miterlimit="10"/>
<path d="M80.717 149.312H123.329" stroke="#ADADAD" stroke-miterlimit="10"/>
<path d="M80.717 153.992H123.329" stroke="#ADADAD" stroke-miterlimit="10"/>
<path d="M80.717 158.66H123.329" stroke="#ADADAD" stroke-miterlimit="10"/>
<path d="M80.717 163.328H123.329" stroke="#ADADAD" stroke-miterlimit="10"/>
<path d="M80.717 234.645H123.329" stroke="#ADADAD" stroke-miterlimit="10"/>
<path d="M80.717 239.312H123.329" stroke="#ADADAD" stroke-miterlimit="10"/>
<path d="M80.717 243.98H123.329" stroke="#ADADAD" stroke-miterlimit="10"/>
<path d="M80.717 248.648H123.329" stroke="#ADADAD" stroke-miterlimit="10"/>
<path d="M80.717 253.324H123.329" stroke="#ADADAD" stroke-miterlimit="10"/>
<path d="M80.717 257.992H123.329" stroke="#ADADAD" stroke-miterlimit="10"/>
<path d="M80.717 262.664H123.329" stroke="#ADADAD" stroke-miterlimit="10"/>
<path d="M80.717 267.328H123.329" stroke="#ADADAD" stroke-miterlimit="10"/>
<path d="M161.141 130.66H134.826V155.455H161.141V130.66Z" stroke="#ADADAD" stroke-miterlimit="10"/>
<path d="M188.22 130.66H161.906V155.455H188.22V130.66Z" fill="#63518C" stroke="#ADADAD" stroke-miterlimit="10"/>
<path d="M215.3 130.66H188.985V155.455H215.3V130.66Z" fill="#63518C" stroke="#ADADAD" stroke-miterlimit="10"/>
<path d="M242.387 130.66H216.072V155.455H242.387V130.66Z" stroke="#ADADAD" stroke-miterlimit="10"/>
<path d="M269.466 130.66H243.151V155.455H269.466V130.66Z" stroke="#ADADAD" stroke-miterlimit="10"/>
<path d="M296.661 130.66H270.346V155.455H296.661V130.66Z" stroke="#ADADAD" stroke-miterlimit="10"/>
<path d="M166.524 137.727H184.925" stroke="#ADADAD" stroke-miterlimit="10"/>
<path d="M166.524 140.527H184.925" stroke="#ADADAD" stroke-miterlimit="10"/>
<path d="M166.524 143.332H184.925" stroke="#ADADAD" stroke-miterlimit="10"/>
<path d="M166.524 146.125H184.925" stroke="#ADADAD" stroke-miterlimit="10"/>
<path d="M166.524 148.93H184.925" stroke="#ADADAD" stroke-miterlimit="10"/>
<path d="M161.141 160.992H134.826V185.787H161.141V160.992Z" stroke="#ADADAD" stroke-miterlimit="10"/>
<path d="M188.22 160.992H161.906V185.787H188.22V160.992Z" fill="#63518C" stroke="#ADADAD" stroke-miterlimit="10"/>
<path d="M215.3 160.992H188.985V185.787H215.3V160.992Z" stroke="#ADADAD" stroke-miterlimit="10"/>
<path d="M242.387 160.992H216.072V185.787H242.387V160.992Z" stroke="#ADADAD" stroke-miterlimit="10"/>
<path d="M269.466 160.992H243.151V185.787H269.466V160.992Z" stroke="#ADADAD" stroke-miterlimit="10"/>
<path d="M296.661 160.992H270.346V185.787H296.661V160.992Z" stroke="#ADADAD" stroke-miterlimit="10"/>
<path d="M166.524 167.73H184.925" stroke="#ADADAD" stroke-miterlimit="10"/>
<path d="M166.524 170.527H184.925" stroke="#ADADAD" stroke-miterlimit="10"/>
<path d="M166.524 173.328H184.925" stroke="#ADADAD" stroke-miterlimit="10"/>
<path d="M166.524 176.133H184.925" stroke="#ADADAD" stroke-miterlimit="10"/>
<path d="M166.524 178.934H184.925" stroke="#ADADAD" stroke-miterlimit="10"/>
<path d="M161.141 191.32H134.826V216.115H161.141V191.32Z" stroke="#ADADAD" stroke-miterlimit="10"/>
<path d="M188.22 191.32H161.906V216.115H188.22V191.32Z" stroke="#ADADAD" stroke-miterlimit="10"/>
<path d="M215.3 191.32H188.985V216.115H215.3V191.32Z" stroke="#ADADAD" stroke-miterlimit="10"/>
<path d="M242.387 191.32H216.072V216.115H242.387V191.32Z" stroke="#ADADAD" stroke-miterlimit="10"/>
<path d="M269.466 191.32H243.151V216.115H269.466V191.32Z" fill="#63518C" stroke="#ADADAD" stroke-miterlimit="10"/>
<path d="M296.661 191.32H270.346V216.115H296.661V191.32Z" stroke="#ADADAD" stroke-miterlimit="10"/>
<path d="M248.124 198.133H266.524" stroke="#ADADAD" stroke-miterlimit="10"/>
<path d="M248.124 200.934H266.524" stroke="#ADADAD" stroke-miterlimit="10"/>
<path d="M248.124 203.73H266.524" stroke="#ADADAD" stroke-miterlimit="10"/>
<path d="M248.124 206.531H266.524" stroke="#ADADAD" stroke-miterlimit="10"/>
<path d="M248.124 209.332H266.524" stroke="#ADADAD" stroke-miterlimit="10"/>
<path d="M161.141 252.145H134.826V276.939H161.141V252.145Z" stroke="#ADADAD" stroke-miterlimit="10"/>
<path d="M188.22 252.145H161.906V276.939H188.22V252.145Z" stroke="#ADADAD" stroke-miterlimit="10"/>
<path d="M215.3 252.145H188.985V276.939H215.3V252.145Z" fill="#63518C" stroke="#ADADAD" stroke-miterlimit="10"/>
<path d="M242.387 252.145H216.072V276.939H242.387V252.145Z" fill="#63518C" stroke="#ADADAD" stroke-miterlimit="10"/>
<path d="M269.466 252.145H243.151V276.939H269.466V252.145Z" fill="#63518C" stroke="#ADADAD" stroke-miterlimit="10"/>
<path d="M296.661 252.145H270.346V276.939H296.661V252.145Z" stroke="#ADADAD" stroke-miterlimit="10"/>
<path d="M193.324 258.93H211.725" stroke="#ADADAD" stroke-miterlimit="10"/>
<path d="M193.324 261.734H211.725" stroke="#ADADAD" stroke-miterlimit="10"/>
<path d="M193.324 264.535H211.725" stroke="#ADADAD" stroke-miterlimit="10"/>
<path d="M193.324 267.328H211.725" stroke="#ADADAD" stroke-miterlimit="10"/>
<path d="M193.324 270.133H211.725" stroke="#ADADAD" stroke-miterlimit="10"/>
<path d="M220.124 258.93H238.525" stroke="#ADADAD" stroke-miterlimit="10"/>
<path d="M220.124 261.734H238.525" stroke="#ADADAD" stroke-miterlimit="10"/>
<path d="M220.124 264.535H238.525" stroke="#ADADAD" stroke-miterlimit="10"/>
<path d="M220.124 267.328H238.525" stroke="#ADADAD" stroke-miterlimit="10"/>
<path d="M220.124 270.133H238.525" stroke="#ADADAD" stroke-miterlimit="10"/>
<path d="M246.924 258.93H265.325" stroke="#ADADAD" stroke-miterlimit="10"/>
<path d="M246.924 261.734H265.325" stroke="#ADADAD" stroke-miterlimit="10"/>
<path d="M246.924 264.535H265.325" stroke="#ADADAD" stroke-miterlimit="10"/>
<path d="M246.924 267.328H265.325" stroke="#ADADAD" stroke-miterlimit="10"/>
<path d="M246.924 270.133H265.325" stroke="#ADADAD" stroke-miterlimit="10"/>
</svg>
